<svg xmlns="http://www.w3.org/2000/svg" width="920" height="900" viewBox="0 0 920 900">
  <path d="M456 798 C426 668 430 556 486 464 C538 378 520 294 446 206 C406 158 396 118 432 72" fill="none" stroke="#5b3f2f" stroke-width="88" stroke-linecap="round" stroke-linejoin="round" opacity=".18"/>
  <path d="M456 798 C426 668 430 556 486 464 C538 378 520 294 446 206 C406 158 396 118 432 72" fill="none" stroke="#f8e9c6" stroke-width="68" stroke-linecap="round" stroke-linejoin="round" opacity=".88"/>
  <path d="M486 464 C364 422 250 430 116 510" fill="none" stroke="#5b3f2f" stroke-width="58" stroke-linecap="round" opacity=".14"/>
  <path d="M486 464 C364 422 250 430 116 510" fill="none" stroke="#f7e3b2" stroke-width="42" stroke-linecap="round" opacity=".78"/>
  <path d="M500 432 C632 392 746 420 828 514" fill="none" stroke="#5b3f2f" stroke-width="58" stroke-linecap="round" opacity=".14"/>
  <path d="M500 432 C632 392 746 420 828 514" fill="none" stroke="#f7e3b2" stroke-width="42" stroke-linecap="round" opacity=".76"/>
  <g fill="#7a5a42" opacity=".28">
    <ellipse cx="458" cy="712" rx="28" ry="9"/>
    <ellipse cx="474" cy="552" rx="24" ry="8"/>
    <ellipse cx="476" cy="370" rx="24" ry="8"/>
    <ellipse cx="394" cy="208" rx="22" ry="8"/>
  </g>
</svg>
