<svg xmlns="http://www.w3.org/2000/svg" width="1500" height="1320" viewBox="0 0 1500 1320">
  <rect width="1500" height="1320" fill="none"/>
  <g opacity=".96">
    <path d="M0 0H1500V454C1284 520 1094 500 910 548C706 602 526 578 336 640C210 680 102 704 0 752Z" fill="#355d78"/>
    <circle cx="1268" cy="158" r="78" fill="#f2be63" opacity=".92"/>
    <circle cx="1268" cy="158" r="186" fill="#f2be63" opacity=".16"/>
    <path d="M0 428C154 348 314 382 470 312C650 232 822 286 1010 212C1190 142 1328 178 1500 106V624H0Z" fill="#20344f" opacity=".18"/>
    <path d="M0 528C176 450 324 484 506 418C702 348 858 408 1052 338C1218 278 1358 300 1500 248V730H0Z" fill="#5d8f92" opacity=".34"/>
    <path d="M0 638C202 566 390 600 590 546C790 492 944 522 1150 470C1304 430 1408 438 1500 402V812H0Z" fill="#9dd3c8" opacity=".22"/>
    <g fill="#f5e8d3" opacity=".46">
      <ellipse cx="244" cy="174" rx="152" ry="38"/>
      <ellipse cx="386" cy="202" rx="92" ry="25"/>
      <ellipse cx="738" cy="128" rx="170" ry="44"/>
      <ellipse cx="916" cy="162" rx="106" ry="28"/>
    </g>
  </g>
  <g opacity=".82">
    <path d="M134 568H384" stroke="#fff8d9" stroke-width="9" stroke-linecap="round" opacity=".36"/>
    <path d="M560 530H826" stroke="#fff8d9" stroke-width="9" stroke-linecap="round" opacity=".32"/>
    <path d="M1034 490H1378" stroke="#fff8d9" stroke-width="9" stroke-linecap="round" opacity=".30"/>
    <g stroke="#7a5a42" stroke-width="8" stroke-linejoin="round">
      <path d="M166 572l70-66 74 66z" fill="#d48f5b"/>
      <path d="M188 572h98v108h-98z" fill="#f5e8d3"/>
      <path d="M356 526l88-74 96 74z" fill="#47b2c2"/>
      <path d="M388 526h124v154H388z" fill="#f5e8d3"/>
      <path d="M598 590l74-70 82 70z" fill="#c9473d"/>
      <path d="M626 590h102v116H626z" fill="#f5e8d3"/>
      <path d="M878 560l86-76 98 76z" fill="#e7be65"/>
      <path d="M912 560h116v146H912z" fill="#f5e8d3"/>
      <path d="M1138 540l86-74 96 74z" fill="#47b2c2"/>
      <path d="M1170 540h116v136h-116z" fill="#f5e8d3"/>
    </g>
    <g fill="#7b8a86" opacity=".46">
      <rect x="226" y="620" width="22" height="38" rx="6"/>
      <rect x="432" y="594" width="24" height="44" rx="6"/>
      <rect x="674" y="638" width="22" height="40" rx="6"/>
      <rect x="958" y="626" width="24" height="42" rx="6"/>
      <rect x="1222" y="618" width="24" height="40" rx="6"/>
    </g>
    <g fill="#5d8f92" opacity=".26">
      <circle cx="334" cy="704" r="40"/>
      <circle cx="516" cy="706" r="42"/>
      <circle cx="1092" cy="706" r="40"/>
      <circle cx="1340" cy="660" r="48"/>
    </g>
  </g>
  <g>
    <ellipse cx="752" cy="1188" rx="614" ry="78" fill="#1a2a3a" opacity=".16"/>
    <path d="M104 910C154 726 380 640 642 662C908 684 1114 628 1310 734C1484 828 1480 1052 1302 1162C1078 1300 638 1306 332 1196C154 1132 68 1046 104 910Z" fill="#f5e8d3" stroke="#7a5a42" stroke-width="17"/>
    <path d="M208 920C264 774 454 720 668 738C890 756 1062 710 1218 790C1354 858 1348 1022 1200 1100C1008 1202 646 1212 396 1128C250 1078 174 1016 208 920Z" fill="#b7d99b"/>
    <path d="M526 994C698 908 1018 912 1204 1008C1082 1160 686 1184 526 994Z" fill="#5d8f92" opacity=".72"/>
    <path d="M204 916C338 956 466 962 574 918" fill="none" stroke="#47b2c2" stroke-width="22" stroke-linecap="round" opacity=".24"/>
    <path d="M936 848C1070 836 1168 874 1242 948" fill="none" stroke="#47b2c2" stroke-width="20" stroke-linecap="round" opacity=".18"/>
    <path d="M690 704C770 804 862 890 826 1004C790 1116 752 1192 772 1270" fill="none" stroke="#f5e8d3" stroke-width="68" stroke-linecap="round" opacity=".92"/>
    <path d="M690 704C770 804 862 890 826 1004C790 1116 752 1192 772 1270" fill="none" stroke="#7a5a42" stroke-width="8" stroke-linecap="round" opacity=".22"/>
    <path d="M382 1134C492 1062 622 1018 800 1020C964 1022 1062 966 1228 1004" fill="none" stroke="#f5e8d3" stroke-width="44" stroke-linecap="round" opacity=".80"/>
    <path d="M382 1134C492 1062 622 1018 800 1020C964 1022 1062 966 1228 1004" fill="none" stroke="#7a5a42" stroke-width="7" stroke-linecap="round" opacity=".18"/>
    <g opacity=".92">
      <path d="M572 736h134l42 62-24 76H554l-26-76z" fill="#f5e8d3" stroke="#7a5a42" stroke-width="8" stroke-linejoin="round"/>
      <path d="M592 706h98l36 44H558z" fill="#f2be63" stroke="#7a5a42" stroke-width="8" stroke-linejoin="round"/>
      <path d="M592 812h92" stroke="#5d8f92" stroke-width="10" stroke-linecap="round"/>
      <path d="M604 848h58" stroke="#c9473d" stroke-width="10" stroke-linecap="round"/>
    </g>
    <g opacity=".90">
      <path d="M1168 906c68-60 140-60 212 0v194c-70-42-142-42-212 0z" fill="#f5e8d3" stroke="#7a5a42" stroke-width="12" stroke-linejoin="round"/>
      <path d="M1274 906v214" stroke="#7a5a42" stroke-width="7" opacity=".45"/>
      <circle cx="1274" cy="930" r="104" fill="#f2be63" opacity=".18"/>
      <path d="M1216 992h78" stroke="#e89863" stroke-width="12" stroke-linecap="round"/>
      <path d="M1320 992h54" stroke="#c9473d" stroke-width="12" stroke-linecap="round"/>
      <path d="M1214 1040h42" stroke="#f2be63" stroke-width="12" stroke-linecap="round"/>
      <path d="M1318 1040h56" stroke="#47b2c2" stroke-width="12" stroke-linecap="round"/>
      <path d="M1312 842l28 28-28 28-28-28z" fill="#ffd768"/>
    </g>
    <g opacity=".86">
      <path d="M268 920h122l34 62-28 74H242l-24-74z" fill="#f5e8d3" stroke="#7a5a42" stroke-width="8" stroke-linejoin="round"/>
      <path d="M292 890h72l36 38H254z" fill="#9dd3c8" stroke="#7a5a42" stroke-width="8" stroke-linejoin="round"/>
      <path d="M282 1000h72" stroke="#47b2c2" stroke-width="10" stroke-linecap="round"/>
      <path d="M296 1032h58" stroke="#f2be63" stroke-width="10" stroke-linecap="round"/>
      <path d="M1030 868h116l42 62-28 74H1006l-24-74z" fill="#f5e8d3" stroke="#7a5a42" stroke-width="8" stroke-linejoin="round"/>
      <path d="M1054 838h70l38 38h-144z" fill="#47b2c2" stroke="#7a5a42" stroke-width="8" stroke-linejoin="round"/>
      <path d="M1046 950h62" stroke="#f2be63" stroke-width="10" stroke-linecap="round"/>
      <path d="M1118 950h44" stroke="#c9473d" stroke-width="10" stroke-linecap="round"/>
    </g>
    <g fill="#f2be63" opacity=".56">
      <circle cx="292" cy="784" r="17"/>
      <circle cx="1076" cy="790" r="18"/>
      <circle cx="1132" cy="1166" r="15"/>
      <circle cx="666" cy="978" r="14"/>
    </g>
    <g fill="#7a5a42" opacity=".22">
      <ellipse cx="300" cy="1118" rx="96" ry="24"/>
      <ellipse cx="1076" cy="1112" rx="104" ry="26"/>
      <ellipse cx="924" cy="1168" rx="46" ry="10"/>
      <ellipse cx="876" cy="1090" rx="38" ry="10"/>
    </g>
  </g>
  <g opacity=".56">
    <path d="M0 1182C150 1134 294 1168 416 1248C512 1310 646 1324 818 1282C1012 1234 1178 1252 1500 1198V1320H0Z" fill="#7a5a42"/>
    <path d="M0 1248C164 1212 304 1232 430 1304L0 1320Z" fill="#20344f" opacity=".32"/>
  </g>
</svg>
