<svg xmlns="http://www.w3.org/2000/svg" width="1020" height="760" viewBox="0 0 1020 760">
  <g transform="translate(96 154)" stroke="#7a5a42" stroke-width="8" stroke-linejoin="round">
    <ellipse cx="120" cy="206" rx="98" ry="26" fill="#1a2a3a" opacity=".14" stroke="none"/>
    <path d="M46 96 H164 L190 188 H24Z" fill="#f5e8d3"/>
    <path d="M62 62 H150 L174 98 H40Z" fill="#e89863"/>
    <path d="M86 130 H130" stroke="#47b2c2" stroke-width="9" stroke-linecap="round"/>
    <path d="M80 158 H144" stroke="#f2be63" stroke-width="9" stroke-linecap="round"/>
  </g>
  <g transform="translate(724 196)" stroke="#7a5a42" stroke-width="8" stroke-linejoin="round">
    <ellipse cx="106" cy="194" rx="92" ry="24" fill="#1a2a3a" opacity=".14" stroke="none"/>
    <path d="M44 92 H152 L176 178 H22Z" fill="#f8e9c6"/>
    <path d="M60 58 H138 L162 94 H38Z" fill="#47b2c2"/>
    <path d="M86 122 H132" stroke="#c9473d" stroke-width="9" stroke-linecap="round"/>
    <path d="M76 150 H146" stroke="#f2be63" stroke-width="9" stroke-linecap="round"/>
  </g>
  <g transform="translate(392 30)" stroke="#7a5a42" stroke-width="8" stroke-linejoin="round">
    <ellipse cx="118" cy="204" rx="102" ry="26" fill="#1a2a3a" opacity=".13" stroke="none"/>
    <path d="M44 100 H168 L190 184 H22Z" fill="#f5e8d3"/>
    <path d="M62 62 H152 L178 102 H38Z" fill="#f2be63"/>
    <path d="M84 132 H146" stroke="#438a87" stroke-width="9" stroke-linecap="round"/>
    <path d="M94 158 H134" stroke="#c9473d" stroke-width="9" stroke-linecap="round"/>
  </g>
  <path d="M240 440 C360 374 540 362 734 426" fill="none" stroke="#f8e9c6" stroke-width="18" stroke-linecap="round" opacity=".24"/>
  <g fill="#ffd768" opacity=".70">
    <path d="M292 238 L306 252 L292 266 L278 252Z"/>
    <path d="M654 154 L670 170 L654 186 L638 170Z"/>
    <path d="M812 454 L828 470 L812 486 L796 470Z"/>
  </g>
</svg>
