<svg xmlns="http://www.w3.org/2000/svg" width="1280" height="900" viewBox="0 0 1280 900">
  <ellipse cx="640" cy="762" rx="548" ry="78" fill="#1a2a3a" opacity=".16"/>
  <path d="M118 308 C244 126 532 92 762 148 C1018 210 1150 412 1084 620 C1010 852 610 890 318 760 C100 664 8 468 118 308Z" fill="#f5e8d3" stroke="#7a5a42" stroke-width="16"/>
  <path d="M210 340 C330 208 548 196 742 238 C948 282 1040 430 984 574 C914 754 600 780 354 680 C174 606 118 456 210 340Z" fill="#b7d99b"/>
  <path d="M300 510 C438 430 710 428 874 512 C780 658 456 674 300 510Z" fill="#5d8f92" opacity=".72"/>
  <path d="M142 470 C242 500 330 516 420 490" fill="none" stroke="#47b2c2" stroke-width="20" stroke-linecap="round" opacity=".24"/>
  <path d="M852 346 C956 340 1032 366 1080 424" fill="none" stroke="#47b2c2" stroke-width="18" stroke-linecap="round" opacity=".20"/>
  <g fill="#f2be63" opacity=".55">
    <circle cx="246" cy="306" r="18"/>
    <circle cx="988" cy="524" r="20"/>
    <circle cx="410" cy="704" r="14"/>
    <circle cx="822" cy="250" r="13"/>
  </g>
</svg>
