<svg xmlns="http://www.w3.org/2000/svg" width="620" height="560" viewBox="0 0 620 560">
  <ellipse cx="310" cy="474" rx="210" ry="36" fill="#1a2a3a" opacity=".16"/>
  <circle cx="310" cy="270" r="188" fill="#f2be63" opacity=".22"/>
  <circle cx="310" cy="270" r="128" fill="#ffd768" opacity=".24"/>
  <path d="M116 196 C186 158 250 172 310 220 C370 172 434 158 504 196 V388 C434 354 370 366 310 430 C250 366 186 354 116 388Z" fill="#f5e8d3" stroke="#7a5a42" stroke-width="14" stroke-linejoin="round"/>
  <path d="M310 220 V430" stroke="#7a5a42" stroke-width="9" opacity=".62"/>
  <path d="M164 250 H254" stroke="#e89863" stroke-width="12" stroke-linecap="round"/>
  <path d="M366 250 H456" stroke="#47b2c2" stroke-width="12" stroke-linecap="round"/>
  <path d="M164 300 H236" stroke="#f2be63" stroke-width="12" stroke-linecap="round"/>
  <path d="M374 300 H442" stroke="#c9473d" stroke-width="12" stroke-linecap="round"/>
  <path d="M208 112 L236 140 L208 168 L180 140Z" fill="#ffd768"/>
  <path d="M458 96 L484 122 L458 148 L432 122Z" fill="#ffd768"/>
  <path d="M516 236 C566 286 578 346 538 408" fill="none" stroke="#9dd3c8" stroke-width="14" stroke-linecap="round" opacity=".55"/>
</svg>
