<svg xmlns="http://www.w3.org/2000/svg" width="560" height="360" viewBox="0 0 560 360">
  <path d="M52 310 C110 270 158 254 236 252 C310 250 364 270 428 300 L428 336 L52 336 Z" fill="#1A1510" opacity="0.18"/>
  <path d="M92 312 L130 110 L164 110 L126 312 Z M186 312 L214 250 L312 250 L312 312 Z M364 312 L392 170 L436 170 L408 312 Z" fill="#856536" stroke="#2B2730" stroke-width="10" stroke-linejoin="round"/>
  <path d="M208 250 L238 194 L290 194 L318 250 Z M382 170 L458 170 L442 234 L366 234 Z" fill="#ECDEC8" opacity="0.90"/>
  <path d="M420 214 C468 190 508 186 540 194 C514 224 474 242 424 246 Z" fill="#38C7FF" opacity="0.32"/>
</svg>
