<svg xmlns="http://www.w3.org/2000/svg" width="1600" height="420" viewBox="0 0 1600 420">
  <path d="M0 260 C120 230 210 210 340 214 C450 218 560 242 700 230 C835 218 935 182 1060 180 C1190 178 1320 214 1600 228 L1600 420 L0 420 Z" fill="#1A1510" opacity="0.18"/>
  <path d="M0 220 C120 194 218 176 346 182 C456 188 560 212 698 202 C840 192 944 158 1064 156 C1194 154 1320 190 1600 208 L1600 288 C1338 278 1198 258 1068 258 C948 258 844 292 702 302 C564 312 460 292 346 286 C224 280 122 298 0 320 Z" fill="#292C39" opacity="0.58"/>
  <path d="M120 218 L226 218 L226 166 L260 166 L260 220 L390 220 L390 184 L426 184 L426 226 L736 226 L736 166 L770 166 L770 230 L1020 230 L1020 174 L1050 174 L1050 234 L1310 234 L1310 194 L1342 194 L1342 238 L1480 238 L1480 270 L120 270 Z" fill="#856536" opacity="0.14"/>
</svg>