<svg xmlns="http://www.w3.org/2000/svg" width="1400" height="900" viewBox="0 0 1400 900">
  <path d="M80 360 C260 290 460 280 700 300 C960 320 1170 300 1320 255 L1320 900 L80 900 Z" fill="#856536" opacity="0.22"/>
  <path d="M120 360 C310 305 500 308 700 330 C910 352 1090 332 1280 300 L1280 860 L120 860 Z" fill="#856536" stroke="#2B2730" stroke-width="12" stroke-linejoin="round"/>
  <path d="M170 470 L1230 430 L1230 490 L170 530 Z" fill="#ECDEC8" opacity="0.18"/>
  <path d="M170 610 L1230 570 L1230 630 L170 670 Z" fill="#ECDEC8" opacity="0.16"/>
  <path d="M210 750 C430 705 620 690 820 700 C990 710 1110 690 1200 670 L1200 820 L210 820 Z" fill="#FFB340" opacity="0.12"/>
</svg>
