<svg xmlns="http://www.w3.org/2000/svg" width="1800" height="900" viewBox="0 0 1800 900">
  <path d="M0 0 L1800 0 L1800 900 L0 900 Z" fill="#292C39"/>
  <path d="M0 470 C210 410 420 455 620 390 C840 320 1050 360 1270 300 C1470 245 1650 275 1800 250 L1800 900 L0 900 Z" fill="#856536" opacity="0.18"/>
  <path d="M0 560 C240 500 450 540 650 485 C870 430 1080 470 1295 410 C1500 352 1680 370 1800 350 L1800 900 L0 900 Z" fill="#ECDEC8" opacity="0.56"/>
  <path d="M0 645 C270 595 520 625 760 585 C1010 545 1260 575 1500 525 C1635 498 1740 485 1800 480 L1800 900 L0 900 Z" fill="#FFB340" opacity="0.14"/>
</svg>
