<svg xmlns="http://www.w3.org/2000/svg" width="900" height="900" viewBox="0 0 900 900">
  <path d="M120 760 C170 660 240 590 340 520 C450 445 555 400 660 320 C725 270 770 225 805 150 L840 205 C790 300 725 375 635 450 C550 520 470 565 390 640 C315 712 255 780 210 840 Z" fill="#FFB340" opacity="0.22"/>
  <path d="M170 748 C215 670 278 614 364 556 C462 490 548 448 635 380 C693 334 735 295 770 235 L802 280 C755 355 695 418 613 485 C533 550 455 592 382 660 C315 722 262 782 224 830 Z" fill="#ECDEC8" opacity="0.78"/>
  <path d="M250 710 C315 648 380 602 455 555 C530 508 600 452 668 370" fill="none" stroke="#2B2730" stroke-width="10" stroke-linecap="round" opacity="0.22"/>
</svg>
