<svg xmlns="http://www.w3.org/2000/svg" width="1200" height="760" viewBox="0 0 1200 760">
  <metadata><slot_id>ship.bandirma_hero</slot_id></metadata>
  <path d="M140 650 C260 600 390 585 600 585 C810 585 940 600 1060 650 C930 694 800 710 600 710 C400 710 270 694 140 650 Z" fill="#1A1510" opacity="0.20"/>
  <path d="M210 505 C265 550 405 575 600 575 C795 575 935 550 990 505 L1065 420 L930 410 L884 322 L690 322 L654 250 L560 250 L525 322 L310 322 L270 410 L135 420 Z" fill="#856536" stroke="#2B2730" stroke-width="12" stroke-linejoin="round"/>
  <path d="M320 392 L880 392 L850 322 L700 322 L665 250 L548 250 L516 322 L350 322 Z" fill="#ECDEC8" opacity="0.90"/>
  <path d="M675 120 L700 120 L700 322 L905 190 L900 330 L935 330 L935 350 L700 350 L700 540 L675 540 Z" fill="#ECDEC8" stroke="#2B2730" stroke-width="10" stroke-linejoin="round"/>
  <path d="M710 132 L830 132 L830 200 L710 188 Z M786 214 L905 214 L905 278 L786 270 Z M560 250 L620 250 L620 198 L560 198 Z" fill="#B82E1F" opacity="0.84"/>
</svg>
