<svg xmlns="http://www.w3.org/2000/svg" width="920" height="900" viewBox="0 0 920 900">
  <!-- ============================================= -->
  <!-- Bandirma Vapuru Main Path v2                 -->
  <!-- Warm wood + gold + navy palette              -->
  <!-- ============================================= -->
  <!-- Shadow layer -->
  <path d="M420 820 C400 680 410 560 470 470 C530 390 510 300 440 220 C400 170 390 130 420 80" fill="none" stroke="#1a1510" stroke-width="92" stroke-linecap="round" stroke-linejoin="round" opacity="0.20"/>
  <!-- Main path - warm golden wood -->
  <path d="M420 820 C400 680 410 560 470 470 C530 390 510 300 440 220 C400 170 390 130 420 80" fill="none" stroke="#dab679" stroke-width="64" stroke-linecap="round" stroke-linejoin="round" opacity="0.88"/>
  <!-- Path inner - rich amber -->
  <path d="M420 820 C400 680 410 560 470 470 C530 390 510 300 440 220 C400 170 390 130 420 80" fill="none" stroke="#e8a84c" stroke-width="24" stroke-linecap="round" stroke-linejoin="round" opacity="0.30"/>
  <!-- Branch path - left deck -->
  <path d="M470 470 C350 430 240 440 120 520" fill="none" stroke="#1a1510" stroke-width="62" stroke-linecap="round" opacity="0.14"/>
  <path d="M470 470 C350 430 240 440 120 520" fill="none" stroke="#dab679" stroke-width="42" stroke-linecap="round" opacity="0.80"/>
  <path d="M470 470 C350 430 240 440 120 520" fill="none" stroke="#e8a84c" stroke-width="14" stroke-linecap="round" opacity="0.24"/>
  <!-- Branch path - right deck -->
  <path d="M490 440 C620 400 730 430 810 520" fill="none" stroke="#1a1510" stroke-width="62" stroke-linecap="round" opacity="0.14"/>
  <path d="M490 440 C620 400 730 430 810 520" fill="none" stroke="#dab679" stroke-width="42" stroke-linecap="round" opacity="0.78"/>
  <path d="M490 440 C620 400 730 430 810 520" fill="none" stroke="#e8a84c" stroke-width="14" stroke-linecap="round" opacity="0.22"/>
  <!-- Shadow pads -->
  <g fill="#1a1510" opacity="0.20">
    <ellipse cx="430" cy="730" rx="32" ry="11"/>
    <ellipse cx="440" cy="560" rx="28" ry="10"/>
    <ellipse cx="480" cy="380" rx="28" ry="10"/>
    <ellipse cx="400" cy="220" rx="26" ry="9"/>
    <ellipse cx="270" cy="450" rx="24" ry="8"/>
    <ellipse cx="670" cy="450" rx="24" ry="8"/>
  </g>
  <!-- Turquoise water reflection hints along path -->
  <g fill="#438a87" opacity="0.22">
    <circle cx="420" cy="780" r="8"/>
    <circle cx="460" cy="650" r="6"/>
    <circle cx="530" cy="520" r="7"/>
    <circle cx="480" cy="310" r="5"/>
  </g>
  <!-- Gold accent dots -->
  <g fill="#f2be63" opacity="0.34">
    <circle cx="430" cy="690" r="8"/>
    <circle cx="520" cy="450" r="7"/>
    <circle cx="460" cy="340" r="6"/>
    <circle cx="400" cy="260" r="8"/>
    <circle cx="340" cy="440" r="5"/>
    <circle cx="700" cy="460" r="6"/>
  </g>
  <!-- Navy/crimson marker pins -->
  <g fill="#2a4a6b" opacity="0.50">
    <circle cx="440" cy="560" r="12" stroke="#2b2730" stroke-width="4"/>
    <circle cx="480" cy="380" r="12" stroke="#2b2730" stroke-width="4"/>
    <circle cx="270" cy="450" r="10" stroke="#2b2730" stroke-width="3"/>
    <circle cx="670" cy="450" r="10" stroke="#2b2730" stroke-width="3"/>
  </g>
  <!-- White dot inners -->
  <g fill="#fff8e7" opacity="0.65">
    <circle cx="440" cy="560" r="5"/>
    <circle cx="480" cy="380" r="5"/>
    <circle cx="270" cy="450" r="4"/>
    <circle cx="670" cy="450" r="4"/>
  </g>
</svg>
