<svg xmlns="http://www.w3.org/2000/svg" width="1800" height="520" viewBox="0 0 1800 520">
  <path d="M0 170 C210 130 410 165 600 135 C820 100 1015 130 1210 110 C1420 88 1620 110 1800 92 L1800 252 C1620 268 1435 258 1220 276 C1025 292 820 284 590 312 C390 336 205 330 0 350 Z" fill="#ECDEC8" opacity="0.30"/>
  <path d="M0 248 C230 220 440 246 650 226 C860 206 1065 228 1260 212 C1470 196 1645 212 1800 202 L1800 380 C1645 390 1475 398 1260 410 C1060 424 845 418 620 434 C420 448 215 444 0 460 Z" fill="#ECDEC8" opacity="0.46"/>
  <path d="M0 280 C260 246 520 270 740 246 C955 222 1160 244 1355 230 C1535 216 1685 224 1800 226 L1800 328 C1690 332 1540 340 1358 358 C1166 378 954 370 736 392 C520 414 260 408 0 430 Z" fill="#FFB340" opacity="0.16"/>
</svg>