<svg xmlns="http://www.w3.org/2000/svg" viewBox="0 0 1500 760">
  <path fill="#1a2a3a" opacity="0.18" d="M 0 0 L 1500 0 L 1500 760 L 0 760 Z M 40 40 L 1460 40 L 1460 720 L 40 720 Z"/>
  <path fill="#685934" d="M 0 0 L 1500 0 L 1500 760 L 0 760 Z"/>
  <path fill="#D4C5A9" opacity="0.55" d="M 0 580 C 200 560 400 545 600 550 C 800 555 1000 565 1200 555 C 1350 548 1450 540 1500 538 L 1500 760 L 0 760 Z"/>
  <path fill="#F2BE63" opacity="0.30" d="M 600 0 C 650 20 720 60 750 120 C 780 180 770 240 750 280 C 730 320 700 340 680 330 C 640 310 600 260 580 200 C 560 140 570 60 600 0 Z"/>
</svg>
