<svg xmlns="http://www.w3.org/2000/svg" width="920" height="900" viewBox="0 0 920 900">
  <!-- ============================================= -->
  <!-- Havza Main Path v2                           -->
  <!-- Green-gold + cream + sage palette            -->
  <!-- ============================================= -->
  <!-- Shadow layer -->
  <path d="M440 810 C420 670 430 550 490 460 C550 380 530 290 460 210 C420 160 410 120 440 70" fill="none" stroke="#10202d" stroke-width="92" stroke-linecap="round" stroke-linejoin="round" opacity="0.18"/>
  <!-- Main path - cream basestone -->
  <path d="M440 810 C420 670 430 550 490 460 C550 380 530 290 460 210 C420 160 410 120 440 70" fill="none" stroke="#e8dfc8" stroke-width="64" stroke-linecap="round" stroke-linejoin="round" opacity="0.90"/>
  <!-- Path inner - sage green -->
  <path d="M440 810 C420 670 430 550 490 460 C550 380 530 290 460 210 C420 160 410 120 440 70" fill="none" stroke="#8db572" stroke-width="24" stroke-linecap="round" stroke-linejoin="round" opacity="0.26"/>
  <!-- Branch path - left town -->
  <path d="M490 460 C370 420 260 430 140 510" fill="none" stroke="#10202d" stroke-width="62" stroke-linecap="round" opacity="0.12"/>
  <path d="M490 460 C370 420 260 430 140 510" fill="none" stroke="#e8dfc8" stroke-width="42" stroke-linecap="round" opacity="0.80"/>
  <path d="M490 460 C370 420 260 430 140 510" fill="none" stroke="#8db572" stroke-width="14" stroke-linecap="round" opacity="0.22"/>
  <!-- Branch path - right -->
  <path d="M510 430 C640 390 750 420 830 510" fill="none" stroke="#10202d" stroke-width="62" stroke-linecap="round" opacity="0.12"/>
  <path d="M510 430 C640 390 750 420 830 510" fill="none" stroke="#e8dfc8" stroke-width="42" stroke-linecap="round" opacity="0.78"/>
  <path d="M510 430 C640 390 750 420 830 510" fill="none" stroke="#8db572" stroke-width="14" stroke-linecap="round" opacity="0.20"/>
  <!-- Shadow pads -->
  <g fill="#1a2a3a" opacity="0.20">
    <ellipse cx="450" cy="730" rx="32" ry="11"/>
    <ellipse cx="460" cy="560" rx="28" ry="10"/>
    <ellipse cx="500" cy="380" rx="28" ry="10"/>
    <ellipse cx="420" cy="220" rx="26" ry="9"/>
    <ellipse cx="290" cy="450" rx="24" ry="8"/>
    <ellipse cx="690" cy="450" rx="24" ry="8"/>
  </g>
  <!-- Olive gold dots -->
  <g fill="#c4a35a" opacity="0.32">
    <circle cx="445" cy="700" r="8"/>
    <circle cx="535" cy="460" r="7"/>
    <circle cx="480" cy="340" r="6"/>
    <circle cx="410" cy="250" r="8"/>
    <circle cx="350" cy="440" r="5"/>
    <circle cx="710" cy="450" r="6"/>
  </g>
  <!-- Sage sparkles -->
  <g fill="#b7d99b" opacity="0.35">
    <circle cx="430" cy="650" r="5"/>
    <circle cx="500" cy="500" r="6"/>
    <circle cx="450" cy="300" r="5"/>
    <circle cx="200" cy="470" r="4"/>
  </g>
  <!-- Marker pins - warm red -->
  <g fill="#c84b3d" opacity="0.48">
    <circle cx="460" cy="560" r="12" stroke="#2b2730" stroke-width="4"/>
    <circle cx="500" cy="380" r="12" stroke="#2b2730" stroke-width="4"/>
    <circle cx="290" cy="450" r="10" stroke="#2b2730" stroke-width="3"/>
    <circle cx="690" cy="450" r="10" stroke="#2b2730" stroke-width="3"/>
  </g>
  <g fill="#fff8e7" opacity="0.65">
    <circle cx="460" cy="560" r="5"/>
    <circle cx="500" cy="380" r="5"/>
    <circle cx="290" cy="450" r="4"/>
    <circle cx="690" cy="450" r="4"/>
  </g>
</svg>
