<svg xmlns="http://www.w3.org/2000/svg" width="800" height="600" viewBox="0 0 800 600">
  <!-- ============================================= -->
  <!-- Havza Town Terrain v2                        -->
  <!-- Olive + cream + sage palette                -->
  <!-- ============================================= -->
  <!-- Shadow layer -->
  <path d="M60 440 C100 340 250 300 400 320 C550 340 690 330 750 400 C782 446 740 530 660 558 C540 590 180 580 100 540 C40 510 30 478 60 440Z" fill="#1a2a3a" opacity="0.16"/>
  <!-- Deep shadow -->
  <path d="M130 420 C170 352 290 324 410 342 C530 360 630 352 690 398 C720 426 694 478 626 504 C534 532 228 526 164 498 C108 472 94 452 130 420Z" fill="#10202d" opacity="0.10"/>
  <!-- Base terrain - warm olive tan -->
  <path d="M70 420 C110 320 260 280 410 300 C560 320 700 310 760 380 C792 426 750 510 670 538 C550 570 190 560 110 520 C50 490 40 458 70 420Z" fill="#d4c5a9"/>
  <!-- Mid terrain - sage green -->
  <path d="M140 386 C180 316 310 288 420 306 C530 324 634 316 694 368 C726 398 700 462 634 488 C544 514 254 508 190 480 C136 456 112 434 140 386Z" fill="#b7d99b" opacity="0.64"/>
  <!-- Accent layer - golden olive -->
  <path d="M210 400 C250 348 360 330 448 348 C536 366 590 374 636 410 C660 438 640 472 584 494 C496 518 286 512 226 484 C176 462 162 438 210 400Z" fill="#a8c97a" opacity="0.32"/>
  <!-- Inner warm glow -->
  <path d="M270 430 C304 406 368 398 424 410 C480 422 510 430 534 450 C548 466 528 482 488 492 C428 506 332 500 298 480 C274 464 262 448 270 430Z" fill="#f2be63" opacity="0.22"/>
  <!-- Cobblestone texture -->
  <circle cx="320" cy="380" r="12" fill="none" stroke="#7a5a42" stroke-width="4" opacity="0.14"/>
  <circle cx="380" cy="390" r="10" fill="none" stroke="#7a5a42" stroke-width="4" opacity="0.12"/>
  <circle cx="440" cy="386" r="11" fill="none" stroke="#7a5a42" stroke-width="4" opacity="0.12"/>
  <circle cx="500" cy="396" r="9" fill="none" stroke="#7a5a42" stroke-width="3" opacity="0.10"/>
  <circle cx="350" cy="410" r="8" fill="none" stroke="#7a5a42" stroke-width="3" opacity="0.10"/>
  <!-- Path edge hints -->
  <path d="M340 366 C400 358 460 362 520 376" fill="none" stroke="#8b6f5c" stroke-width="5" stroke-linecap="round" opacity="0.16"/>
  <!-- Outline -->
  <path d="M70 420 C110 320 260 280 410 300 C560 320 700 310 760 380 C792 426 750 510 670 538 C550 570 190 560 110 520 C50 490 40 458 70 420Z" fill="none" stroke="#2b2730" stroke-width="14" stroke-linecap="round" stroke-linejoin="round"/>
  <!-- Decorative dots -->
  <g fill="#f2be63" opacity="0.30">
    <circle cx="190" cy="410" r="9"/>
    <circle cx="600" cy="420" r="11"/>
    <circle cx="440" cy="480" r="7"/>
    <circle cx="320" cy="470" r="6"/>
  </g>
  <!-- Light sparkles -->
  <g fill="#fff8e7" opacity="0.35">
    <circle cx="400" cy="360" r="4"/>
    <circle cx="540" cy="400" r="3"/>
    <circle cx="260" cy="450" r="3"/>
  </g>
</svg>
