<svg xmlns="http://www.w3.org/2000/svg" viewBox="0 0 1600 780">
  <!-- Layer 1: Left tree silhouette -->
  <path fill="#1A2A3A" opacity="0.90"
    d="M0 0
       L0 780
       L220 780
       L220 720
       L180 700
       L200 680
       L160 660
       L190 640
       L150 610
       L185 590
       L140 560
       L175 540
       L130 510
       L170 490
       L120 455
       L165 435
       L110 400
       L160 375
       L100 340
       L155 315
       L90 275
       L150 250
       L80 210
       L145 185
       L70 145
       L140 120
       L60 80
       L130 55
       L50 20
       L120 0
       Z" />
  <!-- Layer 2: Right building silhouette -->
  <path fill="#2B2730" opacity="0.88"
    d="M1600 0
       L1480 0
       L1480 60
       L1440 60
       L1440 30
       L1400 30
       L1400 80
       L1360 80
       L1360 50
       L1320 50
       L1320 100
       L1280 100
       L1280 70
       L1240 70
       L1240 120
       L1200 120
       L1200 90
       L1160 90
       L1160 140
       L1120 140
       L1120 110
       L1080 110
       L1080 160
       L1040 160
       L1040 130
       L1000 130
       L1000 180
       L960 180
       L960 150
       L920 150
       L920 200
       L880 200
       L880 170
       L840 170
       L840 220
       L800 220
       L800 780
       L1600 780
       Z" />
  <!-- Layer 3: Ground band -->
  <path fill="#685934" opacity="0.86"
    d="M0 680
       C200 660 400 650 600 655
       C800 660 1000 670 1200 665
       C1350 662 1480 668 1600 672
       L1600 780
       L0 780
       Z" />
</svg>
