<svg xmlns="http://www.w3.org/2000/svg" viewBox="0 0 800 600">
  <path fill="#1a2a3a" opacity="0.16" d="M 60 580 C 80 560 100 545 140 538 C 180 531 220 528 270 524 C 320 520 370 518 420 516 C 470 514 520 512 570 516 C 620 520 660 528 700 538 C 740 548 760 562 780 580 C 790 590 800 600 800 600 L 0 600 Z"/>
  <path fill="#D4C5A9" d="M 50 570 C 70 548 100 530 145 520 C 190 510 240 505 295 500 C 350 495 400 492 450 490 C 500 488 555 488 605 494 C 655 500 695 512 730 528 C 765 544 782 560 790 578 L 800 600 L 0 600 L 10 578 C 20 562 35 556 50 570 Z"/>
  <path fill="#8DB572" opacity="0.60" d="M 80 560 C 110 540 155 525 205 518 C 255 511 310 508 360 506 C 410 504 460 504 510 506 C 560 508 605 514 645 524 C 685 534 715 548 740 562 C 755 570 765 578 770 586 L 800 600 L 0 600 L 30 586 C 45 572 60 568 80 560 Z"/>
  <path fill="#F2BE63" opacity="0.22" d="M 320 496 C 350 488 385 484 420 482 C 455 480 490 480 520 484 C 550 488 575 496 590 508 C 605 520 608 534 600 548 C 592 562 575 572 555 578 C 535 584 510 586 485 586 C 460 586 435 584 412 578 C 389 572 368 562 352 548 C 336 534 320 518 316 504 C 314 498 316 498 320 496 Z"/>
</svg>
