<svg xmlns="http://www.w3.org/2000/svg" width="500" height="400" viewBox="0 0 500 400">
  <!-- Shadow layer -->
  <path d="M 60 390 L 60 220 L 110 220 L 110 190 L 140 190 L 140 160 L 170 160 L 170 190 L 200 190 L 200 220 L 230 220 L 230 390 Z M 240 390 L 240 230 L 290 230 L 290 200 L 320 200 L 320 170 L 340 150 L 360 170 L 360 200 L 390 200 L 390 230 L 440 230 L 440 390 Z" fill="#10202d" opacity="0.22"/>
  <!-- Left civic building — rectangular Ottoman-style with flat parapet -->
  <path d="M 70 385 L 70 225 L 115 225 L 115 195 L 145 195 L 145 165 L 175 165 L 175 195 L 205 195 L 205 225 L 225 225 L 225 385 Z" fill="#F5E8D3"/>
  <!-- Right civic building — taller with pointed arch roofline -->
  <path d="M 250 385 L 250 235 L 295 235 L 295 205 L 325 205 L 325 175 L 345 155 L 365 175 L 365 205 L 395 205 L 395 235 L 435 235 L 435 385 Z" fill="#F5E8D3"/>
  <!-- Accent details — windows and door arches on both buildings -->
  <path d="M 100 340 L 100 300 Q 115 285 130 300 L 130 340 Z M 165 340 L 165 300 Q 180 285 195 300 L 195 340 Z M 280 345 L 280 305 Q 295 290 310 305 L 310 345 Z M 370 345 L 370 305 Q 385 290 400 305 L 400 345 Z M 320 235 L 320 200 Q 345 185 370 200 L 370 235 Z" fill="#067078" opacity="0.55"/>
  <!-- Ink outline for both buildings -->
  <path d="M 70 385 L 70 225 L 115 225 L 115 195 L 145 195 L 145 165 L 175 165 L 175 195 L 205 195 L 205 225 L 225 225 L 225 385 M 250 385 L 250 235 L 295 235 L 295 205 L 325 205 L 325 175 L 345 155 L 365 175 L 365 205 L 395 205 L 395 235 L 435 235 L 435 385" fill="none" stroke="#2B2730" stroke-width="9"/>
</svg>
