<svg xmlns="http://www.w3.org/2000/svg" width="900" height="700" viewBox="0 0 900 700">
  <!-- Layer 1: Shadow beneath road -->
  <path d="M 310 700 C 290 620 260 540 240 460 C 220 380 230 300 270 230 C 310 160 370 110 420 70 C 450 48 480 35 510 30 C 530 27 550 28 565 35 C 580 42 590 55 595 70 C 600 85 598 105 590 125 C 582 145 568 165 555 185 C 540 207 525 228 515 250 C 505 272 500 295 502 318 C 504 341 512 364 525 385 C 538 406 556 425 572 445 C 588 465 602 486 610 510 C 618 534 618 560 610 585 C 602 610 586 633 565 650 C 544 667 518 678 490 685 C 462 692 432 694 400 693 C 368 692 334 688 310 700 Z" fill="#10202d" opacity="0.22"/>
  <!-- Layer 2: Main road body — cream cobblestone -->
  <path d="M 320 700 C 300 618 272 536 255 454 C 238 372 248 292 288 222 C 328 152 388 102 438 62 C 458 46 480 34 502 30 C 518 27 534 28 548 36 C 562 44 572 58 576 74 C 580 90 577 110 568 130 C 559 150 544 170 530 192 C 516 214 502 237 493 261 C 484 285 480 310 483 334 C 486 358 494 381 507 402 C 520 423 537 442 552 462 C 567 482 580 503 587 526 C 594 549 593 574 584 598 C 575 622 558 644 536 660 C 514 676 487 686 458 691 C 429 696 398 697 368 695 C 338 693 320 700 320 700 Z" fill="#F5E8D3"/>
  <!-- Layer 3: Stone texture — cobble pattern overlay -->
  <path d="M 370 680 C 355 640 342 598 332 556 C 322 514 316 470 318 428 C 320 386 330 346 348 310 C 366 274 392 242 418 214 C 432 200 447 188 460 175 C 473 162 484 148 490 133 C 496 118 496 102 490 90 C 484 78 472 70 460 68 C 448 66 436 70 426 78 C 416 86 408 98 402 112 C 396 126 392 142 390 158 C 388 174 388 190 390 206 C 392 222 396 238 402 254 C 408 270 416 286 422 304 C 428 322 432 342 432 362 C 432 382 428 402 420 420 C 412 438 400 454 388 470 C 376 486 364 502 356 520 C 348 538 344 558 344 578 C 344 598 348 618 356 636 C 360 645 365 654 370 662 C 374 670 378 678 380 686 C 376 684 372 682 370 680 Z" fill="#FFB340" opacity="0.18"/>
  <!-- Layer 4: Road outline — ink border for paper diorama feel -->
  <path d="M 320 700 C 300 618 272 536 255 454 C 238 372 248 292 288 222 C 328 152 388 102 438 62 C 458 46 480 34 502 30 C 518 27 534 28 548 36 C 562 44 572 58 576 74 C 580 90 577 110 568 130 C 559 150 544 170 530 192 C 516 214 502 237 493 261 C 484 285 480 310 483 334 C 486 358 494 381 507 402 C 520 423 537 442 552 462 C 567 482 580 503 587 526 C 594 549 593 574 584 598 C 575 622 558 644 536 660 C 514 676 487 686 458 691 C 429 696 398 697 368 695 C 338 693 320 700 320 700 Z" fill="none" stroke="#2B2730" stroke-width="10"/>
</svg>
