<svg xmlns="http://www.w3.org/2000/svg" width="860" height="560" viewBox="0 0 860 560">
  <g opacity=".82">
    <ellipse cx="188" cy="418" rx="118" ry="26" fill="#1a2a3a" opacity=".12"/>
    <ellipse cx="606" cy="420" rx="132" ry="28" fill="#1a2a3a" opacity=".12"/>
    <ellipse cx="438" cy="346" rx="92" ry="20" fill="#1a2a3a" opacity=".10"/>
  </g>
  <g transform="translate(82 178)" stroke="#7a5a42" stroke-width="7" stroke-linejoin="round">
    <path d="M52 150 C82 92 174 92 212 150 C186 198 82 200 52 150Z" fill="#b7d99b"/>
    <path d="M132 52 C158 84 170 112 168 150 H100 C98 112 108 82 132 52Z" fill="#5d8f92"/>
    <path d="M132 92 V190" stroke="#5b3f2f" stroke-width="10" stroke-linecap="round"/>
    <path d="M76 150 C110 164 156 164 194 150" fill="none" stroke="#fff8d9" stroke-width="8" stroke-linecap="round" opacity=".42"/>
  </g>
  <g transform="translate(528 166)" stroke="#7a5a42" stroke-width="7" stroke-linejoin="round">
    <path d="M44 158 C92 100 178 108 222 164 C188 210 86 210 44 158Z" fill="#f7e3b2"/>
    <path d="M128 60 C154 96 164 126 162 166 H96 C94 126 104 94 128 60Z" fill="#e8c55a"/>
    <path d="M128 98 V198" stroke="#5b3f2f" stroke-width="10" stroke-linecap="round"/>
    <path d="M80 162 C112 176 156 176 194 162" fill="none" stroke="#47b2c2" stroke-width="8" stroke-linecap="round" opacity=".42"/>
  </g>
  <g transform="translate(348 248)" stroke="#7a5a42" stroke-width="6" stroke-linejoin="round">
    <path d="M24 106 C56 72 122 72 154 108 C124 138 58 138 24 106Z" fill="#47b2c2"/>
    <path d="M76 54 V106" stroke="#5b3f2f" stroke-width="7" stroke-linecap="round"/>
    <path d="M82 58 C112 66 128 82 134 102 C108 98 94 82 82 58Z" fill="#f8e9c6"/>
  </g>
  <g stroke="#5b3f2f" stroke-width="7" stroke-linecap="round" opacity=".42">
    <path d="M282 394 C340 366 404 368 468 398"/>
    <path d="M472 406 C536 368 616 366 698 392"/>
  </g>
  <g fill="#c9473d" opacity=".72">
    <circle cx="298" cy="382" r="10"/>
    <circle cx="706" cy="382" r="11"/>
    <circle cx="468" cy="392" r="8"/>
  </g>
  <g fill="#fff8d9" opacity=".46">
    <ellipse cx="210" cy="452" rx="40" ry="8"/>
    <ellipse cx="620" cy="454" rx="46" ry="9"/>
    <ellipse cx="438" cy="378" rx="32" ry="7"/>
  </g>
</svg>
