<svg xmlns="http://www.w3.org/2000/svg" width="300" height="300" viewBox="0 0 300 300" opacity="0.34">
  <!-- Shadow -->
  <path d="M 154 42 L 158 122 L 258 154 L 158 158 L 154 258 L 150 178 L 146 258 L 142 158 L 42 154 L 142 122 Z" fill="#10202d" opacity="0.24"/>
  <!-- 8-point compass star body (cream) -->
  <path d="M 150 40 L 158 122 L 222 78 L 178 142 L 260 150 L 178 158 L 222 222 L 158 178 L 150 260 L 142 178 L 78 222 L 122 158 L 40 150 L 122 142 L 78 78 L 142 122 Z" fill="#F5E8D3" stroke="#2B2730" stroke-width="5"/>
  <!-- Cardinal points accent (N/S/E/W) in turquoise -->
  <path d="M 150 40 L 158 122 L 150 108 L 142 122 Z M 150 260 L 158 178 L 150 192 L 142 178 Z M 40 150 L 122 142 L 108 150 L 122 158 Z M 260 150 L 178 142 L 192 150 L 178 158 Z" fill="#067078"/>
  <!-- Center circle (gold) -->
  <path d="M 150 136 C 158 136 164 142 164 150 C 164 158 158 164 150 164 C 142 164 136 158 136 150 C 136 142 142 136 150 136 Z" fill="#FFB340" stroke="#2B2730" stroke-width="4"/>
</svg>
