<svg xmlns="http://www.w3.org/2000/svg" width="1800" height="600" viewBox="0 0 1800 600">
  <!-- Ground base layer — organic terrain edge spanning full 1800px width -->
  <path d="M0 400 C60 370 140 355 220 362 C300 369 370 388 460 378 C550 368 630 345 720 352 C810 359 890 382 980 374 C1070 366 1150 342 1240 350 C1330 358 1410 382 1500 372 C1590 362 1680 348 1800 358 L1800 600 L0 600 Z" fill="#10202d" opacity="0.93"/>
  <!-- Left foreground rock mass — large organic boulder cluster -->
  <path d="M0 490 C30 452 68 428 112 434 C156 440 188 462 232 456 C276 450 308 428 352 436 C396 444 422 468 448 484 C474 500 468 528 444 550 C420 572 378 586 320 592 C262 598 196 596 132 588 C68 580 24 558 0 530 Z" fill="#2B2730" opacity="0.96"/>
  <!-- Right foreground rock mass — mirrored boulder cluster -->
  <path d="M1800 600 L1452 600 C1452 600 1448 582 1460 562 C1472 542 1496 524 1528 516 C1560 508 1592 514 1624 506 C1656 498 1680 476 1716 468 C1752 460 1780 472 1800 488 Z" fill="#2B2730" opacity="0.96"/>
  <!-- Vegetation silhouette band — shrubs and low plants across mid-foreground -->
  <path d="M260 468 C278 442 302 420 330 428 C358 436 374 456 404 448 C434 440 458 418 492 426 C526 434 544 456 578 448 C612 440 640 416 676 424 C712 432 730 454 768 446 C806 438 838 414 876 422 C914 430 932 454 970 446 C1008 438 1040 414 1080 422 C1120 430 1138 454 1176 446 C1214 438 1248 416 1288 424 C1328 432 1348 456 1388 448 C1428 440 1464 420 1504 428 C1544 436 1560 458 1540 480 L1540 600 L260 600 Z" fill="#2B2730" opacity="0.91"/>
  <!-- Deep shadow strip — bottom anchor, full width -->
  <path d="M0 548 C300 538 600 532 900 534 C1200 536 1500 540 1800 548 L1800 600 L0 600 Z" fill="#10202d" opacity="0.98"/>
</svg>
