<svg xmlns="http://www.w3.org/2000/svg" width="900" height="600" viewBox="0 0 900 600">
  <!-- Katman 1: Gölge — koyu deniz tabanı -->
  <path d="M0 0 L900 0 L900 600 L0 600 Z" fill="#10202d" opacity="0.22"/>
  <!-- Katman 2: Derin su bandı — en altta, en opak -->
  <path d="M0 320 C150 295 300 310 450 300 C600 290 750 305 900 295 L900 600 L0 600 Z" fill="#067078" opacity="0.80"/>
  <!-- Katman 3: Orta su bandı -->
  <path d="M0 200 C120 180 250 195 400 185 C550 175 700 190 900 178 L900 420 C750 432 600 418 450 428 C300 438 150 422 0 435 Z" fill="#067078" opacity="0.60"/>
  <!-- Katman 4: Yüzey bandı — en üstte, en şeffaf -->
  <path d="M0 80 C100 60 220 75 360 65 C500 55 660 70 900 58 L900 260 C660 272 500 257 360 267 C220 277 100 262 0 275 Z" fill="#067078" opacity="0.40"/>
  <!-- Katman 5: Dalga vurgusu — yüzey parıltısı -->
  <path d="M0 120 C80 108 180 116 300 110 C420 104 540 112 660 106 C760 101 840 108 900 104 L900 130 C840 134 760 127 660 133 C540 139 420 131 300 137 C180 143 80 135 0 142 Z" fill="#F5E8D3" opacity="0.18"/>
</svg>
