<svg xmlns="http://www.w3.org/2000/svg" width="1800" height="600" viewBox="0 0 1800 600">
  <!-- Katman 1: Gölge tonu — uzak gökyüzü derinliği -->
  <path d="M0 0 L1800 0 L1800 600 L0 600 Z" fill="#10202d" opacity="0.08"/>
  <!-- Katman 2: Yumuşak bulut şekli — sol bölge -->
  <path d="M120 180 C160 130 260 120 320 155 C360 130 430 138 460 170 C490 155 560 158 590 185 C620 170 700 172 730 200 C760 185 840 188 870 215 C840 250 760 260 730 240 C700 255 620 258 590 240 C560 255 490 252 460 235 C430 248 360 245 320 228 C260 242 160 235 120 210 C90 200 88 192 120 180 Z" fill="#F5E8D3" opacity="0.45"/>
  <!-- Katman 3: Yumuşak bulut şekli — sağ bölge -->
  <path d="M1050 140 C1100 95 1210 88 1270 125 C1310 105 1390 112 1420 145 C1460 128 1550 132 1580 162 C1620 148 1700 150 1730 178 C1760 165 1800 168 1800 195 L1800 240 C1760 258 1700 262 1730 245 C1700 260 1620 262 1580 245 C1550 258 1460 255 1420 238 C1390 250 1310 248 1270 230 C1210 244 1100 238 1050 212 C1018 200 1016 155 1050 140 Z" fill="#F5E8D3" opacity="0.42"/>
  <!-- Katman 4: Martı siluetleri — uzak gökyüzünde süzülen kuşlar -->
  <path d="M340 95 C355 82 370 82 385 95 C370 88 355 88 340 95 Z M385 95 C400 82 415 82 430 95 C415 88 400 88 385 95 Z M620 130 C633 118 646 118 659 130 C646 124 633 124 620 130 Z M659 130 C672 118 685 118 698 130 C685 124 672 124 659 130 Z M870 72 C881 61 892 61 903 72 C892 66 881 66 870 72 Z M903 72 C914 61 925 61 936 72 C925 66 914 66 903 72 Z M1140 108 C1153 96 1166 96 1179 108 C1166 102 1153 102 1140 108 Z M1179 108 C1192 96 1205 96 1218 108 C1205 102 1192 102 1179 108 Z M1420 55 C1431 45 1442 45 1453 55 C1442 50 1431 50 1420 55 Z M1453 55 C1464 45 1475 45 1486 55 C1475 50 1464 50 1453 55 Z M1650 90 C1660 80 1670 80 1680 90 C1670 85 1660 85 1650 90 Z M1680 90 C1690 80 1700 80 1710 90 C1700 85 1690 85 1680 90 Z" fill="#2B2730" opacity="0.50"/>
</svg>
