<svg xmlns="http://www.w3.org/2000/svg" width="1240" height="620" viewBox="0 0 1240 620">
  <path d="M0 300 C96 210 168 252 254 330 C336 404 442 390 536 332 C638 270 752 278 850 358 C946 438 1062 436 1240 318 L1240 620 L0 620Z" fill="#12212b" opacity=".72"/>
  <path d="M18 330 C124 268 178 302 266 374 C350 442 452 426 552 366 C648 308 746 324 842 398 C948 480 1064 474 1220 366" fill="none" stroke="#28404a" stroke-width="18" stroke-linecap="round" opacity=".44"/>
  <g fill="#203845" opacity=".82">
    <path d="M90 500 C116 408 152 334 192 258 C206 344 204 440 184 560Z"/>
    <path d="M154 530 C180 438 214 376 248 312 C260 398 250 484 228 570Z"/>
    <path d="M1008 520 C1034 422 1072 340 1118 274 C1128 372 1118 464 1094 580Z"/>
    <path d="M1088 548 C1118 454 1156 392 1198 332 C1202 428 1184 510 1154 592Z"/>
  </g>
  <g fill="#e8c55a" opacity=".34">
    <circle cx="230" cy="382" r="10"/>
    <circle cx="910" cy="430" r="9"/>
    <circle cx="1048" cy="390" r="8"/>
  </g>
</svg>
