<svg xmlns="http://www.w3.org/2000/svg" width="1200" height="500" viewBox="0 0 1200 500">
  <!-- Shadow layer — placed first, beneath all shapes -->
  <path d="M 60 420 C 120 400 200 390 300 395 C 380 398 440 410 520 405 C 600 400 660 385 750 390 C 840 395 920 415 1000 408 C 1080 402 1140 390 1200 395 L 1200 500 L 0 500 Z" fill="#10202d" opacity="0.25"/>
  <!-- Main rocky coastline — large organic rock formation -->
  <path d="M 0 460 C 40 445 80 430 130 435 C 160 438 185 450 220 445 C 255 440 270 420 310 415 C 350 410 380 425 420 418 C 460 411 480 395 525 392 C 570 389 595 405 640 400 C 685 395 710 378 760 375 C 810 372 840 390 890 385 C 940 380 965 362 1010 360 C 1055 358 1080 375 1130 370 C 1160 367 1185 355 1200 350 L 1200 500 L 0 500 Z" fill="#F5E8D3"/>
  <!-- Mid-ground rock cluster — darker accent stones -->
  <path d="M 80 440 C 100 425 130 418 165 422 C 195 426 215 440 240 435 C 265 430 275 415 305 412 C 335 409 355 422 380 418 C 405 414 415 400 445 398 C 475 396 490 408 515 405 C 540 402 550 390 575 388 C 600 386 615 398 640 395 L 640 500 L 80 500 Z" fill="#067078" opacity="0.55"/>
  <!-- Foreground rock details — small stones and pebbles along waterline -->
  <path d="M 650 430 C 680 418 715 412 755 416 C 785 419 810 432 845 428 C 875 424 895 410 930 407 C 965 404 990 416 1025 412 C 1060 408 1080 395 1115 392 C 1145 390 1170 400 1200 398 L 1200 500 L 650 500 Z" fill="#067078" opacity="0.40"/>
  <!-- Highlight edge — cream paper cut edge along top of rocks -->
  <path d="M 200 415 C 230 408 260 412 290 408 C 320 404 340 395 370 392 C 400 389 425 400 455 396 C 485 392 500 382 530 380 C 560 378 580 388 610 385 C 640 382 660 372 690 370 C 720 368 745 378 775 375 C 805 372 820 362 850 360 C 880 358 900 368 930 365 C 960 362 975 352 1005 350 C 1035 348 1055 358 1085 355 C 1100 353 1115 347 1130 345 L 1135 360 C 1115 362 1100 368 1085 370 C 1055 373 1035 363 1005 365 C 975 367 960 377 930 380 C 900 383 880 373 850 375 C 820 377 805 387 775 390 C 745 393 720 383 690 385 C 660 387 640 397 610 400 C 580 403 560 393 530 395 C 500 397 485 407 455 411 C 425 415 400 404 370 407 C 340 410 320 419 290 423 C 260 427 230 423 200 430 Z" fill="#2B2730" opacity="0.18"/>
</svg>
