<svg xmlns="http://www.w3.org/2000/svg" width="700" height="400" viewBox="0 0 700 400">
  <!-- Katman 1: Gölge -->
  <path d="M60 370 L640 370 L600 310 L100 310 Z" fill="#10202d" opacity="0.22"/>
  <!-- Katman 2: İskele platformu (ana şekil) -->
  <path d="M80 360 L620 360 L580 300 L120 300 Z" fill="#F5E8D3"/>
  <!-- Katman 3: Sandık detayları -->
  <path d="M160 300 L160 260 L230 260 L230 300 Z M170 260 L170 240 L220 240 L220 260 Z M420 300 L420 255 L500 255 L500 300 Z M432 255 L432 232 L488 232 L488 255 Z" fill="#FFB340"/>
  <!-- Katman 4: Halat -->
  <path d="M100 320 C180 308 260 316 340 310 C420 304 500 312 600 300" fill="none" stroke="#2B2730" stroke-width="8" opacity="0.80"/>
  <!-- Katman 5: Su kenarı / iskele ön yüzü -->
  <path d="M80 360 C200 368 500 368 620 360 L600 380 C480 390 220 390 100 380 Z" fill="#067078" opacity="0.55"/>
</svg>
