<svg xmlns="http://www.w3.org/2000/svg" width="500" height="400" viewBox="0 0 500 400">
  <!-- Layer 1: Shadow base -->
  <path d="M 0 400 L 0 280 C 40 275 80 265 120 258 C 160 251 200 248 240 245 C 280 242 320 240 360 238 C 400 236 440 235 500 234 L 500 400 Z" fill="#10202d" opacity="0.22"/>
  <!-- Layer 2: Distant ridge silhouette -->
  <path d="M 0 400 L 0 290 C 30 282 60 272 100 264 C 130 258 160 252 200 248 C 230 245 255 242 280 238 C 310 233 340 228 370 224 C 400 220 440 218 500 216 L 500 400 Z" fill="#067078" opacity="0.50"/>
  <!-- Layer 3: Signal/telegraph tower on ridge peak -->
  <path d="M 278 238 L 274 180 L 272 140 L 270 100 L 268 140 L 266 180 L 262 238 Z M 270 100 L 255 130 L 270 125 Z M 270 100 L 285 130 L 270 125 Z M 258 160 L 282 160 L 282 165 L 258 165 Z M 260 185 L 280 185 L 280 190 L 260 190 Z" fill="#2B2730" opacity="0.62"/>
  <!-- Layer 4: Highlight accent on ridge crest -->
  <path d="M 180 252 C 210 246 240 242 270 238 C 300 234 330 230 360 226 C 390 222 430 220 480 218 L 500 216 L 500 222 C 460 224 420 226 390 230 C 360 234 330 238 300 242 C 270 246 240 250 210 254 C 195 257 185 258 180 258 Z" fill="#F5E8D3" opacity="0.40"/>
</svg>
