<svg xmlns="http://www.w3.org/2000/svg" width="1600" height="500" viewBox="0 0 1600 500">
  <!-- Shadow layer -->
  <path d="M 0 500 L 0 320 L 80 320 L 80 260 L 110 260 L 110 200 L 125 200 L 125 180 L 140 180 L 140 200 L 155 200 L 155 260 L 200 260 L 200 300 L 260 300 L 260 240 L 290 240 L 290 160 L 310 160 L 310 140 L 330 140 L 330 160 L 350 160 L 350 240 L 400 240 L 400 280 L 460 280 L 460 220 L 490 220 L 490 150 L 500 150 L 500 100 L 505 100 L 505 60 L 510 60 L 510 100 L 515 100 L 515 150 L 530 150 L 530 220 L 580 220 L 580 260 L 640 260 L 640 200 L 670 200 L 670 130 L 700 130 L 700 100 L 720 100 L 720 80 L 740 80 L 740 100 L 760 100 L 760 130 L 790 130 L 790 200 L 840 200 L 840 240 L 900 240 L 900 180 L 930 180 L 930 110 L 945 110 L 945 90 L 960 90 L 960 110 L 975 110 L 975 180 L 1020 180 L 1020 240 L 1080 240 L 1080 200 L 1110 200 L 1110 140 L 1130 140 L 1130 120 L 1150 120 L 1150 140 L 1170 140 L 1170 200 L 1220 200 L 1220 260 L 1280 260 L 1280 220 L 1310 220 L 1310 150 L 1320 150 L 1320 100 L 1325 100 L 1325 60 L 1330 60 L 1330 100 L 1335 100 L 1335 150 L 1350 150 L 1350 220 L 1400 220 L 1400 280 L 1460 280 L 1460 240 L 1490 240 L 1490 160 L 1510 160 L 1510 140 L 1530 140 L 1530 160 L 1550 160 L 1550 240 L 1600 240 L 1600 500 Z" fill="#10202d" opacity="0.22"/>
  <!-- Main distant town silhouette — towers and domes -->
  <path d="M 0 500 L 0 330 L 80 330 L 80 270 L 110 270 L 110 210 L 125 210 L 125 190 L 140 190 L 140 210 L 155 210 L 155 270 L 200 270 L 200 310 L 260 310 L 260 250 L 290 250 L 290 170 L 310 170 L 310 150 L 330 150 L 330 170 L 350 170 L 350 250 L 400 250 L 400 290 L 460 290 L 460 230 L 490 230 L 490 160 L 500 160 L 500 110 L 505 110 L 505 70 L 510 70 L 510 110 L 515 110 L 515 160 L 530 160 L 530 230 L 580 230 L 580 270 L 640 270 L 640 210 L 670 210 L 670 140 L 700 140 L 700 110 L 720 110 L 720 90 L 740 90 L 740 110 L 760 110 L 760 140 L 790 140 L 790 210 L 840 210 L 840 250 L 900 250 L 900 190 L 930 190 L 930 120 L 945 120 L 945 100 L 960 100 L 960 120 L 975 120 L 975 190 L 1020 190 L 1020 250 L 1080 250 L 1080 210 L 1110 210 L 1110 150 L 1130 150 L 1130 130 L 1150 130 L 1150 150 L 1170 150 L 1170 210 L 1220 210 L 1220 270 L 1280 270 L 1280 230 L 1310 230 L 1310 160 L 1320 160 L 1320 110 L 1325 110 L 1325 70 L 1330 70 L 1330 110 L 1335 110 L 1335 160 L 1350 160 L 1350 230 L 1400 230 L 1400 290 L 1460 290 L 1460 250 L 1490 250 L 1490 170 L 1510 170 L 1510 150 L 1530 150 L 1530 170 L 1550 170 L 1550 250 L 1600 250 L 1600 500 Z" fill="#067078" opacity="0.45"/>
  <!-- Dome highlights on key towers -->
  <path d="M 120 190 C 120 165 160 165 160 190 Z M 300 150 C 300 125 360 125 360 150 Z M 490 110 C 490 80 530 80 530 110 Z M 710 90 C 710 60 770 60 770 90 Z M 920 100 C 920 70 980 70 980 100 Z M 1120 130 C 1120 100 1180 100 1180 130 Z M 1310 110 C 1310 80 1350 80 1350 110 Z M 1490 150 C 1490 120 1550 120 1550 150 Z" fill="#F5E8D3" opacity="0.50"/>
  <!-- Flagpole accents -->
  <path d="M 505 40 L 505 70 L 520 55 Z M 1325 40 L 1325 70 L 1340 55 Z M 720 65 L 720 90 L 738 77 Z M 945 75 L 945 100 L 963 87 Z" fill="#FFB340" opacity="0.55"/>
</svg>
