<svg xmlns="http://www.w3.org/2000/svg" width="420" height="300" viewBox="0 0 420 300">
  <ellipse cx="210" cy="238" rx="164" ry="38" fill="#1b2630" opacity=".20"/>
  <path d="M70 174 C116 126 184 112 250 122 C306 130 346 162 356 210 C276 238 154 236 70 174Z" fill="#8bd3dc"/>
  <path d="M64 170 C120 142 190 146 252 154 C304 162 336 178 364 210" fill="none" stroke="#1b2630" stroke-width="12" stroke-linecap="round" opacity=".25"/>
  <path d="M102 126 L308 126 L338 166 L78 166Z" fill="#e6bf75"/>
  <path d="M94 122 L310 122" stroke="#513b2c" stroke-width="12" stroke-linecap="round" opacity=".52"/>
  <path d="M126 94 H284 L304 126 H108Z" fill="#f4dfaa"/>
  <path d="M148 70 H260 L282 96 H126Z" fill="#c9473d"/>
  <path d="M142 72 H256" stroke="#522d2b" stroke-width="8" stroke-linecap="round" opacity=".36"/>
  <path d="M118 166 V218 M182 166 V226 M246 166 V224 M312 166 V212" stroke="#5b4433" stroke-width="14" stroke-linecap="round"/>
  <path d="M132 190 C184 206 246 204 306 188" fill="none" stroke="#fff2c6" stroke-width="9" stroke-linecap="round" opacity=".48"/>
  <circle cx="126" cy="182" r="10" fill="#f8e9c6"/>
  <circle cx="306" cy="178" r="10" fill="#f8e9c6"/>
</svg>
