<svg xmlns="http://www.w3.org/2000/svg" width="500" height="600" viewBox="0 0 500 600">
  <metadata><slot_id>samsun.telegraph_landmark</slot_id></metadata>
  <!-- Shadow: telegraph pole shadow + building shadow + flagpole shadow -->
  <path d="M 178 580 L 198 580 L 198 40 L 178 40 Z M 260 580 L 430 580 L 430 390 L 345 345 L 260 390 Z M 440 580 L 452 580 L 452 310 L 440 310 Z" fill="#10202d" opacity="0.22"/>
  <!-- Telegraph pole: tall shaft y=20..580 (height=560), three crossarms with insulator knobs -->
  <path d="M 155 580 L 175 580 L 175 20 L 155 20 Z M 120 95 L 210 95 L 210 85 L 120 85 Z M 120 90 L 125 90 L 125 80 L 120 80 Z M 205 90 L 210 90 L 210 80 L 205 80 Z M 120 175 L 210 175 L 210 165 L 120 165 Z M 120 170 L 125 170 L 125 160 L 120 160 Z M 205 170 L 210 170 L 210 160 L 205 160 Z M 120 255 L 210 255 L 210 245 L 120 245 Z M 120 250 L 125 250 L 125 240 L 120 240 Z M 205 250 L 210 250 L 210 240 L 205 240 Z M 163 20 L 163 85 Z M 163 95 L 163 165 Z M 163 175 L 163 245 Z" fill="#2B2730"/>
  <!-- Small building: height=200px (max 50% of 560=280), base at y=380..580, width 170px -->
  <path d="M 240 580 L 410 580 L 410 380 L 325 335 L 240 380 Z M 280 580 L 280 440 L 310 440 L 310 580 Z M 340 580 L 340 440 L 370 440 L 370 580 Z M 248 392 L 402 392 L 402 380 L 248 380 Z M 290 460 L 300 460 L 300 480 L 290 480 Z M 350 460 L 360 460 L 360 480 L 350 480 Z" fill="#F5E8D3" stroke="#2B2730" stroke-width="10"/>
  <!-- Flagpole: shaft y=310..580 (height=270, shorter than pole), flag pennant -->
  <path d="M 425 580 L 437 580 L 437 310 L 425 310 Z M 437 310 L 490 332 L 437 354 Z" fill="#067078"/>
</svg>
