<svg xmlns="http://www.w3.org/2000/svg" width="760" height="520" viewBox="0 0 760 520">
  <g transform="translate(78 60)">
    <ellipse cx="112" cy="150" rx="94" ry="24" fill="#1a2a3a" opacity=".14"/>
    <path d="M52 82 H156 L176 142 H36Z" fill="#e8c55a"/>
    <path d="M58 76 H150 L166 96 H42Z" fill="#f8e9c6"/>
    <path d="M76 50 H136 L152 78 H60Z" fill="#c9473d"/>
    <path d="M76 108 H136" stroke="#5b3f2f" stroke-width="8" stroke-linecap="round" opacity=".34"/>
    <circle cx="64" cy="144" r="12" fill="#47b2c2"/>
    <circle cx="154" cy="144" r="12" fill="#47b2c2"/>
  </g>
  <g transform="translate(472 282)">
    <ellipse cx="92" cy="136" rx="86" ry="22" fill="#1a2a3a" opacity=".14"/>
    <path d="M44 72 C72 40 124 42 148 76 L132 132 H58Z" fill="#b7d99b"/>
    <path d="M66 52 C84 34 112 34 130 54" fill="none" stroke="#fff8d9" stroke-width="8" stroke-linecap="round" opacity=".48"/>
    <path d="M92 42 V126" stroke="#7b5a3d" stroke-width="10" stroke-linecap="round"/>
    <path d="M58 104 C82 116 112 116 136 104" fill="none" stroke="#c9473d" stroke-width="8" stroke-linecap="round" opacity=".55"/>
    <circle cx="136" cy="80" r="10" fill="#e8c55a"/>
  </g>
  <path d="M260 240 C326 204 414 208 480 250" fill="none" stroke="#f8e9c6" stroke-width="18" stroke-linecap="round" opacity=".28"/>
</svg>
