<svg xmlns="http://www.w3.org/2000/svg" width="900" height="820" viewBox="0 0 900 820">
  <path d="M82 208 C135 70 350 38 516 70 C714 108 835 240 808 412 C780 590 602 736 394 716 C190 696 42 540 54 370 C58 306 62 252 82 208Z" fill="#d7b87a" opacity=".34"/>
  <path d="M92 180 C166 54 366 34 538 84 C704 132 804 244 778 398 C750 568 594 690 400 674 C204 658 78 520 92 360 C98 292 54 246 92 180Z" fill="#f2dfb0"/>
  <path d="M112 168 C188 78 376 64 520 104 C660 144 748 252 718 382 C688 510 562 616 410 606 C250 596 132 492 142 354 C148 276 72 218 112 168Z" fill="#f8e9c6"/>
  <path d="M148 214 C242 142 418 132 548 182 C652 222 704 310 676 396 C648 484 538 552 414 546 C286 540 184 466 190 356 C194 292 106 246 148 214Z" fill="#c8dfbf" opacity=".58"/>
  <path d="M102 186 C174 62 370 44 534 90 C700 137 792 244 766 392 C738 552 590 682 402 668 C214 654 82 518 96 362" fill="none" stroke="#5c4b36" stroke-width="18" stroke-linecap="round" stroke-linejoin="round" opacity=".28"/>
  <path d="M126 174 C202 84 374 72 514 110 C650 148 728 252 702 378" fill="none" stroke="#fff8dc" stroke-width="12" stroke-linecap="round" opacity=".42"/>
  <circle cx="272" cy="206" r="10" fill="#fff7d7" opacity=".55"/>
  <circle cx="612" cy="300" r="8" fill="#fff7d7" opacity=".48"/>
  <circle cx="402" cy="582" r="7" fill="#fff7d7" opacity=".45"/>
</svg>
