<svg xmlns="http://www.w3.org/2000/svg" width="620" height="360" viewBox="0 0 620 360">
  <path d="M54 224 C146 132 274 116 386 154 C464 180 522 178 574 146 L574 302 L54 302Z" fill="#d7dca8" opacity=".52"/>
  <path d="M72 220 C160 162 272 148 380 174 C458 194 520 190 560 164" fill="none" stroke="#fff8d9" stroke-width="13" stroke-linecap="round" opacity=".42"/>
  <g stroke="#4d382b" stroke-width="9" stroke-linecap="round">
    <path d="M174 140 V274"/>
    <path d="M330 120 V274"/>
    <path d="M482 132 V274"/>
  </g>
  <g stroke="#4d382b" stroke-width="12" stroke-linecap="round" opacity=".68">
    <path d="M138 166 H210"/>
    <path d="M294 146 H366"/>
    <path d="M446 158 H518"/>
  </g>
  <path d="M138 166 C220 96 398 92 518 158" fill="none" stroke="#58bfe0" stroke-width="7" stroke-linecap="round" opacity=".54"/>
  <path d="M138 166 C236 236 412 232 518 158" fill="none" stroke="#58bfe0" stroke-width="6" stroke-linecap="round" opacity=".32"/>
  <g fill="#eac85d" opacity=".70">
    <circle cx="174" cy="118" r="8"/>
    <circle cx="330" cy="98" r="8"/>
    <circle cx="482" cy="110" r="8"/>
  </g>
  <path d="M92 300 C220 328 432 326 564 300" fill="none" stroke="#5b3f2f" stroke-width="10" stroke-linecap="round" opacity=".16"/>
</svg>
