<svg xmlns="http://www.w3.org/2000/svg" width="920" height="900" viewBox="0 0 920 900">
  <!-- ============================================= -->
  <!-- Samsun Main Path v2                          -->
  <!-- Turquoise glow + rift sparkles + red pins    -->
  <!-- ============================================= -->
  <!-- Shadow layer -->
  <path d="M456 798 C426 668 430 556 486 464 C538 378 520 294 446 206 C406 158 396 118 432 72" fill="none" stroke="#10202d" stroke-width="92" stroke-linecap="round" stroke-linejoin="round" opacity="0.20"/>
  <!-- Main path - cream base -->
  <path d="M456 798 C426 668 430 556 486 464 C538 378 520 294 446 206 C406 158 396 118 432 72" fill="none" stroke="#f8e9c6" stroke-width="64" stroke-linecap="round" stroke-linejoin="round" opacity="0.90"/>
  <!-- Path inner - turquoise glow -->
  <path d="M456 798 C426 668 430 556 486 464 C538 378 520 294 446 206 C406 158 396 118 432 72" fill="none" stroke="#53c6df" stroke-width="28" stroke-linecap="round" stroke-linejoin="round" opacity="0.28"/>
  <!-- Branch path 1 - left -->
  <path d="M486 464 C364 422 250 430 116 510" fill="none" stroke="#10202d" stroke-width="62" stroke-linecap="round" opacity="0.14"/>
  <path d="M486 464 C364 422 250 430 116 510" fill="none" stroke="#f7e3b2" stroke-width="42" stroke-linecap="round" opacity="0.80"/>
  <path d="M486 464 C364 422 250 430 116 510" fill="none" stroke="#53c6df" stroke-width="16" stroke-linecap="round" opacity="0.22"/>
  <!-- Branch path 2 - right -->
  <path d="M500 432 C632 392 746 420 828 514" fill="none" stroke="#10202d" stroke-width="62" stroke-linecap="round" opacity="0.14"/>
  <path d="M500 432 C632 392 746 420 828 514" fill="none" stroke="#f7e3b2" stroke-width="42" stroke-linecap="round" opacity="0.78"/>
  <path d="M500 432 C632 392 746 420 828 514" fill="none" stroke="#53c6df" stroke-width="16" stroke-linecap="round" opacity="0.20"/>
  <!-- Shadow pads under character positions -->
  <g fill="#1a2a3a" opacity="0.22">
    <ellipse cx="458" cy="712" rx="32" ry="11"/>
    <ellipse cx="474" cy="552" rx="28" ry="10"/>
    <ellipse cx="476" cy="370" rx="28" ry="10"/>
    <ellipse cx="394" cy="208" rx="26" ry="9"/>
    <ellipse cx="280" cy="440" rx="24" ry="8"/>
    <ellipse cx="680" cy="440" rx="24" ry="8"/>
  </g>
  <!-- Rift sparkle dots along path -->
  <g fill="#8be6ff" opacity="0.40">
    <circle cx="448" cy="740" r="6"/>
    <circle cx="462" cy="640" r="5"/>
    <circle cx="510" cy="510" r="7"/>
    <circle cx="460" cy="300" r="5"/>
    <circle cx="432" cy="160" r="6"/>
    <circle cx="420" cy="100" r="4"/>
  </g>
  <!-- Gold accent dots -->
  <g fill="#f3cd63" opacity="0.36">
    <circle cx="440" cy="680" r="8"/>
    <circle cx="530" cy="440" r="7"/>
    <circle cx="480" cy="350" r="6"/>
    <circle cx="410" cy="240" r="8"/>
    <circle cx="340" cy="430" r="5"/>
    <circle cx="700" cy="450" r="6"/>
  </g>
  <!-- Crimson marker pins (interaction points) -->
  <g fill="#c84b3d" opacity="0.50">
    <circle cx="474" cy="552" r="12" stroke="#2b2730" stroke-width="4"/>
    <circle cx="476" cy="370" r="12" stroke="#2b2730" stroke-width="4"/>
    <circle cx="280" cy="440" r="10" stroke="#2b2730" stroke-width="3"/>
    <circle cx="680" cy="440" r="10" stroke="#2b2730" stroke-width="3"/>
  </g>
  <!-- Inner white dot for markers -->
  <g fill="#fff8e7" opacity="0.70">
    <circle cx="474" cy="552" r="5"/>
    <circle cx="476" cy="370" r="5"/>
    <circle cx="280" cy="440" r="4"/>
    <circle cx="680" cy="440" r="4"/>
  </g>
</svg>
