<svg xmlns="http://www.w3.org/2000/svg" width="430" height="390" viewBox="0 0 430 390">
  <ellipse cx="214" cy="318" rx="142" ry="34" fill="#10202d" opacity=".22"/>
  <path d="M214 54 L298 142 L270 266 L214 330 L158 266 L130 142Z" fill="#53c6df" opacity=".58"/>
  <path d="M214 84 L268 150 L250 246 L214 292 L178 246 L160 150Z" fill="#f9eec5" opacity=".82"/>
  <path d="M214 46 L306 140 L276 270 L214 340 L152 270 L122 140Z" fill="none" stroke="#183644" stroke-width="13" stroke-linejoin="round" opacity=".42"/>
  <path d="M214 84 L214 292" stroke="#1e839a" stroke-width="10" stroke-linecap="round" opacity=".36"/>
  <path d="M160 150 L268 150 M178 246 L250 246" stroke="#1e839a" stroke-width="8" stroke-linecap="round" opacity=".28"/>
  <path d="M96 182 C142 112 286 112 334 182" fill="none" stroke="#8be6ff" stroke-width="9" stroke-linecap="round" opacity=".48"/>
  <path d="M78 226 C142 330 288 330 352 226" fill="none" stroke="#f3cd63" stroke-width="8" stroke-linecap="round" opacity=".48"/>
  <circle cx="108" cy="182" r="10" fill="#f3cd63" opacity=".82"/>
  <circle cx="336" cy="182" r="10" fill="#f3cd63" opacity=".82"/>
  <circle cx="214" cy="34" r="8" fill="#8be6ff" opacity=".78"/>
</svg>
