<svg xmlns="http://www.w3.org/2000/svg" width="1600" height="400" viewBox="0 0 1600 400">
  <!-- Katman 1: Gölge -->
  <path d="M 0 400 L 0 260 L 60 260 L 60 230 L 100 230 L 100 200 L 130 200 L 130 180 L 160 180 L 160 200 L 190 200 L 190 170 L 210 170 L 210 150 L 220 140 L 230 150 L 230 170 L 260 170 L 260 200 L 290 200 L 290 220 L 330 220 L 330 190 L 360 190 L 360 160 L 380 160 L 380 140 L 390 130 L 400 140 L 400 160 L 430 160 L 430 180 L 460 180 L 460 200 L 500 200 L 500 220 L 540 220 L 540 195 L 570 195 L 570 170 L 590 170 L 590 155 L 600 145 L 610 155 L 610 170 L 640 170 L 640 190 L 680 190 L 680 210 L 720 210 L 720 185 L 750 185 L 750 160 L 770 160 L 770 145 L 780 135 L 790 145 L 790 160 L 820 160 L 820 180 L 860 180 L 860 200 L 900 200 L 900 220 L 940 220 L 940 195 L 970 195 L 970 170 L 990 170 L 990 155 L 1000 145 L 1010 155 L 1010 170 L 1040 170 L 1040 190 L 1080 190 L 1080 210 L 1120 210 L 1120 185 L 1150 185 L 1150 160 L 1170 160 L 1170 145 L 1180 135 L 1190 145 L 1190 160 L 1220 160 L 1220 180 L 1260 180 L 1260 200 L 1300 200 L 1300 220 L 1340 220 L 1340 195 L 1370 195 L 1370 170 L 1390 170 L 1390 155 L 1400 145 L 1410 155 L 1410 170 L 1440 170 L 1440 190 L 1480 190 L 1480 210 L 1520 210 L 1520 230 L 1560 230 L 1560 260 L 1600 260 L 1600 400 Z" fill="#10202d" opacity="0.25"/>
  <!-- Katman 2: Ana şehir silueti — orta derinlik binaları -->
  <path d="M 0 400 L 0 265 L 60 265 L 60 235 L 100 235 L 100 205 L 130 205 L 130 185 L 160 185 L 160 205 L 190 205 L 190 175 L 210 175 L 210 155 L 220 145 L 230 155 L 230 175 L 260 175 L 260 205 L 290 205 L 290 225 L 330 225 L 330 195 L 360 195 L 360 165 L 380 165 L 380 145 L 390 135 L 400 145 L 400 165 L 430 165 L 430 185 L 460 185 L 460 205 L 500 205 L 500 225 L 540 225 L 540 200 L 570 200 L 570 175 L 590 175 L 590 160 L 600 150 L 610 160 L 610 175 L 640 175 L 640 195 L 680 195 L 680 215 L 720 215 L 720 190 L 750 190 L 750 165 L 770 165 L 770 150 L 780 140 L 790 150 L 790 165 L 820 165 L 820 185 L 860 185 L 860 205 L 900 205 L 900 225 L 940 225 L 940 200 L 970 200 L 970 175 L 990 175 L 990 160 L 1000 150 L 1010 160 L 1010 175 L 1040 175 L 1040 195 L 1080 195 L 1080 215 L 1120 215 L 1120 190 L 1150 190 L 1150 165 L 1170 165 L 1170 150 L 1180 140 L 1190 150 L 1190 165 L 1220 165 L 1220 185 L 1260 185 L 1260 205 L 1300 205 L 1300 225 L 1340 225 L 1340 200 L 1370 200 L 1370 175 L 1390 175 L 1390 160 L 1400 150 L 1410 160 L 1410 175 L 1440 175 L 1440 195 L 1480 195 L 1480 215 L 1520 215 L 1520 235 L 1560 235 L 1560 265 L 1600 265 L 1600 400 Z" fill="#067078" opacity="0.62"/>
  <!-- Katman 3: Minare ve kule siluetleri -->
  <path d="M 218 145 L 214 100 L 216 95 L 218 90 L 220 95 L 222 100 L 222 145 Z M 388 135 L 384 88 L 386 83 L 388 78 L 390 83 L 392 88 L 392 135 Z M 778 140 L 774 93 L 776 88 L 778 83 L 780 88 L 782 93 L 782 140 Z M 998 150 L 994 103 L 996 98 L 998 93 L 1000 98 L 1002 103 L 1002 150 Z M 1178 140 L 1174 93 L 1176 88 L 1178 83 L 1180 88 L 1182 93 L 1182 140 Z M 1398 150 L 1394 103 L 1396 98 L 1398 93 L 1400 98 L 1402 103 L 1402 150 Z" fill="#2B2730" opacity="0.60"/>
  <!-- Katman 4: Vurgu — çatı hatları ve pencere detayları -->
  <path d="M 130 185 L 160 185 L 160 175 L 145 168 L 130 175 Z M 330 195 L 360 195 L 360 183 L 345 176 L 330 183 Z M 540 200 L 570 200 L 570 188 L 555 181 L 540 188 Z M 720 190 L 750 190 L 750 178 L 735 171 L 720 178 Z M 940 200 L 970 200 L 970 188 L 955 181 L 940 188 Z M 1120 190 L 1150 190 L 1150 178 L 1135 171 L 1120 178 Z M 1340 200 L 1370 200 L 1370 188 L 1355 181 L 1340 188 Z" fill="#FFB340" opacity="0.55"/>
</svg>
