<svg xmlns="http://www.w3.org/2000/svg" width="1400" height="800" viewBox="0 0 1400 800">
  <path d="M60 560 C80 480 120 420 200 380 C320 320 500 300 700 310 C900 320 1080 340 1200 400 C1320 460 1380 540 1360 620 C1340 700 1260 760 1100 780 C940 800 700 800 460 780 C260 762 100 720 60 640 C40 600 40 580 60 560 Z" fill="#10202d" opacity="0.24"/>
  <path d="M40 540 C60 450 110 380 200 340 C330 285 520 268 700 278 C880 288 1070 312 1190 375 C1310 438 1370 520 1350 600 C1330 680 1240 745 1080 766 C920 787 680 787 440 766 C240 748 80 700 40 618 C20 578 20 558 40 540 Z" fill="#F5E8D3" opacity="0.94" stroke="#2B2730" stroke-width="12"/>
  <path d="M200 340 C280 310 400 295 520 292 C640 289 760 295 860 310 C960 325 1040 350 1080 385 C1120 420 1110 460 1060 488 C1010 516 930 530 840 534 C750 538 650 532 560 518 C470 504 390 482 330 454 C270 426 220 390 200 360 C185 340 190 340 200 340 Z" fill="#E8D4B8" opacity="0.72"/>
  <path d="M40 540 C60 450 110 380 200 340 C330 285 520 268 700 278 C880 288 1070 312 1190 375 C1310 438 1370 520 1350 600 C1330 680 1240 745 1080 766 C920 787 680 787 440 766 C240 748 80 700 40 618 C20 578 20 558 40 540 Z" fill="none" stroke="#2B2730" stroke-width="12"/>
</svg>
