<svg xmlns="http://www.w3.org/2000/svg" width="1200" height="600" viewBox="0 0 1200 600">
  <!-- Shadow layer: path network shadow -->
  <path d="M600 600 C580 520 548 460 510 400 C472 340 440 290 420 220 C400 150 410 90 430 30 M420 220 C360 200 280 196 200 220 C140 238 80 270 20 300 M510 400 C460 420 390 450 320 490 C260 524 200 560 140 600 M510 400 C570 420 650 440 730 460 C810 480 900 490 1000 480 C1080 472 1140 450 1180 420" fill="none" stroke="#10202d" stroke-width="52" stroke-linecap="round" stroke-linejoin="round" opacity="0.22"/>
  <!-- Main path: central winding dirt road -->
  <path d="M600 600 C580 520 548 460 510 400 C472 340 440 290 420 220 C400 150 410 90 430 30" fill="none" stroke="#F5E8D3" stroke-width="38" stroke-linecap="round" stroke-linejoin="round" opacity="0.86"/>
  <!-- Branch left: side path branching left toward coast -->
  <path d="M420 220 C360 200 280 196 200 220 C140 238 80 270 20 300" fill="none" stroke="#F5E8D3" stroke-width="28" stroke-linecap="round" stroke-linejoin="round" opacity="0.72"/>
  <!-- Branch lower-left: path descending toward harbor -->
  <path d="M510 400 C460 420 390 450 320 490 C260 524 200 560 140 600" fill="none" stroke="#F5E8D3" stroke-width="26" stroke-linecap="round" stroke-linejoin="round" opacity="0.68"/>
  <!-- Branch right: path branching toward telegraph ridge -->
  <path d="M510 400 C570 420 650 440 730 460 C810 480 900 490 1000 480 C1080 472 1140 450 1180 420" fill="none" stroke="#F5E8D3" stroke-width="26" stroke-linecap="round" stroke-linejoin="round" opacity="0.64"/>
</svg>
