<svg xmlns="http://www.w3.org/2000/svg" width="600" height="400" viewBox="0 0 600 400">
  <!-- Layer 1: Shadow -->
  <path d="M 155 390 L 155 200 C 155 80 445 80 445 200 L 445 390 L 415 390 L 415 210 C 415 115 185 115 185 210 L 185 390 Z" fill="#10202d" opacity="0.22"/>
  <!-- Layer 2: Left and right pillars + arch (main turquoise shape) -->
  <path d="M 140 390 L 140 195 C 140 60 460 60 460 195 L 460 390 L 420 390 L 420 205 C 420 105 180 105 180 205 L 180 390 Z" fill="#067078"/>
  <!-- Layer 3: Wave decoration on arch top -->
  <path d="M 180 205 C 180 105 420 105 420 205 C 420 185 390 175 360 185 C 330 195 310 175 300 170 C 290 175 270 195 240 185 C 210 175 180 185 180 205 Z" fill="#F5E8D3" opacity="0.72"/>
  <!-- Layer 4: Gold accent band on pillar tops -->
  <path d="M 140 195 L 180 195 L 180 215 L 140 215 Z M 420 195 L 460 195 L 460 215 L 420 215 Z" fill="#FFB340" opacity="0.85"/>
  <!-- Layer 5: Outline -->
  <path d="M 140 390 L 140 195 C 140 60 460 60 460 195 L 460 390 L 420 390 L 420 205 C 420 105 180 105 180 205 L 180 390 Z" fill="none" stroke="#2B2730" stroke-width="10"/>
</svg>
