<svg xmlns="http://www.w3.org/2000/svg" width="600" height="500" viewBox="0 0 600 500">
  <metadata><slot_id>samsun.harbor_landmark</slot_id></metadata>
  <!-- Shadow path — placed first -->
  <path d="M 30 480 L 570 480 L 570 460 L 520 460 L 520 440 L 480 440 L 480 420 L 440 420 L 440 410 L 400 410 L 400 420 L 360 420 L 360 440 L 200 440 L 200 420 L 160 420 L 160 410 L 120 410 L 120 440 L 80 440 L 80 460 L 30 460 Z" fill="#10202d" opacity="0.22"/>
  <!-- Dock platform + crate combined -->
  <path d="M 40 490 L 560 490 L 560 450 L 510 450 L 510 430 L 470 430 L 470 415 L 430 415 L 430 405 L 390 405 L 390 415 L 350 415 L 350 430 L 210 430 L 210 415 L 170 415 L 170 405 L 130 405 L 130 430 L 90 430 L 90 450 L 40 450 Z M 240 430 L 240 400 L 310 400 L 310 430 Z M 255 400 L 255 385 L 295 385 L 295 400 Z M 255 392 L 295 392 Z M 275 385 L 275 400 Z" fill="#F5E8D3"/>
  <!-- Steamship silhouette -->
  <path d="M 60 420 L 60 370 L 80 370 L 80 340 L 100 340 L 100 310 L 115 310 L 115 295 L 125 295 L 125 310 L 140 310 L 140 340 L 155 340 L 155 320 L 165 320 L 165 340 L 200 340 L 200 370 L 220 370 L 220 420 Z M 105 310 L 105 280 L 120 280 L 120 310 Z" fill="#2B2730"/>
  <!-- Lighthouse silhouette -->
  <path d="M 430 415 L 430 350 L 440 340 L 440 200 L 450 190 L 460 200 L 460 340 L 470 350 L 470 415 Z M 442 200 L 442 180 L 458 180 L 458 200 Z M 438 180 L 438 170 L 462 170 L 462 180 Z M 445 170 L 445 155 L 455 155 L 455 170 Z M 440 155 L 440 148 L 460 148 L 460 155 Z" fill="#067078"/>
</svg>
