<svg xmlns="http://www.w3.org/2000/svg" width="700" height="600" viewBox="0 0 700 600">
  <metadata><slot_id>samsun.people_plaza</slot_id></metadata>
  <!-- Shadow layer: ground shadows under statue pedestal, bench, tree base -->
  <path d="M 280 510 L 420 510 L 430 525 L 270 525 Z M 440 515 L 560 515 L 565 525 L 435 525 Z M 120 505 L 240 505 L 248 525 L 112 525 Z" fill="#10202d" opacity="0.22"/>
  <!-- Scene: statue (pedestal+figure) + bench + tree — combined cream layer -->
  <path d="M 305 490 L 395 490 L 395 468 L 382 468 L 382 428 L 370 428 L 370 408 L 362 408 L 358 388 C 354 368 350 348 354 326 C 358 306 368 294 352 272 C 342 256 330 260 324 276 C 316 296 320 318 326 338 L 328 362 L 322 382 L 318 408 L 308 408 L 308 428 L 295 428 L 295 468 L 282 468 L 282 490 Z M 448 492 L 558 492 L 558 480 L 552 480 L 552 458 L 454 458 L 454 480 L 448 480 Z M 552 468 L 568 468 L 568 492 L 552 492 Z M 448 468 L 464 468 L 464 492 L 448 492 Z M 130 448 C 128 388 148 336 178 304 C 198 282 220 276 232 282 C 248 290 254 314 248 344 C 242 370 226 392 220 418 L 214 448 Z M 178 304 C 172 282 182 260 194 254 C 206 248 218 256 222 268 C 230 284 226 306 218 318 C 206 334 188 328 182 316 Z M 222 268 C 234 252 250 246 262 252 C 274 260 274 278 266 290 C 254 304 236 300 228 288 Z M 136 448 L 226 448 L 230 468 L 132 468 Z" fill="#F5E8D3"/>
  <!-- Statue gold accent: head glow + raised arm highlight -->
  <path d="M 324 276 C 318 264 320 252 330 248 C 340 246 348 256 344 268 C 340 280 330 284 324 276 Z M 354 326 C 348 314 352 300 362 296 C 372 292 378 304 374 316 C 370 328 360 332 354 326 Z" fill="#FFB340" opacity="0.82"/>
  <!-- NPC silhouette 1 — standing figure, left side of plaza -->
  <path d="M 82 530 L 82 490 C 82 476 84 464 86 454 C 88 444 90 438 86 430 C 82 422 76 420 74 412 C 72 402 78 392 88 390 C 98 388 106 396 106 406 C 106 414 102 420 98 428 C 94 438 96 450 98 462 L 100 490 L 100 530 Z" fill="#2B2730"/>
  <!-- NPC silhouette 2 — standing figure, right side of plaza -->
  <path d="M 598 530 L 598 490 C 598 476 600 464 602 454 C 604 444 606 438 602 430 C 598 422 592 420 590 412 C 588 402 594 392 604 390 C 614 388 622 396 622 406 C 622 414 618 420 614 428 C 610 438 612 450 614 462 L 616 490 L 616 530 Z" fill="#2B2730"/>
</svg>
