<svg xmlns="http://www.w3.org/2000/svg" width="800" height="400" viewBox="0 0 800 400">
  <!-- Shadow layer -->
  <path d="M 0 320 C 80 310 160 305 240 315 C 320 325 400 318 480 312 C 560 306 640 310 720 318 C 760 322 800 320 800 320 L 800 400 L 0 400 Z" fill="#10202d" opacity="0.22"/>
  <!-- Ground / pebble shore strip -->
  <path d="M 0 340 C 40 332 90 328 140 335 C 180 340 220 336 260 330 C 310 323 360 328 400 334 C 440 340 490 336 540 328 C 590 320 640 325 690 332 C 730 337 770 334 800 330 L 800 400 L 0 400 Z" fill="#F5E8D3"/>
  <!-- Reeds and coastal vegetation -->
  <path d="M 60 340 C 58 310 55 280 52 250 C 50 235 48 220 50 210 C 52 200 56 198 58 205 C 60 212 62 230 64 250 C 66 270 68 295 70 320 C 72 335 74 342 72 345 Z M 90 338 C 88 308 86 275 84 248 C 82 230 80 215 82 205 C 84 195 88 193 90 200 C 92 207 94 225 96 248 C 98 268 100 295 102 322 C 104 336 106 343 104 346 Z M 120 342 C 118 315 116 285 114 260 C 112 242 110 228 112 218 C 114 208 118 206 120 213 C 122 220 124 238 126 260 C 128 280 130 308 132 330 C 134 342 136 348 134 350 Z M 75 210 C 72 205 65 198 58 195 C 52 192 46 194 44 198 C 42 202 46 208 52 210 C 58 212 66 210 72 208 Z M 95 200 C 92 195 85 188 78 185 C 72 182 66 184 64 188 C 62 192 66 198 72 200 C 78 202 86 200 92 198 Z M 200 345 C 198 318 196 288 194 262 C 192 244 190 230 192 220 C 194 210 198 208 200 215 C 202 222 204 240 206 262 C 208 282 210 310 212 332 C 214 344 216 350 214 352 Z M 230 342 C 228 312 226 280 224 255 C 222 237 220 222 222 212 C 224 202 228 200 230 207 C 232 214 234 232 236 255 C 238 275 240 305 242 328 C 244 340 246 347 244 350 Z M 215 220 C 212 215 205 208 198 205 C 192 202 186 204 184 208 C 182 212 186 218 192 220 C 198 222 206 220 212 218 Z M 450 348 C 448 322 446 292 444 268 C 442 250 440 236 442 226 C 444 216 448 214 450 221 C 452 228 454 246 456 268 C 458 288 460 316 462 338 C 464 350 466 356 464 358 Z M 480 345 C 478 315 476 283 474 258 C 472 240 470 225 472 215 C 474 205 478 203 480 210 C 482 217 484 235 486 258 C 488 278 490 308 492 330 C 494 342 496 349 494 352 Z M 465 226 C 462 221 455 214 448 211 C 442 208 436 210 434 214 C 432 218 436 224 442 226 C 448 228 456 226 462 224 Z M 650 350 C 648 324 646 294 644 270 C 642 252 640 238 642 228 C 644 218 648 216 650 223 C 652 230 654 248 656 270 C 658 290 660 318 662 340 C 664 352 666 358 664 360 Z M 680 347 C 678 317 676 285 674 260 C 672 242 670 227 672 217 C 674 207 678 205 680 212 C 682 219 684 237 686 260 C 688 280 690 310 692 332 C 694 344 696 351 694 354 Z M 665 228 C 662 223 655 216 648 213 C 642 210 636 212 634 216 C 632 220 636 226 642 228 C 648 230 656 228 662 226 Z" fill="#067078" opacity="0.82"/>
  <!-- Small bushes and pebble details -->
  <path d="M 300 355 C 295 345 285 338 275 340 C 265 342 260 350 262 358 C 264 366 274 370 284 368 C 294 366 302 362 300 355 Z M 330 360 C 325 350 315 343 305 345 C 295 347 290 355 292 363 C 294 371 304 375 314 373 C 324 371 332 367 330 360 Z M 315 345 C 310 335 300 328 290 330 C 280 332 275 340 277 348 C 279 356 289 360 299 358 C 309 356 317 352 315 345 Z M 560 358 C 555 348 545 341 535 343 C 525 345 520 353 522 361 C 524 369 534 373 544 371 C 554 369 562 365 560 358 Z M 590 362 C 585 352 575 345 565 347 C 555 349 550 357 552 365 C 554 373 564 377 574 375 C 584 373 592 369 590 362 Z M 575 348 C 570 338 560 331 550 333 C 540 335 535 343 537 351 C 539 359 549 363 559 361 C 569 359 577 355 575 348 Z M 150 368 C 148 360 140 354 132 356 C 124 358 120 366 122 374 C 124 380 132 382 140 380 C 148 378 152 374 150 368 Z M 720 365 C 718 357 710 351 702 353 C 694 355 690 363 692 371 C 694 377 702 379 710 377 C 718 375 722 371 720 365 Z" fill="#2B2730" opacity="0.70"/>
</svg>
