<svg xmlns="http://www.w3.org/2000/svg" viewBox="0 0 600 400" width="600" height="400">
  <!-- Shadow layer -->
  <path d="M 60 340 L 220 340 L 220 355 L 60 355 Z M 255 335 L 355 335 L 355 355 L 255 355 Z M 400 340 L 520 340 L 520 355 L 400 355 Z" fill="#10202d" opacity="0.22"/>
  <!-- Wooden crate (left) — body + lid + cross-brace -->
  <path d="M 65 240 L 215 240 L 215 340 L 65 340 Z M 55 230 L 225 230 L 225 250 L 55 250 Z M 65 240 L 65 340 M 215 240 L 215 340 M 140 240 L 140 340 M 65 290 L 215 290" fill="#F5E8D3" stroke="#2B2730" stroke-width="9"/>
  <!-- Milestone stone marker (center) -->
  <path d="M 270 180 C 270 160 290 145 305 145 C 320 145 340 160 340 180 L 340 335 L 270 335 Z" fill="#067078"/>
  <!-- Lantern (right) — body + top cap + glow window -->
  <path d="M 415 210 L 505 210 L 505 330 L 415 330 Z M 405 200 L 515 200 L 515 215 L 405 215 Z M 455 195 L 465 175 L 465 195 Z M 425 225 L 495 225 L 495 315 L 425 315 Z" fill="#FFB340" stroke="#2B2730" stroke-width="9"/>
  <!-- Lantern glow window inner light -->
  <path d="M 435 235 L 485 235 L 485 305 L 435 305 Z" fill="#F5E8D3" opacity="0.65"/>
</svg>
