<svg xmlns="http://www.w3.org/2000/svg" width="1800" height="900" viewBox="0 0 1800 900">
  <path d="M0 0 L1800 0 L1800 900 L0 900 Z" fill="#067078"/>
  <path d="M0 480 C200 420 380 460 560 400 C740 340 920 390 1100 330 C1280 270 1480 310 1800 260 L1800 900 L0 900 Z" fill="#F5E8D3"/>
  <path d="M0 900 L1800 900 L1800 260 C1480 310 1280 270 1100 330 C920 390 740 340 560 400 C380 460 200 420 0 480 Z" fill="#10202d" opacity="0.22"/>
  <path d="M0 560 C240 500 440 540 640 480 C840 420 1040 460 1240 400 C1440 340 1640 370 1800 340 L1800 900 L0 900 Z" fill="#FFB340" opacity="0.18"/>
</svg>
