<svg xmlns="http://www.w3.org/2000/svg" width="980" height="360" viewBox="0 0 980 360">
  <g opacity=".48">
    <path d="M40 160 C136 116 248 120 344 150" fill="none" stroke="#fff8d9" stroke-width="12" stroke-linecap="round"/>
    <path d="M610 144 C720 104 840 118 936 156" fill="none" stroke="#fff8d9" stroke-width="12" stroke-linecap="round"/>
    <path d="M260 234 C390 270 560 266 708 232" fill="none" stroke="#d8b778" stroke-width="13" stroke-linecap="round" opacity=".56"/>
  </g>
  <g fill="#5b3f2f" opacity=".36">
    <ellipse cx="132" cy="204" rx="28" ry="11"/>
    <ellipse cx="214" cy="226" rx="18" ry="8"/>
    <ellipse cx="764" cy="214" rx="26" ry="10"/>
    <ellipse cx="846" cy="238" rx="18" ry="8"/>
    <ellipse cx="462" cy="286" rx="20" ry="8"/>
  </g>
  <g fill="#b7d99b" opacity=".54">
    <path d="M80 244 C94 208 112 190 134 172 C128 218 116 246 98 274Z"/>
    <path d="M896 244 C880 206 856 184 832 168 C838 216 854 250 878 278Z"/>
    <path d="M548 292 C564 262 588 242 616 226 C606 268 586 294 560 318Z"/>
  </g>
  <g fill="#e8c55a" opacity=".34">
    <circle cx="174" cy="158" r="7"/>
    <circle cx="690" cy="150" r="7"/>
    <circle cx="520" cy="244" r="6"/>
  </g>
</svg>
