<svg xmlns="http://www.w3.org/2000/svg" width="420" height="280" viewBox="0 0 420 280">
  <ellipse cx="210" cy="226" rx="142" ry="30" fill="#111c2a" opacity=".20"/>
  <path d="M74 188 C118 96 300 96 346 188 C300 238 124 238 74 188Z" fill="#d9c7ff" opacity=".34"/>
  <path d="M102 178 C138 118 282 118 318 178" fill="none" stroke="#7f5ad8" stroke-width="16" stroke-linecap="round" opacity=".48"/>
  <path d="M130 176 C158 142 262 142 290 176" fill="none" stroke="#8be6ff" stroke-width="12" stroke-linecap="round" opacity=".55"/>
  <path d="M102 178 C156 218 264 218 318 178" fill="none" stroke="#f3cd63" stroke-width="10" stroke-linecap="round" opacity=".52"/>
  <g fill="#74d2ee" opacity=".82">
    <path d="M128 70 L150 112 L124 150 L102 110Z"/>
    <path d="M292 70 L318 108 L296 150 L270 112Z"/>
    <path d="M206 44 L236 96 L210 150 L180 96Z"/>
  </g>
  <g fill="#fff3bf" opacity=".76">
    <circle cx="102" cy="176" r="10"/>
    <circle cx="318" cy="176" r="10"/>
    <circle cx="210" cy="152" r="9"/>
  </g>
</svg>
