<svg xmlns="http://www.w3.org/2000/svg" width="380" height="360" viewBox="0 0 380 360">
  <ellipse cx="190" cy="302" rx="126" ry="30" fill="#1b2630" opacity=".18"/>
  <path d="M164 72 H216 L206 292 H174Z" fill="#7b5a3d"/>
  <path d="M158 72 H222" stroke="#2b2723" stroke-width="12" stroke-linecap="round" opacity=".38"/>
  <path d="M94 112 H286" stroke="#60442e" stroke-width="18" stroke-linecap="round"/>
  <path d="M112 138 H268" stroke="#ead39a" stroke-width="10" stroke-linecap="round"/>
  <path d="M76 112 C126 42 254 42 304 112" fill="none" stroke="#58bfe0" stroke-width="8" stroke-linecap="round" opacity=".55"/>
  <path d="M76 112 C132 174 246 174 304 112" fill="none" stroke="#58bfe0" stroke-width="7" stroke-linecap="round" opacity=".35"/>
  <circle cx="96" cy="112" r="18" fill="#f7e5b1" stroke="#443529" stroke-width="7"/>
  <circle cx="284" cy="112" r="18" fill="#f7e5b1" stroke="#443529" stroke-width="7"/>
  <path d="M142 292 H238 L264 324 H116Z" fill="#f1d89d"/>
  <path d="M144 292 H236" stroke="#3a2f28" stroke-width="9" stroke-linecap="round" opacity=".35"/>
  <path d="M190 42 C214 56 230 76 238 100" fill="none" stroke="#eac85d" stroke-width="7" stroke-linecap="round" opacity=".75"/>
  <path d="M190 28 C232 52 254 82 264 122" fill="none" stroke="#eac85d" stroke-width="5" stroke-linecap="round" opacity=".45"/>
</svg>
