<svg xmlns="http://www.w3.org/2000/svg" viewBox="0 0 600 400">
  <path d="M 148 390 L 162 390 L 162 80 L 148 80 Z M 348 390 L 360 390 L 360 140 L 348 140 Z" fill="#2B2730" opacity="0.22"/>
  <path d="M 150 388 L 160 388 L 160 78 L 150 78 Z M 350 388 L 358 388 L 358 138 L 350 138 Z" fill="#10202d"/>
  <path d="M 160 78 L 160 198 L 310 198 L 310 78 Z" fill="#B82E1F"/>
  <path d="M 358 138 L 358 238 L 480 188 Z" fill="#067078"/>
  <path d="M 160 78 L 160 198 L 310 198 L 310 78 Z M 358 138 L 358 238 L 480 188 Z" fill="none" stroke="#2B2730" stroke-width="8"/>
</svg>
