<svg xmlns="http://www.w3.org/2000/svg" width="800" height="300" viewBox="0 0 800 300">
  <!-- Shadow: route line shadow offset -->
  <path d="M 22 168 C 80 185 160 195 240 178 C 320 161 400 148 480 155 C 560 162 640 175 778 162" fill="none" stroke="#10202d" stroke-width="12" opacity="0.24"/>
  <!-- Route line: curving path across canvas -->
  <path d="M 20 160 C 78 177 158 187 238 170 C 318 153 398 140 478 147 C 558 154 638 167 776 154" fill="none" stroke="#067078" stroke-width="9" opacity="0.90"/>
  <!-- Bead shapes at key route stops using arc commands -->
  <path d="M 62 160 A 18 18 0 0 0 98 160 A 18 18 0 0 0 62 160 M 242 152 A 18 18 0 0 0 278 152 A 18 18 0 0 0 242 152 M 462 147 A 18 18 0 0 0 498 147 A 18 18 0 0 0 462 147 M 682 158 A 18 18 0 0 0 718 158 A 18 18 0 0 0 682 158" fill="#FFB340" stroke="#2B2730" stroke-width="8" opacity="0.92"/>
  <!-- Diamond markers at intermediate waypoints -->
  <path d="M 170 163 L 182 151 L 194 163 L 182 175 Z M 370 145 L 382 133 L 394 145 L 382 157 Z M 590 153 L 602 141 L 614 153 L 602 165 Z" fill="#F5E8D3" stroke="#2B2730" stroke-width="8" opacity="0.88"/>
</svg>
