<svg xmlns="http://www.w3.org/2000/svg" width="400" height="400" viewBox="0 0 400 400">
  <metadata><slot_id>samsun.rift_core</slot_id></metadata>
  <!-- Path 1: Outer glow/shimmer — large soft ellipse -->
  <path d="M 200 40 C 310 40 370 110 370 200 C 370 290 310 360 200 360 C 90 360 30 290 30 200 C 30 110 90 40 200 40 Z" fill="#53c6df" opacity="0.58"/>
  <!-- Path 2: Energy ring 1 (outer) — donut shape via two subpaths -->
  <path d="M 200 70 C 296 70 330 130 330 200 C 330 270 296 330 200 330 C 104 330 70 270 70 200 C 70 130 104 70 200 70 Z M 200 110 C 278 110 290 152 290 200 C 290 248 278 290 200 290 C 122 290 110 248 110 200 C 110 152 122 110 200 110 Z" fill="#53c6df" opacity="0.68"/>
  <!-- Path 3: Energy ring 2 (inner) — smaller donut shape -->
  <path d="M 200 130 C 262 130 270 162 270 200 C 270 238 262 270 200 270 C 138 270 130 238 130 200 C 130 162 138 130 200 130 Z M 200 158 C 244 158 248 176 248 200 C 248 224 244 242 200 242 C 156 242 152 224 152 200 C 152 176 156 158 200 158 Z" fill="#53c6df" opacity="0.78"/>
  <!-- Path 4: Central crystal — diamond/crystal polygon -->
  <path d="M 200 162 L 224 188 L 238 200 L 224 212 L 200 238 L 176 212 L 162 200 L 176 188 Z" fill="#f9eec5" opacity="0.76"/>
</svg>
