<svg xmlns="http://www.w3.org/2000/svg" viewBox="0 0 700 400" width="700" height="400">
  <path d="M 80 290 C 60 310 55 340 90 355 C 130 372 210 368 260 355 C 310 342 330 318 310 298 C 290 278 240 268 190 268 C 140 268 100 270 80 290 Z M 340 270 C 310 285 300 315 325 335 C 355 358 430 362 490 348 C 545 335 570 308 550 285 C 530 262 475 252 420 255 C 375 258 360 260 340 270 Z M 530 295 C 510 310 505 338 530 352 C 558 368 620 365 650 348 C 678 332 682 308 660 295 C 638 282 600 278 570 280 C 548 282 540 285 530 295 Z" fill="#10202d" opacity="0.22"/>
  <path d="M 75 280 C 55 300 50 332 88 348 C 128 366 215 362 268 348 C 320 334 342 308 320 286 C 298 264 245 254 192 255 C 138 256 95 260 75 280 Z M 335 260 C 305 276 294 308 320 330 C 352 355 432 360 495 344 C 552 330 578 300 556 276 C 534 252 476 242 418 246 C 370 250 355 250 335 260 Z M 525 285 C 504 302 498 332 525 348 C 555 366 622 362 654 344 C 682 328 686 302 662 288 C 638 274 598 270 566 272 C 542 274 534 278 525 285 Z" fill="#F5E8D3"/>
  <path d="M 75 280 C 55 300 50 332 88 348 C 128 366 215 362 268 348 C 320 334 342 308 320 286 C 298 264 245 254 192 255 C 138 256 95 260 75 280 Z M 335 260 C 305 276 294 308 320 330 C 352 355 432 360 495 344 C 552 330 578 300 556 276 C 534 252 476 242 418 246 C 370 250 355 250 335 260 Z M 525 285 C 504 302 498 332 525 348 C 555 366 622 362 654 344 C 682 328 686 302 662 288 C 638 274 598 270 566 272 C 542 274 534 278 525 285 Z" fill="none" stroke="#2B2730" stroke-width="9"/>
</svg>
