<svg xmlns="http://www.w3.org/2000/svg" width="1080" height="1920" viewBox="0 0 1080 1920">
  <!-- ============================================= -->
  <!-- Ankara Steppe Terrain v1                      -->
  <!-- Warm earth tones: #c4a46c, #8b7355, #d4c5a9  -->
  <!-- Outline: #5c4033 stroke-width 12             -->
  <!-- ============================================= -->
  <!-- Deep shadow layer -->
  <path d="M40 1320 C80 1180 200 1080 360 1020 C520 960 700 940 840 980 C980 1020 1050 1100 1060 1220 C1070 1340 1040 1460 960 1560 C880 1660 720 1720 540 1720 C360 1720 200 1680 120 1580 C40 1480 20 1400 40 1320Z" fill="#3a2a1a" opacity="0.18"/>
  <!-- Base terrain - warm wheat -->
  <path d="M20 1280 C60 1140 180 1040 340 980 C500 920 680 900 820 940 C960 980 1030 1060 1040 1180 C1050 1300 1020 1420 940 1520 C860 1620 700 1680 520 1680 C340 1680 180 1640 100 1540 C20 1440 0 1360 20 1280Z" fill="#d4c5a9"/>
  <!-- Mid terrain - warm tan -->
  <path d="M80 1200 C120 1080 230 1000 380 944 C530 888 680 876 800 914 C920 952 984 1024 992 1132 C1000 1240 974 1352 900 1440 C826 1528 680 1580 520 1580 C360 1580 218 1544 144 1460 C70 1376 52 1296 80 1200Z" fill="#c4a46c"/>
  <!-- Upper terrain - golden earth -->
  <path d="M140 1140 C176 1038 276 966 408 918 C540 870 658 862 764 894 C870 926 928 988 936 1084 C944 1180 920 1284 852 1364 C784 1444 660 1492 520 1492 C380 1492 256 1460 190 1386 C124 1312 108 1240 140 1140Z" fill="#b8956a"/>
  <!-- Accent ridge - lighter wheat -->
  <path d="M220 1220 C260 1140 350 1084 460 1048 C570 1012 674 1008 762 1034 C850 1060 886 1112 880 1180 C874 1248 832 1316 760 1356 C688 1396 574 1420 470 1412 C366 1404 290 1364 246 1300 C202 1236 196 1270 220 1220Z" fill="#dcc8a8" opacity="0.30"/>
  <!-- Terrain texture dots -->
  <g fill="#7a5a42" opacity="0.10">
    <circle cx="300" cy="1100" r="14"/>
    <circle cx="540" cy="1060" r="12"/>
    <circle cx="780" cy="1080" r="11"/>
    <circle cx="400" cy="1350" r="10"/>
    <circle cx="680" cy="1380" r="13"/>
    <circle cx="520" cy="1240" r="9"/>
    <circle cx="260" cy="1280" r="8"/>
    <circle cx="860" cy="1260" r="10"/>
  </g>
  <!-- Grass tufts -->
  <g stroke="#8b7355" stroke-width="4" stroke-linecap="round" opacity="0.18">
    <path d="M180 1180 L186 1158 L192 1180"/>
    <path d="M420 1080 L426 1058 L432 1080"/>
    <path d="M660 1060 L666 1038 L672 1060"/>
    <path d="M900 1140 L906 1118 L912 1140"/>
    <path d="M320 1380 L326 1358 L332 1380"/>
    <path d="M760 1400 L766 1378 L772 1400"/>
    <path d="M510 1120 L516 1098 L522 1120"/>
    <path d="M240 1340 L246 1318 L252 1340"/>
  </g>
  <!-- Lower ground extension -->
  <path d="M60 1370 C100 1280 220 1210 370 1160 C520 1110 660 1100 790 1130 C920 1160 990 1220 1000 1320 C1010 1420 980 1510 900 1570 C820 1630 670 1670 510 1670 C350 1670 180 1630 100 1550 C20 1470 30 1420 60 1370Z" fill="#a88258"/>
  <!-- Bottom ground -->
  <path d="M100 1500 C180 1400 340 1340 500 1300 C660 1260 780 1280 870 1340 C960 1400 980 1520 900 1620 C820 1720 660 1760 500 1760 C340 1760 180 1720 100 1640 C20 1560 40 1540 100 1500Z" fill="#8b7355"/>
  <!-- Outline - thick paper cutout style -->
  <path d="M20 1280 C60 1140 180 1040 340 980 C500 920 680 900 820 940 C960 980 1030 1060 1040 1180 C1050 1300 1020 1420 940 1520 C860 1620 700 1680 520 1680 C340 1680 180 1640 100 1540 C20 1440 0 1360 20 1280Z" fill="none" stroke="#5c4033" stroke-width="16" stroke-linecap="round" stroke-linejoin="round"/>
  <!-- Gold accent dots -->
  <g fill="#f2be63" opacity="0.22">
    <circle cx="280" cy="1180" r="10"/>
    <circle cx="720" cy="1120" r="12"/>
    <circle cx="500" cy="1360" r="9"/>
    <circle cx="880" cy="1300" r="8"/>
    <circle cx="180" cy="1340" r="7"/>
  </g>
  <!-- Light sparkles -->
  <g fill="#fff8e7" opacity="0.28">
    <circle cx="520" cy="1060" r="5"/>
    <circle cx="340" cy="1240" r="4"/>
    <circle cx="700" cy="1320" r="4"/>
    <circle cx="440" cy="1480" r="3"/>
  </g>
</svg>
