<svg xmlns="http://www.w3.org/2000/svg" viewBox="0 0 600 400">
  <ellipse cx="300" cy="336" rx="226" ry="18" fill="#1f2d3b" opacity="0.14"/>
  <path fill="#ead7b0" stroke="#6a5440" stroke-width="5" stroke-linejoin="round" d="M88 262 C150 244 212 240 274 250 C334 260 394 260 456 248 C496 240 532 240 564 248 L552 284 C516 280 482 282 446 290 C388 304 328 306 268 296 C212 286 154 286 104 292 Z"/>
  <g stroke="#7a5a42" stroke-width="10" stroke-linecap="round">
    <line x1="118" y1="250" x2="118" y2="86"/>
    <line x1="302" y1="244" x2="302" y2="74"/>
    <line x1="484" y1="250" x2="484" y2="96"/>
  </g>
  <g fill="#c84b3d" stroke="#6a5440" stroke-width="4">
    <path d="M126 96 H188 L178 128 H126 Z"/>
    <path d="M310 84 H376 L366 118 H310 Z"/>
    <path d="M492 106 H548 L540 136 H492 Z"/>
  </g>
  <path d="M134 134 C198 160 248 166 302 160 C362 154 418 146 492 142" fill="none" stroke="#f2be63" stroke-width="5" stroke-linecap="round" opacity="0.44"/>
  <g fill="#f2be63" opacity="0.30">
    <circle cx="182" cy="236" r="7"/>
    <circle cx="260" cy="252" r="6"/>
    <circle cx="340" cy="254" r="6"/>
    <circle cx="420" cy="238" r="7"/>
  </g>
</svg>
