<svg xmlns="http://www.w3.org/2000/svg" width="920" height="900" viewBox="0 0 920 900">
  <!-- ============================================= -->
  <!-- Ankara Main Path v1                           -->
  <!-- Winding path through steppe, golden earth     -->
  <!-- ============================================= -->
  <!-- Shadow layer -->
  <path d="M460 820 C440 680 420 580 390 490 C360 400 380 320 420 260 C460 200 470 150 460 90" fill="none" stroke="#10202d" stroke-width="86" stroke-linecap="round" stroke-linejoin="round" opacity="0.16"/>
  <!-- Main path - warm cream -->
  <path d="M460 820 C440 680 420 580 390 490 C360 400 380 320 420 260 C460 200 470 150 460 90" fill="none" stroke="#e8dfc8" stroke-width="58" stroke-linecap="round" stroke-linejoin="round" opacity="0.88"/>
  <!-- Path inner - golden tan -->
  <path d="M460 820 C440 680 420 580 390 490 C360 400 380 320 420 260 C460 200 470 150 460 90" fill="none" stroke="#c4a46c" stroke-width="22" stroke-linecap="round" stroke-linejoin="round" opacity="0.24"/>
  <!-- Branch path - left (to Meclis) -->
  <path d="M390 490 C310 450 220 440 120 490" fill="none" stroke="#10202d" stroke-width="56" stroke-linecap="round" opacity="0.10"/>
  <path d="M390 490 C310 450 220 440 120 490" fill="none" stroke="#e8dfc8" stroke-width="38" stroke-linecap="round" opacity="0.82"/>
  <path d="M390 490 C310 450 220 440 120 490" fill="none" stroke="#c4a46c" stroke-width="14" stroke-linecap="round" opacity="0.20"/>
  <!-- Branch path - right (to town) -->
  <path d="M420 260 C520 240 620 260 710 330" fill="none" stroke="#10202d" stroke-width="56" stroke-linecap="round" opacity="0.10"/>
  <path d="M420 260 C520 240 620 260 710 330" fill="none" stroke="#e8dfc8" stroke-width="38" stroke-linecap="round" opacity="0.80"/>
  <path d="M420 260 C520 240 620 260 710 330" fill="none" stroke="#c4a46c" stroke-width="14" stroke-linecap="round" opacity="0.18"/>
  <!-- Shadow pads / stepping stones -->
  <g fill="#1a2a3a" opacity="0.18">
    <ellipse cx="450" cy="740" rx="30" ry="10"/>
    <ellipse cx="430" cy="620" rx="28" ry="10"/>
    <ellipse cx="400" cy="500" rx="26" ry="9"/>
    <ellipse cx="400" cy="380" rx="28" ry="10"/>
    <ellipse cx="460" cy="280" rx="26" ry="9"/>
    <ellipse cx="515" cy="180" rx="24" ry="8"/>
    <ellipse cx="250" cy="460" rx="22" ry="8"/>
    <ellipse cx="580" cy="290" rx="20" ry="7"/>
  </g>
  <!-- Golden wheat dots along path -->
  <g fill="#c4a46c" opacity="0.28">
    <circle cx="445" cy="700" r="8"/>
    <circle cx="420" cy="560" r="7"/>
    <circle cx="395" cy="440" r="6"/>
    <circle cx="440" cy="340" r="7"/>
    <circle cx="480" cy="240" r="6"/>
    <circle cx="210" cy="470" r="5"/>
    <circle cx="600" cy="300" r="5"/>
  </g>
  <!-- Warm sparkles -->
  <g fill="#f5deb3" opacity="0.32">
    <circle cx="435" cy="660" r="5"/>
    <circle cx="410" cy="520" r="4"/>
    <circle cx="420" cy="320" r="5"/>
    <circle cx="480" cy="210" r="4"/>
    <circle cx="170" cy="480" r="3"/>
  </g>
  <!-- Marker pins - deep red -->
  <g fill="#b84a3a" opacity="0.42">
    <circle cx="430" cy="620" r="12" stroke="#2b2730" stroke-width="4"/>
    <circle cx="400" cy="380" r="12" stroke="#2b2730" stroke-width="4"/>
    <circle cx="250" cy="460" r="10" stroke="#2b2730" stroke-width="3"/>
    <circle cx="580" cy="290" r="10" stroke="#2b2730" stroke-width="3"/>
  </g>
  <g fill="#fff8e7" opacity="0.60">
    <circle cx="430" cy="620" r="5"/>
    <circle cx="400" cy="380" r="5"/>
    <circle cx="250" cy="460" r="4"/>
    <circle cx="580" cy="290" r="4"/>
  </g>
</svg>
