<svg xmlns="http://www.w3.org/2000/svg" viewBox="0 0 600 400">
  <path fill="#1e2a36" opacity="0.12" d="M18 286 C98 246 178 228 258 228 C342 228 430 246 582 286 L582 334 L18 334 Z"/>
  <path fill="#6f705e" d="M0 230 C64 208 128 206 194 218 C260 228 332 228 404 214 C476 202 540 202 600 216 L600 258 C538 272 474 280 406 280 C334 280 264 272 194 264 C128 256 64 256 0 266 Z"/>
  <path fill="#d6c39f" stroke="#6a5440" stroke-width="5" stroke-linejoin="round" d="M82 192 L132 170 L180 188 L228 164 L274 184 L320 160 L366 182 L412 166 L458 188 L506 174 L546 194 L536 214 L494 202 L458 206 L412 192 L366 204 L320 184 L274 202 L228 184 L180 202 L136 186 L92 202 Z"/>
  <g fill="#f2e6cf" stroke="#6a5440" stroke-width="4" stroke-linejoin="round">
    <path d="M112 152 L146 140 L178 152 L178 182 L112 182 Z"/>
    <path d="M216 136 L250 124 L284 138 L284 176 L216 176 Z"/>
    <path d="M324 142 L358 132 L392 144 L392 178 L324 178 Z"/>
    <path d="M430 150 L462 140 L496 152 L496 184 L430 184 Z"/>
  </g>
  <g fill="#c84b3d" opacity="0.64">
    <path d="M130 138 L146 126 L162 138 Z"/>
    <path d="M234 124 L250 112 L266 124 Z"/>
    <path d="M342 130 L358 118 L374 130 Z"/>
    <path d="M446 138 L462 126 L478 138 Z"/>
  </g>
</svg>
