<svg xmlns="http://www.w3.org/2000/svg" viewBox="0 0 600 400">
  <path fill="#43322a" opacity="0.46" d="M0 246 C42 206 90 192 136 194 C174 196 212 212 250 214 C294 216 336 194 378 198 C434 204 480 242 600 252 L600 318 L0 318 Z"/>
  <path fill="#54443a" opacity="0.34" d="M0 270 C64 232 120 224 176 232 C234 240 286 252 344 244 C404 236 458 238 600 282 L600 332 L0 332 Z"/>
  <g fill="#a79280" opacity="0.24">
    <circle cx="102" cy="180" r="30"/>
    <circle cx="128" cy="162" r="26"/>
    <circle cx="152" cy="184" r="24"/>
    <circle cx="294" cy="168" r="32"/>
    <circle cx="324" cy="150" r="28"/>
    <circle cx="352" cy="174" r="26"/>
    <circle cx="466" cy="190" r="30"/>
    <circle cx="494" cy="170" r="26"/>
    <circle cx="522" cy="194" r="24"/>
  </g>
  <g stroke="#342720" stroke-width="6" stroke-linecap="round" opacity="0.45">
    <path d="M92 252 C124 240 152 240 186 252"/>
    <path d="M252 260 C290 246 326 248 364 262"/>
    <path d="M412 270 C448 258 488 260 530 274"/>
  </g>
</svg>