<svg xmlns="http://www.w3.org/2000/svg" width="920" height="900" viewBox="0 0 920 900">
  <!-- ============================================= -->
  <!-- Sakarya Main Path v1                          -->
  <!-- Taarruz yolu - soldan sağa kıvrılan yol       -->
  <!-- Dark war tones, battle path to HQ             -->
  <!-- ============================================= -->
  <!-- Shadow layer -->
  <path d="M460 820 C440 680 420 580 390 490 C360 400 380 320 420 260 C460 200 470 150 460 90" fill="none" stroke="#0a0a0a" stroke-width="86" stroke-linecap="round" stroke-linejoin="round" opacity="0.20"/>
  <!-- Main path - battle-worn earth -->
  <path d="M460 820 C440 680 420 580 390 490 C360 400 380 320 420 260 C460 200 470 150 460 90" fill="none" stroke="#8b7355" stroke-width="58" stroke-linecap="round" stroke-linejoin="round" opacity="0.88"/>
  <!-- Path inner - dark tan -->
  <path d="M460 820 C440 680 420 580 390 490 C360 400 380 320 420 260 C460 200 470 150 460 90" fill="none" stroke="#6b4423" stroke-width="22" stroke-linecap="round" stroke-linejoin="round" opacity="0.30"/>
  <!-- Branch path - left (to battlefield forward positions) -->
  <path d="M390 490 C310 450 220 440 120 490" fill="none" stroke="#0a0a0a" stroke-width="56" stroke-linecap="round" opacity="0.12"/>
  <path d="M390 490 C310 450 220 440 120 490" fill="none" stroke="#8b7355" stroke-width="38" stroke-linecap="round" opacity="0.82"/>
  <path d="M390 490 C310 450 220 440 120 490" fill="none" stroke="#6b4423" stroke-width="14" stroke-linecap="round" opacity="0.22"/>
  <!-- Branch path - right (to HQ / victory point) -->
  <path d="M420 260 C520 240 620 260 710 330" fill="none" stroke="#0a0a0a" stroke-width="56" stroke-linecap="round" opacity="0.12"/>
  <path d="M420 260 C520 240 620 260 710 330" fill="none" stroke="#8b7355" stroke-width="38" stroke-linecap="round" opacity="0.80"/>
  <path d="M420 260 C520 240 620 260 710 330" fill="none" stroke="#6b4423" stroke-width="14" stroke-linecap="round" opacity="0.20"/>
  <!-- Bootprint / march shadow pads -->
  <g fill="#0a0a1a" opacity="0.16">
    <ellipse cx="450" cy="740" rx="30" ry="10"/>
    <ellipse cx="430" cy="620" rx="28" ry="10"/>
    <ellipse cx="400" cy="500" rx="26" ry="9"/>
    <ellipse cx="400" cy="380" rx="28" ry="10"/>
    <ellipse cx="460" cy="280" rx="26" ry="9"/>
    <ellipse cx="515" cy="180" rx="24" ry="8"/>
    <ellipse cx="250" cy="460" rx="22" ry="8"/>
    <ellipse cx="580" cy="290" rx="20" ry="7"/>
  </g>
  <!-- Dark earth dots along path -->
  <g fill="#6b4423" opacity="0.30">
    <circle cx="445" cy="700" r="8"/>
    <circle cx="420" cy="560" r="7"/>
    <circle cx="395" cy="440" r="6"/>
    <circle cx="440" cy="340" r="7"/>
    <circle cx="480" cy="240" r="6"/>
    <circle cx="210" cy="470" r="5"/>
    <circle cx="600" cy="300" r="5"/>
  </g>
  <!-- Battle dust sparkles -->
  <g fill="#d4694a" opacity="0.20">
    <circle cx="435" cy="660" r="5"/>
    <circle cx="410" cy="520" r="4"/>
    <circle cx="420" cy="320" r="5"/>
    <circle cx="480" cy="210" r="4"/>
    <circle cx="170" cy="480" r="3"/>
  </g>
  <!-- Marker pins - deep war red -->
  <g fill="#8b2500" opacity="0.50">
    <circle cx="430" cy="620" r="12" stroke="#1a1a1a" stroke-width="4"/>
    <circle cx="400" cy="380" r="12" stroke="#1a1a1a" stroke-width="4"/>
    <circle cx="250" cy="460" r="10" stroke="#1a1a1a" stroke-width="3"/>
    <circle cx="580" cy="290" r="10" stroke="#1a1a1a" stroke-width="3"/>
  </g>
  <g fill="#d4694a" opacity="0.50">
    <circle cx="430" cy="620" r="5"/>
    <circle cx="400" cy="380" r="5"/>
    <circle cx="250" cy="460" r="4"/>
    <circle cx="580" cy="290" r="4"/>
  </g>
</svg>
