<svg xmlns="http://www.w3.org/2000/svg" width="1080" height="1920" viewBox="0 0 1080 1920">
  <!-- ============================================= -->
  <!-- Sakarya Battle Terrain v1                     -->
  <!-- Dark war tones: #8b7355, #6b4423, #5c3a1e    -->
  <!-- Craters, trenches, rugged battlefield         -->
  <!-- Outline: #3c2a1e stroke-width 12             -->
  <!-- ============================================= -->
  <!-- Deep shadow layer -->
  <path d="M30 1340 C70 1200 190 1100 350 1040 C510 980 690 960 830 1000 C970 1040 1040 1120 1050 1240 C1060 1360 1030 1480 950 1580 C870 1680 710 1740 530 1740 C350 1740 190 1700 110 1600 C30 1500 10 1420 30 1340Z" fill="#2a1a0e" opacity="0.20"/>
  <!-- Base terrain - dark brown battlefield -->
  <path d="M10 1300 C50 1160 170 1060 330 1000 C490 940 670 920 810 960 C950 1000 1020 1080 1030 1200 C1040 1320 1010 1440 930 1540 C850 1640 690 1700 510 1700 C330 1700 170 1660 90 1560 C10 1460 -10 1380 10 1300Z" fill="#6b4423"/>
  <!-- Mid terrain - rugged battle plain -->
  <path d="M70 1220 C110 1100 220 1020 370 964 C520 908 670 896 790 934 C910 972 974 1044 982 1152 C990 1260 964 1372 890 1460 C816 1548 670 1600 510 1600 C350 1600 208 1564 134 1480 C60 1396 42 1316 70 1220Z" fill="#5c3a1e"/>
  <!-- Upper terrain - scorched earth -->
  <path d="M130 1160 C166 1058 266 986 398 938 C530 890 648 882 754 914 C860 946 918 1008 926 1104 C934 1200 910 1304 842 1384 C774 1464 650 1512 510 1512 C370 1512 246 1480 180 1406 C114 1332 98 1260 130 1160Z" fill="#4a2f18"/>
  <!-- Battle scar / crater marks -->
  <g fill="#3a2210" opacity="0.30">
    <ellipse cx="280" cy="1080" rx="40" ry="18"/>
    <ellipse cx="680" cy="1120" rx="52" ry="22"/>
    <ellipse cx="500" cy="1380" rx="46" ry="20"/>
    <ellipse cx="180" cy="1260" rx="32" ry="14"/>
    <ellipse cx="820" cy="1300" rx="38" ry="16"/>
  </g>
  <!-- Crater inner rings -->
  <g fill="none" stroke="#6b4423" stroke-width="4" opacity="0.25">
    <ellipse cx="280" cy="1080" rx="28" ry="12"/>
    <ellipse cx="680" cy="1120" rx="36" ry="15"/>
    <ellipse cx="500" cy="1380" rx="32" ry="14"/>
    <ellipse cx="180" cy="1260" rx="20" ry="9"/>
    <ellipse cx="820" cy="1300" rx="26" ry="11"/>
  </g>
  <!-- Trench lines -->
  <g fill="none" stroke="#3a2210" stroke-width="8" opacity="0.18">
    <path d="M60 1150 C120 1130 200 1140 280 1110"/>
    <path d="M340 1100 C400 1080 480 1090 560 1060"/>
    <path d="M620 1160 C680 1140 760 1150 840 1120"/>
    <path d="M120 1420 C200 1400 300 1410 400 1380"/>
    <path d="M550 1480 C640 1460 740 1470 830 1440"/>
  </g>
  <!-- Scattered battlefield debris dots -->
  <g fill="#3a2a1a" opacity="0.12">
    <circle cx="320" cy="1120" r="6"/>
    <circle cx="560" cy="1080" r="5"/>
    <circle cx="740" cy="1140" r="7"/>
    <circle cx="430" cy="1340" r="5"/>
    <circle cx="650" cy="1400" r="6"/>
    <circle cx="250" cy="1310" r="4"/>
    <circle cx="880" cy="1280" r="5"/>
    <circle cx="380" cy="1200" r="4"/>
  </g>
  <!-- Lower ground extension -->
  <path d="M50 1390 C90 1300 210 1230 360 1180 C510 1130 650 1120 780 1150 C910 1180 980 1240 990 1340 C1000 1440 970 1530 890 1590 C810 1650 660 1690 500 1690 C340 1690 170 1650 90 1570 C10 1490 20 1440 50 1390Z" fill="#5c3a1e"/>
  <!-- Bottom ground -->
  <path d="M90 1520 C170 1420 330 1360 490 1320 C650 1280 770 1300 860 1360 C950 1420 970 1540 890 1640 C810 1740 650 1780 490 1780 C330 1780 170 1740 90 1660 C10 1580 30 1560 90 1520Z" fill="#4a2f18"/>
  <!-- Outline - thick paper cutout style -->
  <path d="M10 1300 C50 1160 170 1060 330 1000 C490 940 670 920 810 960 C950 1000 1020 1080 1030 1200 C1040 1320 1010 1440 930 1540 C850 1640 690 1700 510 1700 C330 1700 170 1660 90 1560 C10 1460 -10 1380 10 1300Z" fill="none" stroke="#3c2a1e" stroke-width="14" stroke-linecap="round" stroke-linejoin="round"/>
  <!-- Red accent dots - battle markers -->
  <g fill="#8b2500" opacity="0.18">
    <circle cx="340" cy="1080" r="8"/>
    <circle cx="680" cy="1100" r="9"/>
    <circle cx="520" cy="1360" r="7"/>
    <circle cx="880" cy="1260" r="6"/>
  </g>
  <!-- Dust motes / haze -->
  <g fill="#8b7355" opacity="0.10">
    <circle cx="400" cy="1240" r="12"/>
    <circle cx="620" cy="1280" r="15"/>
    <circle cx="300" cy="1420" r="10"/>
    <circle cx="750" cy="1440" r="14"/>
  </g>
</svg>
