<svg xmlns="http://www.w3.org/2000/svg" viewBox="0 0 600 400">
  <path fill="#8a5a3a" stroke="#4a2d1d" stroke-width="7" stroke-linejoin="round" d="M92 314 C146 292 192 270 240 236 C286 204 330 176 388 156 C430 142 470 140 520 146 L512 174 C468 170 430 174 394 190 C338 214 294 246 252 276 C206 308 158 332 104 346 Z"/>
  <path fill="#d7b47a" opacity="0.42" d="M116 316 C164 298 208 274 252 242 C296 210 338 184 392 166 C432 152 470 150 508 154 L504 166 C470 164 434 168 398 182 C344 202 302 232 260 264 C216 296 172 320 124 338 Z"/>
  <g fill="#c29b62" stroke="#5c4033" stroke-width="4">
    <rect x="166" y="280" width="42" height="24" rx="6" transform="rotate(-14 187 292)"/>
    <circle cx="172" cy="308" r="8"/>
    <circle cx="202" cy="300" r="8"/>
    <rect x="356" y="182" width="36" height="22" rx="6" transform="rotate(-18 374 193)"/>
    <circle cx="360" cy="210" r="7"/>
    <circle cx="386" cy="202" r="7"/>
  </g>
  <g fill="#f5ecd8" opacity="0.44">
    <circle cx="142" cy="304" r="6"/>
    <circle cx="220" cy="264" r="6"/>
    <circle cx="300" cy="216" r="6"/>
    <circle cx="390" cy="174" r="6"/>
    <circle cx="472" cy="154" r="6"/>
  </g>
</svg>