<svg xmlns="http://www.w3.org/2000/svg" viewBox="0 0 600 400">
  <ellipse cx="300" cy="334" rx="226" ry="18" fill="#1d1613" opacity="0.16"/>
  <path fill="#6a5440" stroke="#45362d" stroke-width="5" stroke-linejoin="round" d="M96 274 C158 254 214 250 270 258 C328 266 388 266 448 256 C490 248 526 248 560 256 L548 286 C512 282 478 284 444 292 C388 304 328 306 270 298 C216 290 158 290 110 296 Z"/>
  <g>
    <path fill="#45362d" d="M154 286 L170 236 L186 286 Z"/>
    <path fill="#f2be63" opacity="0.60" d="M170 214 C180 226 186 238 186 248 C186 260 178 268 170 268 C162 268 154 260 154 248 C154 238 160 226 170 214 Z"/>
    <path fill="#c84b3d" opacity="0.56" d="M170 226 C176 234 180 242 180 248 C180 256 176 262 170 262 C164 262 160 256 160 248 C160 242 164 234 170 226 Z"/>
  </g>
  <g>
    <path fill="#45362d" d="M300 290 L316 240 L332 290 Z"/>
    <path fill="#f2be63" opacity="0.60" d="M316 218 C326 230 332 242 332 252 C332 264 324 272 316 272 C308 272 300 264 300 252 C300 242 306 230 316 218 Z"/>
    <path fill="#c84b3d" opacity="0.56" d="M316 230 C322 238 326 246 326 252 C326 260 322 266 316 266 C310 266 306 260 306 252 C306 246 310 238 316 230 Z"/>
  </g>
  <g>
    <path fill="#45362d" d="M446 286 L462 236 L478 286 Z"/>
    <path fill="#f2be63" opacity="0.60" d="M462 214 C472 226 478 238 478 248 C478 260 470 268 462 268 C454 268 446 260 446 248 C446 238 452 226 462 214 Z"/>
    <path fill="#c84b3d" opacity="0.56" d="M462 226 C468 234 472 242 472 248 C472 256 468 262 462 262 C456 262 452 256 452 248 C452 242 456 234 462 226 Z"/>
  </g>
  <g fill="#c5b19a" opacity="0.28">
    <path d="M168 196 C146 176 146 154 164 140 C194 162 192 194 168 196 Z"/>
    <path d="M316 198 C294 176 294 154 312 140 C342 162 340 196 316 198 Z"/>
    <path d="M462 196 C440 176 440 154 458 140 C488 162 486 194 462 196 Z"/>
  </g>
</svg>
