<svg xmlns="http://www.w3.org/2000/svg" width="260" height="340" viewBox="0 0 260 340">
  <ellipse cx="132" cy="312" rx="76" ry="18" fill="#1a2a3a" opacity=".18"/>
  <path d="M74 132 C70 104 86 74 120 66 C158 56 194 80 196 118 C198 154 172 176 136 178 C102 180 78 162 74 132Z" fill="#2b2730"/>
  <circle cx="134" cy="120" r="58" fill="#d99b72" stroke="#2b2730" stroke-width="8"/>
  <path d="M86 110 C102 74 152 62 186 96 C164 96 148 84 128 90 C110 94 100 108 86 110Z" fill="#2b2730"/>
  <path d="M104 124 Q116 116 128 124" fill="none" stroke="#2b2730" stroke-width="6" stroke-linecap="round"/>
  <path d="M148 124 Q160 116 172 124" fill="none" stroke="#2b2730" stroke-width="6" stroke-linecap="round"/>
  <path d="M124 148 Q138 158 154 148" fill="none" stroke="#7a3f32" stroke-width="5" stroke-linecap="round"/>
  <path d="M70 198 C82 162 112 150 136 152 C168 154 190 174 202 208 L184 282 H84Z" fill="#d6674b" stroke="#2b2730" stroke-width="8" stroke-linejoin="round"/>
  <path d="M112 162 L138 198 L164 162" fill="none" stroke="#f5e8d3" stroke-width="12" stroke-linecap="round" stroke-linejoin="round"/>
  <path d="M82 210 C54 224 44 252 42 284" fill="none" stroke="#d99b72" stroke-width="18" stroke-linecap="round"/>
  <path d="M196 214 C222 230 228 256 226 288" fill="none" stroke="#d99b72" stroke-width="18" stroke-linecap="round"/>
  <path d="M92 282 L82 318" stroke="#355d78" stroke-width="24" stroke-linecap="round"/>
  <path d="M172 282 L182 318" stroke="#355d78" stroke-width="24" stroke-linecap="round"/>
  <path d="M78 318 H112" stroke="#2b2730" stroke-width="12" stroke-linecap="round"/>
  <path d="M164 318 H198" stroke="#2b2730" stroke-width="12" stroke-linecap="round"/>
  <path d="M172 178 C186 196 192 224 190 258" fill="none" stroke="#f0a24a" stroke-width="10" stroke-linecap="round"/>
  <circle cx="190" cy="258" r="12" fill="#f0a24a" stroke="#2b2730" stroke-width="5"/>
  <path d="M84 184 C98 200 120 210 146 210" fill="none" stroke="#f5e8d3" stroke-width="7" opacity=".45" stroke-linecap="round"/>
</svg>
