<svg xmlns="http://www.w3.org/2000/svg" width="260" height="340" viewBox="0 0 260 340">
  <ellipse cx="130" cy="314" rx="80" ry="18" fill="#1a2a3a" opacity=".18"/>
  <path d="M70 126 C72 90 96 64 130 58 C168 52 204 78 204 120 C204 152 180 178 144 184 C104 190 70 166 70 126Z" fill="#2b2730"/>
  <circle cx="132" cy="122" r="56" fill="#d99b72" stroke="#2b2730" stroke-width="8"/>
  <path d="M86 104 C102 74 138 60 172 70 C192 76 208 88 210 108 C188 104 168 90 144 92 C120 94 100 100 86 104Z" fill="#6a402c" stroke="#2b2730" stroke-width="6" stroke-linejoin="round"/>
  <path d="M92 112 C108 104 146 100 180 108 C170 86 148 76 122 80 C102 84 90 96 92 112Z" fill="#2b2730"/>
  <path d="M98 102 C112 96 128 96 142 102" fill="none" stroke="#c78e43" stroke-width="6" stroke-linecap="round"/>
  <circle cx="116" cy="102" r="12" fill="#8f6a4a" stroke="#2b2730" stroke-width="4"/>
  <circle cx="144" cy="100" r="12" fill="#8f6a4a" stroke="#2b2730" stroke-width="4"/>
  <path d="M126 100 H134" stroke="#2b2730" stroke-width="4" stroke-linecap="round"/>
  <path d="M104 126 Q116 118 128 126" fill="none" stroke="#2b2730" stroke-width="6" stroke-linecap="round"/>
  <path d="M146 126 Q158 118 170 126" fill="none" stroke="#2b2730" stroke-width="6" stroke-linecap="round"/>
  <path d="M122 150 Q136 160 152 148" fill="none" stroke="#7a3f32" stroke-width="5" stroke-linecap="round"/>
  <path d="M78 196 C90 166 112 154 138 154 C170 154 194 176 202 214 L186 286 H78Z" fill="#2f5f93" stroke="#2b2730" stroke-width="8" stroke-linejoin="round"/>
  <path d="M116 158 L138 190 L164 158" fill="none" stroke="#f5e8d3" stroke-width="10" stroke-linecap="round" stroke-linejoin="round"/>
  <path d="M112 158 L136 176 L160 158" fill="none" stroke="#c43f34" stroke-width="12" stroke-linecap="round" stroke-linejoin="round"/>
  <path d="M96 164 C102 190 104 220 102 250" fill="none" stroke="#8a5b39" stroke-width="8" stroke-linecap="round"/>
  <path d="M176 166 C172 194 172 222 176 248" fill="none" stroke="#8a5b39" stroke-width="8" stroke-linecap="round"/>
  <path d="M84 214 C58 228 46 252 44 284" fill="none" stroke="#d99b72" stroke-width="18" stroke-linecap="round"/>
  <path d="M194 214 C218 230 226 254 222 284" fill="none" stroke="#d99b72" stroke-width="18" stroke-linecap="round"/>
  <path d="M96 284 L88 318" stroke="#6b6a56" stroke-width="24" stroke-linecap="round"/>
  <path d="M170 284 L178 318" stroke="#6b6a56" stroke-width="24" stroke-linecap="round"/>
  <path d="M78 318 H112" stroke="#bc4238" stroke-width="12" stroke-linecap="round"/>
  <path d="M164 318 H198" stroke="#bc4238" stroke-width="12" stroke-linecap="round"/>
</svg>
