<svg xmlns="http://www.w3.org/2000/svg" width="520" height="520" viewBox="0 0 520 520">
  <rect width="520" height="520" rx="80" fill="#f5e8d3"/>
  <circle cx="260" cy="254" r="206" fill="#f0a24a" opacity=".20"/>
  <path d="M154 214 C146 136 206 88 272 88 C344 88 390 146 382 220 C374 292 326 338 260 338 C194 338 160 286 154 214Z" fill="#2b2730"/>
  <circle cx="264" cy="232" r="118" fill="#d99b72" stroke="#2b2730" stroke-width="14"/>
  <path d="M168 218 C198 130 302 112 366 184 C316 180 292 150 248 162 C210 172 194 208 168 218Z" fill="#2b2730"/>
  <path d="M200 238 Q226 228 250 236" fill="none" stroke="#2b2730" stroke-width="11" stroke-linecap="round"/>
  <path d="M282 236 Q306 226 330 238" fill="none" stroke="#2b2730" stroke-width="11" stroke-linecap="round"/>
  <path d="M240 292 Q270 278 304 292" fill="none" stroke="#7a3f32" stroke-width="9" stroke-linecap="round"/>
  <path d="M132 458 C154 368 202 332 264 332 C330 332 378 372 402 458Z" fill="#d6674b" stroke="#2b2730" stroke-width="14"/>
  <path d="M346 120 C396 96 432 126 418 166 C410 190 384 198 362 188" fill="none" stroke="#f0a24a" stroke-width="16" stroke-linecap="round"/>
  <circle cx="358" cy="222" r="12" fill="#f0a24a"/>
  <text x="260" y="494" text-anchor="middle" font-family="Arial, sans-serif" font-size="34" font-weight="700" fill="#2b2730">ARDA</text>
</svg>
