<svg xmlns="http://www.w3.org/2000/svg" width="520" height="520" viewBox="0 0 520 520">
  <rect width="520" height="520" rx="80" fill="#f5e8d3"/>
  <circle cx="260" cy="254" r="206" fill="#ffd768" opacity=".26"/>
  <path d="M154 214 C146 136 206 88 272 88 C344 88 390 146 382 220 C374 292 326 338 260 338 C194 338 160 286 154 214Z" fill="#2b2730"/>
  <circle cx="264" cy="232" r="118" fill="#d99b72" stroke="#2b2730" stroke-width="14"/>
  <path d="M168 218 C198 130 302 112 366 184 C316 180 292 150 248 162 C210 172 194 208 168 218Z" fill="#2b2730"/>
  <path d="M202 238 Q226 254 250 238" fill="none" stroke="#2b2730" stroke-width="11" stroke-linecap="round"/>
  <path d="M280 238 Q304 254 328 238" fill="none" stroke="#2b2730" stroke-width="11" stroke-linecap="round"/>
  <path d="M226 282 Q264 326 314 282" fill="none" stroke="#7a3f32" stroke-width="12" stroke-linecap="round"/>
  <path d="M132 458 C154 368 202 332 264 332 C330 332 378 372 402 458Z" fill="#d6674b" stroke="#2b2730" stroke-width="14"/>
  <path d="M122 152 L146 176 L122 200 L98 176Z" fill="#ffd768"/>
  <path d="M394 134 L414 154 L394 174 L374 154Z" fill="#ffd768"/>
  <text x="260" y="494" text-anchor="middle" font-family="Arial, sans-serif" font-size="34" font-weight="700" fill="#2b2730">ARDA</text>
</svg>
