<svg xmlns="http://www.w3.org/2000/svg" width="800" height="600" viewBox="0 0 800 600">
  <!-- ============================================= -->
  <!-- Amasya Terrain v1                            -->
  <!-- Deep navy + crimson + olive palette          -->
  <!-- THEME_CONGRESS: bg=navy, accent=crimson       -->
  <!-- ============================================= -->
  <path d="M50 440 C90 340 240 310 400 330 C560 350 700 330 760 400 C790 450 750 530 670 560 C560 590 180 580 100 540 C40 510 20 480 50 440Z" fill="#10202d" opacity="0.18"/>
  <path d="M110 420 C150 340 280 315 410 333 C540 351 640 344 700 394 C730 424 704 482 636 508 C544 536 228 530 164 500 C108 474 86 456 110 420Z" fill="#1a1510" opacity="0.12"/>
  <path d="M60 420 C100 320 250 290 410 310 C570 330 710 310 770 380 C800 430 760 510 680 540 C560 570 190 560 110 520 C50 490 30 460 60 420Z" fill="#7a5a42"/>
  <path d="M120 390 C160 318 290 294 420 312 C550 330 660 322 720 378 C750 412 720 474 654 500 C556 526 240 520 176 490 C114 464 94 440 120 390Z" fill="#4a3a2a"/>
  <path d="M190 406 C230 354 340 336 430 352 C520 368 576 378 622 416 C648 444 626 482 566 504 C476 528 274 522 212 494 C160 472 144 446 190 406Z" fill="#c84b3d" opacity="0.26"/>
  <path d="M260 434 C294 410 358 402 414 414 C470 426 498 434 522 454 C536 470 516 486 478 496 C420 510 328 504 296 484 C272 468 260 452 260 434Z" fill="#f2be63" opacity="0.20"/>
  <path d="M60 420 C100 320 250 290 410 310 C570 330 710 310 770 380 C800 430 760 510 680 540 C560 570 190 560 110 520 C50 490 30 460 60 420Z" fill="none" stroke="#2b2730" stroke-width="14" stroke-linecap="round" stroke-linejoin="round"/>
  <g fill="none" stroke="#f2be63" stroke-width="4" stroke-linecap="round" opacity="0.14">
    <path d="M180 440 C220 424 270 420 320 434"/>
    <path d="M460 440 C500 426 550 422 610 436"/>
  </g>
  <g fill="#f2be63" opacity="0.24">
    <circle cx="180" cy="420" r="8"/>
    <circle cx="610" cy="430" r="10"/>
    <circle cx="410" cy="490" r="6"/>
    <circle cx="320" cy="480" r="5"/>
  </g>
  <g fill="#c84b3d" opacity="0.18">
    <circle cx="260" cy="460" r="5"/>
    <circle cx="530" cy="460" r="5"/>
  </g>
</svg>
