<svg xmlns="http://www.w3.org/2000/svg" width="800" height="600" viewBox="0 0 800 600">
  <path d="M 34 436 C 84 348 224 320 402 332 C 574 344 694 340 756 408 C 784 446 766 524 686 556 C 578 590 234 590 100 548 C 40 526 8 478 34 436 Z" fill="#1a2a3a" opacity="0.18"/>
  <path d="M 50 418 C 106 332 234 300 404 314 C 568 328 686 330 744 392 C 772 426 754 500 680 532 C 576 572 248 570 118 530 C 60 510 28 466 50 418 Z" fill="#7A5A42"/>
  <path d="M 110 430 C 164 370 270 348 406 358 C 530 368 612 382 662 428 C 686 454 668 496 608 520 C 520 552 294 548 176 512 C 126 494 88 460 110 430 Z" fill="#4A3A2A" opacity="0.80"/>
  <path d="M 166 446 C 212 396 304 382 414 392 C 518 400 586 414 626 446 C 646 464 630 494 580 512 C 502 540 322 538 220 508 C 180 496 146 470 166 446 Z" fill="#C84B3D" opacity="0.26"/>
</svg>
