<svg xmlns="http://www.w3.org/2000/svg" width="1600" height="780" viewBox="0 0 1600 780">
  <!-- ============================================= -->
  <!-- Amasya Foreground Frame v1                   -->
  <!-- Mountain silhouettes + classical buildings    -->
  <!-- ============================================= -->
  <path d="M0 540 C200 500 380 540 560 612 C740 688 920 678 1100 612 C1280 542 1440 520 1600 570 V780 H0Z" fill="#1a2a3a" opacity="0.28"/>
  <path d="M0 460 C180 430 320 462 480 520 C640 580 820 576 1000 520 C1160 468 1340 448 1600 480 V780 H0Z" fill="#7a5a42" opacity="0.38"/>
  <!-- Left mountain silhouette -->
  <g fill="#1a2a3a" opacity="0.50">
    <path d="M0 80 C60 120 120 200 140 340 V780 H0Z"/>
    <path d="M0 200 L60 120 L120 180" fill="none" stroke="#1a2a3a" stroke-width="10" stroke-linecap="round" opacity="0.40"/>
  </g>
  <!-- Right mountain silhouette -->
  <g fill="#1a2a3a" opacity="0.46">
    <path d="M1600 70 C1510 110 1430 210 1390 360 V780 H1600Z"/>
    <path d="M1600 180 L1540 120 L1480 170" fill="none" stroke="#1a2a3a" stroke-width="10" stroke-linecap="round" opacity="0.36"/>
  </g>
  <!-- Minaret/tower silhouette -->
  <g fill="#20344f" opacity="0.38">
    <path d="M240 260 L250 120 L270 120 L280 260Z"/>
    <path d="M248 120 L272 120 L272 100 L248 100Z"/>
  </g>
  <g fill="#20344f" opacity="0.34">
    <path d="M1340 270 L1350 140 L1370 140 L1380 270Z"/>
    <path d="M1348 140 L1372 140 L1372 120 L1348 120Z"/>
  </g>
  <g stroke="#5d8f92" stroke-width="12" stroke-linecap="round" opacity="0.46">
    <path d="M120 590 C150 526 180 486 214 450"/>
    <path d="M1468 604 C1438 538 1406 492 1370 450"/>
    <path d="M250 668 C332 628 422 626 512 666"/>
    <path d="M1110 666 C1218 612 1332 620 1464 660"/>
  </g>
  <g fill="#f2be63" opacity="0.28">
    <circle cx="220" cy="604" r="14"/>
    <circle cx="1360" cy="610" r="16"/>
    <circle cx="1240" cy="686" r="10"/>
    <circle cx="380" cy="580" r="9"/>
    <circle cx="1020" cy="640" r="10"/>
    <circle cx="260" cy="280" r="5"/>
    <circle cx="1360" cy="290" r="5"/>
  </g>
</svg>
