<svg xmlns="http://www.w3.org/2000/svg" width="1500" height="760" viewBox="0 0 1500 760">
  <path d="M 0 0 L 1500 0 L 1500 760 L 0 760 Z M 60 50 L 1440 50 L 1440 710 L 60 710 Z" fill="#1a2a3a" opacity="0.18"/>
  <path d="M 0 0 L 1500 0 L 1500 760 L 0 760 Z" fill="#292C39"/>
  <path d="M 0 458 C 150 390 300 404 470 350 C 640 296 810 324 980 280 C 1140 240 1290 250 1500 214 L 1500 760 L 0 760 Z" fill="#1A2A3A" opacity="0.28"/>
  <path d="M 1140 102 C 1170 70 1210 70 1238 104 C 1224 120 1214 136 1210 156 C 1194 176 1164 176 1142 154 C 1154 142 1166 124 1172 102 C 1160 106 1148 106 1140 102 Z" fill="#F2BE63" opacity="0.28"/>
</svg>
