<svg xmlns="http://www.w3.org/2000/svg" width="600" height="400" viewBox="0 0 600 400">
  <path d="M 86 352 C 146 334 224 328 300 328 C 376 328 454 334 514 352 L 514 388 L 86 388 Z" fill="#1a2a3a" opacity="0.18"/>
  <path d="M 120 338 L 480 338 L 480 356 L 120 356 Z M 144 176 L 456 176 L 456 338 L 144 338 Z" fill="#E8DFC8"/>
  <path d="M 132 176 L 300 88 L 468 176 Z" fill="#C84B3D"/>
  <path d="M 182 188 L 214 188 L 214 332 L 182 332 Z M 232 188 L 264 188 L 264 332 L 232 332 Z M 336 188 L 368 188 L 368 332 L 336 332 Z M 386 188 L 418 188 L 418 332 L 386 332 Z" fill="#F2BE63" opacity="0.85"/>
  <path d="M 274 256 L 326 256 L 326 338 L 274 338 Z M 186 228 L 216 228 L 216 262 L 186 262 Z M 384 228 L 414 228 L 414 262 L 384 262 Z" fill="#2B2730" opacity="0.70"/>
</svg>
