<svg xmlns="http://www.w3.org/2000/svg" viewBox="0 0 600 400">
  <path fill="#203246" opacity="0.12" d="M18 286 C92 242 168 224 246 222 C333 220 420 236 582 286 L582 340 L18 340 Z"/>
  <path fill="#7f8d67" d="M0 210 C64 194 120 192 184 202 C254 214 318 214 390 204 C460 194 526 188 600 202 L600 260 C520 272 454 280 386 280 C322 280 250 270 176 262 C112 256 56 256 0 264 Z"/>
  <path fill="#a9b487" d="M0 228 C60 218 122 218 186 230 C256 244 320 244 394 232 C466 220 532 216 600 228 L600 284 C532 292 468 300 398 300 C322 300 254 292 186 284 C122 276 60 276 0 286 Z"/>
  <path fill="#6fb6c4" stroke="#35586a" stroke-width="6" stroke-linejoin="round" d="M36 238 C94 218 150 222 206 244 C262 266 324 270 384 256 C446 242 500 240 564 258 L552 286 C496 270 444 270 390 282 C318 298 250 292 186 270 C132 252 86 248 42 262 Z"/>
  <path fill="#8fcfda" opacity="0.56" d="M74 244 C120 232 158 236 202 252 C258 272 322 278 384 266 C432 258 474 258 522 270 L514 282 C472 272 430 270 388 278 C316 292 252 286 196 266 C150 250 116 248 82 256 Z"/>
  <path fill="#d9c8a4" stroke="#6a5440" stroke-width="5" stroke-linejoin="round" d="M108 184 L180 172 L250 180 L324 168 L404 182 L478 176 L530 188 L522 204 L462 198 L398 204 L326 190 L246 202 L174 192 L112 198 Z"/>
  <path fill="#e7dabc" stroke="#6a5440" stroke-width="4" stroke-linejoin="round" d="M148 154 L210 146 L274 152 L340 144 L408 156 L468 150 L474 164 L414 168 L340 160 L274 166 L208 160 L150 164 Z"/>
  <g fill="#f5ecd8" opacity="0.6">
    <circle cx="164" cy="180" r="4"/>
    <circle cx="236" cy="172" r="5"/>
    <circle cx="314" cy="164" r="4"/>
    <circle cx="404" cy="178" r="5"/>
  </g>
</svg>