<svg xmlns="http://www.w3.org/2000/svg" width="1600" height="780" viewBox="0 0 1600 780">
  <path d="M 0 120 C 54 148 106 228 132 374 L 132 780 L 0 780 Z M 132 374 C 200 316 250 320 296 382 L 296 780 L 132 780 Z" fill="#1A2A3A" opacity="0.90"/>
  <path d="M 1600 108 C 1510 146 1450 238 1412 392 L 1412 780 L 1600 780 Z M 1314 286 L 1334 126 L 1362 126 L 1382 286 Z M 1326 126 L 1370 126 L 1370 102 L 1326 102 Z" fill="#1A2A3A" opacity="0.88"/>
  <path d="M 0 642 C 210 610 442 636 644 694 C 842 752 1070 750 1286 694 C 1412 662 1518 650 1600 656 L 1600 780 L 0 780 Z" fill="#292C39" opacity="0.86"/>
</svg>
