<svg xmlns="http://www.w3.org/2000/svg" width="920" height="900" viewBox="0 0 920 900">
  <path d="M 392 884 C 352 758 364 606 422 476 C 476 358 484 266 454 172 C 438 126 430 88 438 44 L 510 44 C 506 102 510 136 528 188 C 566 294 556 392 494 506 C 434 620 424 760 462 884 Z" fill="#1a2a3a" opacity="0.14"/>
  <path d="M 414 876 C 376 760 390 620 446 494 C 496 380 504 284 476 194 C 464 156 458 120 466 76 L 516 76 C 512 122 518 156 534 204 C 568 300 560 396 504 512 C 448 628 438 760 480 876 Z" fill="#E8DFC8"/>
  <path d="M 448 500 C 360 476 270 492 154 560 L 122 500 C 246 430 360 416 468 446 Z" fill="#E8DFC8" opacity="0.80"/>
  <path d="M 488 474 C 602 444 712 458 818 544 L 780 596 C 686 520 598 500 508 530 Z" fill="#E8DFC8" opacity="0.78"/>
  <path d="M 420 856 C 398 744 410 604 462 490 C 512 380 518 282 490 194 C 476 148 472 114 478 78 L 532 78 C 528 122 536 160 550 206 C 582 306 576 400 522 516 C 468 632 460 748 486 856 Z" fill="#292C39" opacity="0.25"/>
</svg>
