<svg xmlns="http://www.w3.org/2000/svg" viewBox="0 0 520 300">
  <!-- Layer 1: Shadow -->
  <path fill="#2b2730" opacity="0.16" d="M 30 260 L 490 260 Q 500 268 490 275 L 30 275 Q 20 268 30 260 Z"/>
  <!-- Layer 2: Books (stacked book silhouette, left side) -->
  <path fill="#F5E8D3" d="M 40 200 L 40 255 L 180 255 L 180 200 Z M 50 190 L 50 202 L 170 202 L 170 190 Z M 55 178 L 55 192 L 165 192 L 165 178 Z M 60 168 L 60 180 L 160 180 L 160 168 Z M 42 255 L 42 260 L 178 260 L 178 255 Z"/>
  <!-- Layer 3: Inkwell (ink bottle silhouette, center) -->
  <path fill="#2B2730" d="M 230 195 L 225 200 L 220 240 Q 220 255 235 255 L 265 255 Q 280 255 280 240 L 275 200 L 270 195 Z M 235 185 L 235 197 L 265 197 L 265 185 Q 265 178 258 178 L 242 178 Q 235 178 235 185 Z M 245 170 L 245 180 L 255 180 L 255 170 Q 255 165 250 165 Q 245 165 245 170 Z"/>
  <!-- Layer 4: Quill pen (feather quill silhouette, right side) -->
  <path fill="#F2BE63" opacity="0.90" d="M 460 80 Q 480 60 490 50 Q 485 70 475 90 L 380 230 Q 375 240 370 245 L 360 255 Q 365 245 368 235 Z M 460 80 Q 450 95 440 110 L 368 235 Q 375 225 382 215 Z"/>
  <!-- Layer 5: Desk surface accent (wooden desk surface detail) -->
  <path fill="#7A5A42" opacity="0.70" d="M 0 265 L 520 265 L 520 300 L 0 300 Z M 0 265 Q 10 258 30 260 L 490 260 Q 510 258 520 265 Z"/>
</svg>
