<svg xmlns="http://www.w3.org/2000/svg" viewBox="0 0 720 520">
  <!-- Shadow -->
  <path fill="#1a2a3a" opacity="0.20" d="M 80 460 L 80 480 Q 80 490 90 490 L 630 490 Q 640 490 640 480 L 640 460 Q 560 472 360 472 Q 160 472 80 460 Z"/>
  <!-- Bed frame: headboard + footboard + side rails + legs -->
  <path fill="#7A5A42" d="M 100 120 L 100 100 Q 100 80 120 80 L 220 80 Q 240 80 240 100 L 240 120 L 240 440 L 220 440 L 220 460 L 200 460 L 200 440 L 140 440 L 140 460 L 120 460 L 120 440 L 100 440 Z M 480 160 L 480 140 Q 480 130 490 130 L 600 130 Q 610 130 610 140 L 610 160 L 620 160 L 620 440 L 600 440 L 600 460 L 580 460 L 580 440 L 520 440 L 520 460 L 500 460 L 500 440 L 480 440 Z M 240 160 L 480 160 L 480 180 L 240 180 Z M 240 420 L 480 420 L 480 440 L 240 440 Z"/>
  <!-- Bedding / mattress -->
  <path fill="#F5E8D3" d="M 240 180 L 480 180 L 480 420 L 240 420 Z M 100 180 L 240 180 L 240 420 L 100 420 Z M 480 180 L 620 180 L 620 420 L 480 420 Z"/>
  <!-- Pillow -->
  <path fill="#E89863" opacity="0.80" d="M 110 195 Q 110 185 120 185 L 230 185 Q 240 185 240 195 L 240 270 Q 240 280 230 280 L 120 280 Q 110 280 110 270 Z"/>
</svg>
