<svg xmlns="http://www.w3.org/2000/svg" width="520" height="300" viewBox="0 0 520 300">
  <ellipse cx="260" cy="246" rx="196" ry="24" fill="#1a2a3a" opacity=".12"/>
  <g stroke="#7a5a42" stroke-width="6" stroke-linejoin="round">
    <rect x="56" y="126" width="112" height="68" rx="8" fill="#f5e8d3"/>
    <path d="M72 150 H144" stroke="#e89863" stroke-width="7" stroke-linecap="round"/>
    <path d="M74 172 H132" stroke="#47b2c2" stroke-width="7" stroke-linecap="round"/>
    <rect x="194" y="104" width="98" height="88" rx="10" fill="#20344f"/>
    <rect x="210" y="120" width="66" height="42" rx="6" fill="#355d78"/>
    <path d="M316 140 H420 L438 194 H300Z" fill="#f2be63"/>
    <path d="M328 114 H408 L430 142 H306Z" fill="#f5e8d3"/>
  </g>
  <g fill="#ffd768">
    <path d="M138 70 L152 84 L138 98 L124 84Z"/>
    <path d="M394 70 L408 84 L394 98 L380 84Z"/>
  </g>
  <path d="M240 188 H306" stroke="#2b2730" stroke-width="8" stroke-linecap="round"/>
  <circle cx="448" cy="200" r="12" fill="#47b2c2" stroke="#2b2730" stroke-width="5"/>
</svg>
