<svg xmlns="http://www.w3.org/2000/svg" viewBox="0 0 420 340">
  <!-- Layer 1: Shadow -->
  <path fill="#1a2a3a" opacity="0.18" d="M 60 290 C 60 300 100 310 210 310 C 320 310 360 300 360 290 C 360 280 320 272 210 272 C 100 272 60 280 60 290 Z"/>
  <!-- Layer 2: Book body (open book silhouette — two pages) -->
  <path fill="#F5E8D3" d="M 210 80 C 210 80 205 82 200 85 C 170 100 120 110 70 115 C 55 117 45 120 42 128 L 42 270 C 42 278 52 282 70 280 C 125 275 178 264 210 248 C 242 264 295 275 350 280 C 368 282 378 278 378 270 L 378 128 C 375 120 365 117 350 115 C 300 110 250 100 220 85 C 215 82 210 80 210 80 Z M 210 90 L 210 248 M 42 128 C 42 128 42 128 42 128 Z"/>
  <!-- Layer 3: Gold glow (portal golden shimmer) -->
  <path fill="#F2BE63" opacity="0.42" d="M 210 60 C 280 60 340 100 355 155 C 370 210 345 265 290 285 C 270 292 240 296 210 296 C 180 296 150 292 130 285 C 75 265 50 210 65 155 C 80 100 140 60 210 60 Z"/>
  <!-- Layer 4: Blue glow (portal blue shimmer) -->
  <path fill="#47B2C2" opacity="0.35" d="M 210 95 C 260 95 305 120 320 158 C 335 196 318 238 278 256 C 258 265 235 270 210 270 C 185 270 162 265 142 256 C 102 238 85 196 100 158 C 115 120 160 95 210 95 Z"/>
  <!-- Layer 5: Page highlight (optional) -->
  <path fill="#F5E8D3" opacity="0.80" d="M 210 88 C 210 88 215 91 222 95 C 248 108 292 118 338 123 C 350 124 360 127 362 132 L 362 260 C 362 264 355 267 342 266 C 296 262 248 252 218 238 L 210 234 L 210 88 Z"/>
</svg>
