<svg xmlns="http://www.w3.org/2000/svg" width="520" height="760" viewBox="0 0 520 760">
  <ellipse cx="252" cy="698" rx="176" ry="24" fill="#1a2a3a" opacity=".14"/>
  <rect x="80" y="64" width="344" height="594" rx="28" fill="#7a5a42" stroke="#2b2730" stroke-width="10"/>
  <g fill="#5b3f2f">
    <rect x="116" y="184" width="272" height="16" rx="6"/>
    <rect x="116" y="326" width="272" height="16" rx="6"/>
    <rect x="116" y="468" width="272" height="16" rx="6"/>
  </g>
  <g stroke="#2b2730" stroke-width="5" stroke-linejoin="round">
    <rect x="128" y="104" width="34" height="80" rx="5" fill="#d6674b"/>
    <rect x="168" y="92" width="34" height="92" rx="5" fill="#f2be63"/>
    <rect x="210" y="116" width="34" height="68" rx="5" fill="#47b2c2"/>
    <rect x="270" y="102" width="72" height="70" rx="8" fill="#f5e8d3"/>
    <rect x="132" y="238" width="92" height="68" rx="8" fill="#f5e8d3"/>
    <rect x="246" y="218" width="34" height="90" rx="5" fill="#438a87"/>
    <rect x="288" y="230" width="34" height="78" rx="5" fill="#e89863"/>
    <rect x="330" y="246" width="34" height="62" rx="5" fill="#f2be63"/>
    <rect x="142" y="380" width="34" height="76" rx="5" fill="#47b2c2"/>
    <rect x="184" y="366" width="34" height="90" rx="5" fill="#d6674b"/>
    <rect x="236" y="382" width="118" height="58" rx="10" fill="#f5e8d3"/>
    <rect x="132" y="518" width="74" height="90" rx="8" fill="#f2be63"/>
    <rect x="226" y="518" width="34" height="90" rx="5" fill="#438a87"/>
    <rect x="268" y="532" width="34" height="76" rx="5" fill="#e89863"/>
    <rect x="318" y="516" width="50" height="92" rx="7" fill="#f5e8d3"/>
  </g>
  <g fill="#fff8d9" opacity=".40">
    <circle cx="356" cy="130" r="10"/>
    <circle cx="184" cy="270" r="9"/>
    <circle cx="336" cy="414" r="8"/>
    <circle cx="158" cy="562" r="8"/>
  </g>
</svg>
