<svg xmlns="http://www.w3.org/2000/svg" viewBox="0 0 520 760">
  <!-- Shadow -->
  <path fill="#1a2a3a" opacity="0.20" d="M 30 40 L 490 40 L 510 760 L 10 760 Z"/>
  <!-- Shelf body: walnut wooden bookshelf frame and shelves -->
  <path fill="#7A5A42" d="
    M 60 30 L 460 30 L 460 740 L 420 740 L 420 60 L 100 60 L 100 740 L 60 740 Z
    M 60 240 L 460 240 L 460 270 L 60 270 Z
    M 60 450 L 460 450 L 460 480 L 60 480 Z
    M 60 660 L 460 660 L 460 690 L 60 690 Z
    M 60 30 L 460 30 L 460 60 L 60 60 Z
    M 60 710 L 460 710 L 460 740 L 60 740 Z
  "/>
  <!-- Books: cream book spine silhouettes on shelves using multi-subpath -->
  <path fill="#F5E8D3" d="
    M 110 80 L 140 80 L 140 238 L 110 238 Z
    M 148 80 L 172 80 L 172 238 L 148 238 Z
    M 180 80 L 210 80 L 210 238 L 180 238 Z
    M 218 80 L 238 80 L 238 238 L 218 238 Z
    M 246 80 L 280 80 L 280 238 L 246 238 Z
    M 288 80 L 308 80 L 308 238 L 288 238 Z
    M 316 80 L 350 80 L 350 238 L 316 238 Z
    M 358 80 L 378 80 L 378 238 L 358 238 Z
    M 386 80 L 418 80 L 418 238 L 386 238 Z
    M 110 290 L 145 290 L 145 448 L 110 448 Z
    M 153 290 L 178 290 L 178 448 L 153 448 Z
    M 186 290 L 220 290 L 220 448 L 186 448 Z
    M 228 290 L 252 290 L 252 448 L 228 448 Z
    M 260 290 L 295 290 L 295 448 L 260 448 Z
    M 303 290 L 325 290 L 325 448 L 303 448 Z
    M 333 290 L 368 290 L 368 448 L 333 448 Z
    M 376 290 L 418 290 L 418 448 L 376 448 Z
    M 110 500 L 148 500 L 148 658 L 110 658 Z
    M 156 500 L 182 500 L 182 658 L 156 658 Z
    M 190 500 L 225 500 L 225 658 L 190 658 Z
    M 233 500 L 258 500 L 258 658 L 233 658 Z
    M 266 500 L 300 500 L 300 658 L 266 658 Z
    M 308 500 L 332 500 L 332 658 L 308 658 Z
    M 340 500 L 375 500 L 375 658 L 340 658 Z
    M 383 500 L 418 500 L 418 658 L 383 658 Z
  "/>
  <!-- Accent book: highlighted gold book on middle shelf -->
  <path fill="#F2BE63" opacity="0.85" d="
    M 246 290 L 258 290 L 258 448 L 246 448 Z
  "/>
</svg>
