<svg xmlns="http://www.w3.org/2000/svg" viewBox="0 0 800 600">
  <path fill="#1a2a3a" opacity="0.14" d="M 60 520 C 20 510 10 490 15 460 C 20 430 30 400 50 380 C 70 360 100 350 140 345 C 180 340 230 342 280 340 C 330 338 380 332 430 330 C 480 328 530 330 580 335 C 630 340 670 350 700 365 C 730 380 750 400 760 425 C 770 450 765 475 750 495 C 735 515 710 528 680 535 C 650 542 610 545 570 548 C 530 551 490 552 450 553 C 410 554 370 554 330 553 C 290 552 250 550 210 547 C 170 544 130 538 100 530 Z"/>
  <path fill="#E89863" d="M 80 510 C 45 498 30 475 35 448 C 40 421 55 398 80 378 C 105 358 140 346 185 340 C 230 334 280 336 330 334 C 380 332 430 326 480 324 C 530 322 578 325 622 332 C 666 339 702 352 728 370 C 754 388 768 412 770 438 C 772 464 762 488 744 506 C 726 524 700 534 668 540 C 636 546 598 548 560 550 C 522 552 484 552 446 552 C 408 552 370 551 332 549 C 294 547 256 544 220 540 C 184 536 148 530 120 522 Z"/>
  <path fill="#F2BE63" opacity="0.30" d="M 280 380 C 310 365 345 358 385 356 C 425 354 462 360 492 372 C 522 384 542 402 548 422 C 554 442 546 462 528 476 C 510 490 484 498 454 502 C 424 506 390 506 360 502 C 330 498 304 490 286 476 C 268 462 260 444 262 426 C 264 408 272 392 280 380 Z"/>
</svg>
