<svg xmlns="http://www.w3.org/2000/svg" width="1500" height="780" viewBox="0 0 1500 780">
  <rect width="1500" height="780" fill="#20344f" opacity=".10"/>
  <g opacity=".34">
    <path d="M0 560 H1500" stroke="#f5e8d3" stroke-width="8"/>
    <path d="M124 122 H1376" stroke="#f5e8d3" stroke-width="5" opacity=".35"/>
    <path d="M124 252 H1376" stroke="#f5e8d3" stroke-width="5" opacity=".24"/>
    <path d="M124 382 H1376" stroke="#f5e8d3" stroke-width="5" opacity=".18"/>
  </g>
  <g transform="translate(1020 100)">
    <ellipse cx="180" cy="238" rx="210" ry="50" fill="#1a2a3a" opacity=".18"/>
    <rect x="42" y="38" width="276" height="220" rx="28" fill="#1a2a3a" stroke="#7a5a42" stroke-width="12"/>
    <rect x="72" y="68" width="216" height="160" rx="18" fill="#355d78"/>
    <path d="M180 68 V228" stroke="#f5e8d3" stroke-width="8" opacity=".48"/>
    <path d="M72 148 H288" stroke="#f5e8d3" stroke-width="8" opacity=".48"/>
    <circle cx="246" cy="100" r="34" fill="#f2be63" opacity=".76"/>
    <path d="M86 204 C132 172 208 180 276 134" fill="none" stroke="#9dd3c8" stroke-width="12" stroke-linecap="round" opacity=".42"/>
    <path d="M16 22 H76 V276 H16Z" fill="#2b2730" opacity=".48"/>
    <path d="M284 22 H344 V276 H284Z" fill="#2b2730" opacity=".48"/>
  </g>
  <g transform="translate(132 180)">
    <rect width="320" height="340" rx="24" fill="#1a2a3a" opacity=".26"/>
    <g stroke="#7a5a42" stroke-width="8" stroke-linejoin="round">
      <path d="M32 54 H116 V132 H32Z" fill="#f5e8d3"/>
      <path d="M136 46 H226 V132 H136Z" fill="#e89863"/>
      <path d="M52 158 H162 V236 H52Z" fill="#47b2c2"/>
      <path d="M186 150 H272 V236 H186Z" fill="#f2be63"/>
    </g>
    <path d="M34 284 H282" stroke="#f5e8d3" stroke-width="12" stroke-linecap="round" opacity=".35"/>
  </g>
</svg>
