<svg xmlns="http://www.w3.org/2000/svg" viewBox="0 0 720 520">
  <!-- Layer 1: Shadow under desk -->
  <path fill="#1a2a3a" opacity="0.18" d="M 90 430 C 90 418 100 410 112 410 L 608 410 C 620 410 630 418 630 430 L 630 455 C 630 467 620 475 608 475 L 112 475 C 100 475 90 467 90 455 Z"/>
  <!-- Layer 2: Desk — wide horizontal walnut shape with two legs -->
  <path fill="#7A5A42" d="M 55 355 L 665 355 L 665 398 L 625 398 L 625 462 L 585 462 L 585 398 L 135 398 L 135 462 L 95 462 L 95 398 L 55 398 Z"/>
  <!-- Layer 3: Lamp — base + vertical arm + angled shade -->
  <path fill="#2B2730" d="M 518 355 L 562 355 L 562 368 L 550 368 L 550 205 L 558 205 L 535 155 L 512 205 L 530 205 L 530 368 L 518 368 Z"/>
  <!-- Layer 4: Lamp glow — golden elliptical halo around lamp shade -->
  <path fill="#F2BE63" opacity="0.55" d="M 535 120 C 595 120 645 140 645 165 C 645 190 595 210 535 210 C 475 210 425 190 425 165 C 425 140 475 120 535 120 Z"/>
</svg>
