<svg xmlns="http://www.w3.org/2000/svg" width="1600" height="780" viewBox="0 0 1600 780">
  <path d="M0 130 C120 90 240 112 340 170 V780 H0Z" fill="#1a2a3a" opacity=".72"/>
  <path d="M1600 86 C1460 102 1360 134 1264 190 V780 H1600Z" fill="#1a2a3a" opacity=".68"/>
  <path d="M0 582 C242 516 414 548 584 626 C726 692 902 698 1066 626 C1220 558 1390 540 1600 594 V780 H0Z" fill="#7a5a42" opacity=".62"/>
  <path d="M86 608 C310 566 462 598 628 658" fill="none" stroke="#f5e8d3" stroke-width="16" stroke-linecap="round" opacity=".18"/>
  <path d="M1014 660 C1180 592 1328 576 1510 612" fill="none" stroke="#f5e8d3" stroke-width="16" stroke-linecap="round" opacity=".16"/>
  <g fill="#f2be63" opacity=".36">
    <circle cx="102" cy="188" r="16"/>
    <circle cx="1462" cy="172" r="18"/>
    <circle cx="1330" cy="612" r="14"/>
    <circle cx="250" cy="632" r="12"/>
  </g>
</svg>
