<svg xmlns="http://www.w3.org/2000/svg" width="720" height="520" viewBox="0 0 720 520">
  <ellipse cx="336" cy="430" rx="258" ry="38" fill="#1a2a3a" opacity=".16"/>
  <g stroke="#2b2730" stroke-width="9" stroke-linejoin="round">
    <path d="M84 166 C92 120 134 96 190 106 L480 158 C566 174 612 220 602 288 L586 390 H92Z" fill="#7a5a42"/>
    <path d="M132 176 C146 138 182 126 228 136 L478 182 C536 194 566 228 558 276 L546 348 H126Z" fill="#f5e8d3"/>
    <path d="M124 278 H562 L546 388 H98Z" fill="#e89863"/>
    <path d="M142 212 C190 188 260 196 308 232 C276 268 196 272 136 246Z" fill="#9dd3c8"/>
    <path d="M318 232 C386 204 490 216 548 258 L534 326 C456 294 382 290 306 318Z" fill="#f2be63"/>
  </g>
  <g fill="#fff8d9" opacity=".50">
    <circle cx="180" cy="218" r="10"/>
    <circle cx="252" cy="228" r="8"/>
    <circle cx="438" cy="256" r="9"/>
    <circle cx="500" cy="282" r="8"/>
  </g>
  <path d="M138 386 V448" stroke="#5b3f2f" stroke-width="18" stroke-linecap="round"/>
  <path d="M548 386 V448" stroke="#5b3f2f" stroke-width="18" stroke-linecap="round"/>
</svg>
