<svg xmlns="http://www.w3.org/2000/svg" width="900" height="420" viewBox="0 0 900 420">
  <g stroke="#7a5a42" stroke-width="8" stroke-linejoin="round">
    <rect x="82" y="66" width="194" height="142" rx="18" fill="#f5e8d3"/>
    <path d="M112 168 C146 122 188 126 246 92 V178 H112Z" fill="#355d78" opacity=".72"/>
    <circle cx="226" cy="104" r="20" fill="#f2be63"/>
    <rect x="350" y="42" width="222" height="164" rx="20" fill="#f5e8d3"/>
    <path d="M382 156 C420 112 478 116 540 78 V170 H382Z" fill="#47b2c2" opacity=".66"/>
    <path d="M430 112 L462 82 L496 114 L530 70" fill="none" stroke="#c9473d" stroke-width="9" stroke-linecap="round"/>
    <rect x="636" y="78" width="178" height="126" rx="18" fill="#f5e8d3"/>
    <path d="M668 164 C704 122 746 130 784 96" fill="none" stroke="#438a87" stroke-width="10" stroke-linecap="round"/>
  </g>
  <g fill="#1a2a3a" opacity=".16">
    <ellipse cx="178" cy="234" rx="132" ry="16"/>
    <ellipse cx="462" cy="232" rx="150" ry="18"/>
    <ellipse cx="724" cy="226" rx="120" ry="14"/>
  </g>
  <path d="M128 286 H772" stroke="#f5e8d3" stroke-width="10" stroke-linecap="round" opacity=".22"/>
  <g fill="#ffd768" opacity=".80">
    <path d="M300 88 L314 102 L300 116 L286 102Z"/>
    <path d="M610 118 L624 132 L610 146 L596 132Z"/>
    <path d="M828 150 L840 162 L828 174 L816 162Z"/>
  </g>
</svg>
