<svg xmlns="http://www.w3.org/2000/svg" viewBox="0 0 1600 780">
  <!-- Left silhouette: dark bookshelf/curtain foreground -->
  <path fill="#2B2730" opacity="0.92"
    d="M0 0
       C40 0 80 10 100 30
       C120 50 115 80 118 120
       C121 160 130 190 125 240
       C120 290 110 310 115 360
       C120 410 135 430 130 480
       C125 530 112 550 118 600
       C124 650 140 670 135 720
       C130 750 110 765 100 780
       L0 780
       Z" />
  <!-- Right silhouette: dark navy wall corner foreground -->
  <path fill="#20344F" opacity="0.90"
    d="M1600 0
       C1560 0 1520 10 1500 30
       C1480 50 1485 80 1482 120
       C1479 160 1470 190 1475 240
       C1480 290 1490 310 1485 360
       C1480 410 1465 430 1470 480
       C1475 530 1488 550 1482 600
       C1476 650 1460 670 1465 720
       C1470 750 1490 765 1500 780
       L1600 780
       Z" />
  <!-- Top band: optional top edge darkening -->
  <path fill="#2B2730" opacity="0.88"
    d="M0 0
       L1600 0
       L1600 60
       C1400 80 1200 70 1000 75
       C800 80 600 72 400 78
       C200 84 100 68 0 72
       Z" />
</svg>
