<svg xmlns="http://www.w3.org/2000/svg" width="980" height="560" viewBox="0 0 980 560">
  <ellipse cx="492" cy="284" rx="408" ry="154" fill="#1a2a3a" opacity=".10"/>
  <path d="M132 172 C250 96 718 96 850 178 C910 216 884 336 804 384 C662 470 304 466 166 378 C84 326 74 214 132 172Z" fill="#f5e8d3" stroke="#7a5a42" stroke-width="12"/>
  <path d="M220 208 C326 154 654 154 756 210 C812 240 794 314 730 344 C592 410 382 408 244 344 C178 314 166 238 220 208Z" fill="#e89863" opacity=".78"/>
  <path d="M306 244 C390 208 590 208 676 246 C714 264 708 304 666 322 C564 368 412 366 312 322 C270 304 266 264 306 244Z" fill="#47b2c2" opacity=".62"/>
  <g stroke="#fff8d9" stroke-width="10" stroke-linecap="round" opacity=".46">
    <path d="M182 260 H254"/>
    <path d="M724 260 H798"/>
    <path d="M432 174 H548"/>
    <path d="M418 388 H560"/>
  </g>
</svg>
