<svg xmlns="http://www.w3.org/2000/svg" viewBox="0 0 900 420">
  <!-- Layer 1: Shadow -->
  <path fill="#2b2730" opacity="0.16" d="M 80 130 L 310 130 L 310 360 L 80 360 Z M 340 100 L 570 100 L 570 370 L 340 370 Z M 600 160 L 780 160 L 780 340 L 600 340 Z"/>
  <!-- Layer 2: Frame 1 (left) -->
  <path fill="#7A5A42" d="M 80 130 L 310 130 L 310 360 L 80 360 Z M 100 150 L 290 150 L 290 340 L 100 340 Z"/>
  <!-- Layer 3: Frame 2 (center) -->
  <path fill="#2B2730" d="M 340 100 L 570 100 L 570 370 L 340 370 Z M 362 122 L 548 122 L 548 348 L 362 348 Z"/>
  <!-- Layer 4: Frame 3 (right, optional) -->
  <path fill="#7A5A42" opacity="0.80" d="M 600 160 L 780 160 L 780 340 L 600 340 Z M 618 178 L 762 178 L 762 322 L 618 322 Z"/>
</svg>
