<svg xmlns="http://www.w3.org/2000/svg" viewBox="0 0 980 560">
  <!-- Layer 1: Shadow -->
  <path fill="#1a2a3a" opacity="0.14" d="M 490 530 C 280 530 80 500 60 470 C 40 440 40 420 60 400 C 80 380 280 350 490 350 C 700 350 900 380 920 400 C 940 420 940 440 920 470 C 900 500 700 530 490 530 Z"/>
  <!-- Layer 2: Rug body -->
  <path fill="#E89863" d="M 490 510 C 270 510 60 478 40 448 C 20 418 20 398 40 368 C 60 338 270 306 490 306 C 710 306 920 338 940 368 C 960 398 960 418 940 448 C 920 478 710 510 490 510 Z"/>
  <!-- Layer 3: Inner pattern (smaller oval) -->
  <path fill="#7A5A42" opacity="0.65" d="M 490 470 C 320 470 140 448 122 428 C 104 408 104 392 122 372 C 140 352 320 330 490 330 C 660 330 840 352 858 372 C 876 392 876 408 858 428 C 840 448 660 470 490 470 Z"/>
  <!-- Layer 4: Border strip -->
  <path fill="#F2BE63" opacity="0.70" d="M 490 510 C 270 510 60 478 40 448 C 20 418 20 398 40 368 C 60 338 270 306 490 306 C 710 306 920 338 940 368 C 960 398 960 418 940 448 C 920 478 710 510 490 510 Z M 490 490 C 282 490 82 460 64 432 C 46 404 46 412 64 384 C 82 356 282 326 490 326 C 698 326 898 356 916 384 C 934 412 934 404 916 432 C 898 460 698 490 490 490 Z"/>
</svg>
