<svg xmlns="http://www.w3.org/2000/svg" width="260" height="340" viewBox="0 0 260 340">
  <ellipse cx="130" cy="312" rx="76" ry="18" fill="#1a2a3a" opacity=".18"/>
  <path d="M66 126 C66 78 102 52 138 56 C178 60 202 92 198 138 C194 184 166 204 130 204 C94 204 66 174 66 126Z" fill="#2b2730"/>
  <circle cx="132" cy="120" r="56" fill="#d99b72" stroke="#2b2730" stroke-width="8"/>
  <path d="M82 116 C104 94 146 86 184 102 C174 76 138 66 108 76 C90 82 80 96 82 116Z" fill="#2b2730"/>
  <path d="M96 124 Q110 116 124 124" fill="none" stroke="#2b2730" stroke-width="6" stroke-linecap="round"/>
  <path d="M146 124 Q160 116 174 124" fill="none" stroke="#2b2730" stroke-width="6" stroke-linecap="round"/>
  <path d="M122 148 Q136 158 152 148" fill="none" stroke="#7a3f32" stroke-width="5" stroke-linecap="round"/>
  <path d="M72 204 C84 166 110 150 138 152 C168 154 190 176 198 212 L178 284 H82Z" fill="#438a87" stroke="#2b2730" stroke-width="8" stroke-linejoin="round"/>
  <path d="M104 162 L132 198 L162 162" fill="none" stroke="#f5e8d3" stroke-width="12" stroke-linecap="round" stroke-linejoin="round"/>
  <path d="M80 214 C54 236 50 262 54 286" fill="none" stroke="#d99b72" stroke-width="18" stroke-linecap="round"/>
  <path d="M194 216 C216 238 218 264 210 288" fill="none" stroke="#d99b72" stroke-width="18" stroke-linecap="round"/>
  <path d="M94 284 L86 318" stroke="#355d78" stroke-width="24" stroke-linecap="round"/>
  <path d="M166 284 L174 318" stroke="#355d78" stroke-width="24" stroke-linecap="round"/>
  <path d="M76 318 H110" stroke="#2b2730" stroke-width="12" stroke-linecap="round"/>
  <path d="M158 318 H192" stroke="#2b2730" stroke-width="12" stroke-linecap="round"/>
  <path d="M84 178 C112 194 154 194 186 176" fill="none" stroke="#9dd3c8" stroke-width="8" stroke-linecap="round"/>
  <path d="M166 188 L192 254" stroke="#f2be63" stroke-width="10" stroke-linecap="round"/>
  <circle cx="194" cy="258" r="12" fill="#f2be63" stroke="#2b2730" stroke-width="5"/>
</svg>
