<svg xmlns="http://www.w3.org/2000/svg" width="260" height="340" viewBox="0 0 260 340">
  <ellipse cx="130" cy="314" rx="76" ry="18" fill="#1a2a3a" opacity=".18"/>
  <path d="M68 128 C68 92 88 68 116 60 C154 50 194 74 198 118 C202 154 178 182 144 190 C102 198 68 170 68 128Z" fill="#2b2730"/>
  <circle cx="130" cy="122" r="56" fill="#d99b72" stroke="#2b2730" stroke-width="8"/>
  <path d="M84 112 C96 88 126 74 156 80 C178 84 194 96 200 118 C176 106 158 100 140 100 C118 100 100 104 84 112Z" fill="#4a2d24" stroke="#2b2730" stroke-width="6" stroke-linejoin="round"/>
  <path d="M90 96 C104 88 118 84 132 84 C148 84 162 88 176 98" fill="none" stroke="#b95a4d" stroke-width="8" stroke-linecap="round"/>
  <path d="M98 124 Q110 116 122 124" fill="none" stroke="#2b2730" stroke-width="6" stroke-linecap="round"/>
  <path d="M140 124 Q152 116 164 124" fill="none" stroke="#2b2730" stroke-width="6" stroke-linecap="round"/>
  <path d="M120 150 Q132 158 146 150" fill="none" stroke="#7a3f32" stroke-width="5" stroke-linecap="round"/>
  <path d="M76 198 C88 166 110 154 136 154 C166 154 190 176 196 212 L182 286 H82Z" fill="#d9c6a3" stroke="#2b2730" stroke-width="8" stroke-linejoin="round"/>
  <path d="M100 162 L132 198 L164 162" fill="none" stroke="#f5e8d3" stroke-width="10" stroke-linecap="round" stroke-linejoin="round"/>
  <path d="M98 166 C112 178 152 178 166 166" fill="none" stroke="#a4513a" stroke-width="10" stroke-linecap="round"/>
  <path d="M100 160 C108 188 110 214 108 246" fill="none" stroke="#80583b" stroke-width="8" stroke-linecap="round"/>
  <path d="M152 166 C172 182 184 206 186 232" fill="none" stroke="#80583b" stroke-width="8" stroke-linecap="round"/>
  <path d="M168 228 L192 228 L188 258 L164 258Z" fill="#8f5f36" stroke="#2b2730" stroke-width="5" stroke-linejoin="round"/>
  <path d="M80 214 C60 234 54 256 56 286" fill="none" stroke="#d99b72" stroke-width="18" stroke-linecap="round"/>
  <path d="M190 214 C210 232 214 256 208 286" fill="none" stroke="#d99b72" stroke-width="18" stroke-linecap="round"/>
  <path d="M94 286 L88 318" stroke="#5f6f8d" stroke-width="24" stroke-linecap="round"/>
  <path d="M162 286 L168 318" stroke="#5f6f8d" stroke-width="24" stroke-linecap="round"/>
  <path d="M76 318 H108" stroke="#253654" stroke-width="12" stroke-linecap="round"/>
  <path d="M154 318 H186" stroke="#253654" stroke-width="12" stroke-linecap="round"/>
</svg>
