<svg xmlns="http://www.w3.org/2000/svg" width="520" height="520" viewBox="0 0 520 520">
  <rect width="520" height="520" rx="80" fill="#f5e8d3"/>
  <circle cx="260" cy="254" r="206" fill="#438a87" opacity=".18"/>
  <path d="M150 214 C148 132 208 84 270 88 C342 92 386 148 378 226 C370 302 322 350 258 350 C194 350 152 294 150 214Z" fill="#2b2730"/>
  <circle cx="262" cy="230" r="116" fill="#d99b72" stroke="#2b2730" stroke-width="14"/>
  <path d="M166 214 C206 142 306 124 360 182 C324 176 292 154 250 164 C212 174 190 202 166 214Z" fill="#2b2730"/>
  <path d="M198 242 Q226 226 252 242" fill="none" stroke="#2b2730" stroke-width="11" stroke-linecap="round"/>
  <path d="M280 242 Q306 226 334 242" fill="none" stroke="#2b2730" stroke-width="11" stroke-linecap="round"/>
  <path d="M234 286 Q266 306 304 286" fill="none" stroke="#7a3f32" stroke-width="10" stroke-linecap="round"/>
  <path d="M130 458 C156 366 202 332 264 332 C330 332 376 372 404 458Z" fill="#438a87" stroke="#2b2730" stroke-width="14"/>
  <path d="M202 350 L264 414 L326 350" fill="none" stroke="#f5e8d3" stroke-width="20" stroke-linecap="round" stroke-linejoin="round"/>
  <text x="260" y="494" text-anchor="middle" font-family="Arial, sans-serif" font-size="34" font-weight="700" fill="#2b2730">EDA</text>
</svg>
