<svg xmlns="http://www.w3.org/2000/svg" width="520" height="520" viewBox="0 0 520 520">
  <rect width="520" height="520" rx="80" fill="#f5e8d3"/>
  <circle cx="260" cy="252" r="204" fill="#74a8d7" opacity=".20"/>
  <path d="M150 214 C152 138 204 88 272 88 C344 88 386 146 380 226 C374 302 326 348 260 348 C196 348 148 292 150 214Z" fill="#2b2730"/>
  <circle cx="262" cy="232" r="116" fill="#d99b72" stroke="#2b2730" stroke-width="14"/>
  <path d="M170 194 C182 134 236 104 292 108 C330 110 362 130 378 164 C350 154 326 144 294 144 C246 144 204 162 170 194Z" fill="#4a2d24" stroke="#2b2730" stroke-width="10" stroke-linejoin="round"/>
  <path d="M180 152 C202 126 228 114 262 114 C298 114 326 126 348 150" fill="none" stroke="#a4513a" stroke-width="14" stroke-linecap="round"/>
  <path d="M194 240 Q224 222 250 234" fill="none" stroke="#2b2730" stroke-width="11" stroke-linecap="round"/>
  <path d="M282 238 Q304 228 328 248" fill="none" stroke="#2b2730" stroke-width="11" stroke-linecap="round"/>
  <path d="M238 292 Q264 280 294 290" fill="none" stroke="#7a3f32" stroke-width="10" stroke-linecap="round"/>
  <path d="M128 462 C154 366 202 332 264 332 C330 332 376 372 404 462Z" fill="#d9c6a3" stroke="#2b2730" stroke-width="14"/>
  <path d="M204 350 L264 414 L324 350" fill="none" stroke="#f5e8d3" stroke-width="18" stroke-linecap="round" stroke-linejoin="round"/>
  <path d="M200 350 C220 366 244 372 264 372 C286 372 308 366 328 350" fill="none" stroke="#a4513a" stroke-width="18" stroke-linecap="round"/>
  <path d="M200 344 C212 382 214 418 212 446" fill="none" stroke="#80583b" stroke-width="10" stroke-linecap="round"/>
  <path d="M320 344 C306 382 304 416 306 446" fill="none" stroke="#80583b" stroke-width="10" stroke-linecap="round"/>
  <path d="M314 356 L362 356 L356 430 L308 430Z" fill="#8f5f36" stroke="#2b2730" stroke-width="8" stroke-linejoin="round"/>
  <path d="M320 370 L350 370" stroke="#f5e8d3" stroke-width="6" stroke-linecap="round"/>
  <path d="M340 304 C360 292 386 300 398 320 C410 338 406 364 388 378 C370 392 344 388 330 370 C316 352 320 320 340 304Z" fill="#74a8d7" stroke="#2b2730" stroke-width="10"/>
  <path d="M348 344 L368 344" stroke="#2b2730" stroke-width="10" stroke-linecap="round"/>
  <path d="M378 344 L390 344" stroke="#2b2730" stroke-width="10" stroke-linecap="round"/>
</svg>
