<svg xmlns="http://www.w3.org/2000/svg" viewBox="0 0 600 400">
  <path fill="#2a2018" opacity="0.18" d="M0 346 C74 322 144 318 220 324 C300 332 376 348 452 352 C510 356 560 354 600 346 V400 H0 Z"/>
  <path fill="#4e3422" d="M54 332 H546 V366 H54 Z"/>
  <rect x="70" y="314" width="110" height="22" rx="6" fill="#c89d4f" opacity="0.72"/>
  <rect x="420" y="314" width="110" height="22" rx="6" fill="#c89d4f" opacity="0.72"/>
  <g fill="#2f2622" opacity="0.82">
    <path d="M94 336 C94 304 112 286 136 286 C158 286 176 304 176 336 V396 H160 V352 H144 V396 H128 V352 H110 V396 H94 Z"/>
    <path d="M196 338 C196 302 216 280 242 280 C266 280 286 302 286 338 V398 H268 V352 H252 V398 H236 V352 H214 V398 H196 Z"/>
    <path d="M314 338 C314 302 334 280 360 280 C384 280 404 302 404 338 V398 H386 V352 H370 V398 H354 V352 H332 V398 H314 Z"/>
    <path d="M432 336 C432 304 450 286 474 286 C496 286 514 304 514 336 V396 H498 V352 H482 V396 H466 V352 H448 V396 H432 Z"/>
  </g>
  <g fill="#89a05b" opacity="0.48">
    <path d="M244 300 C230 280 228 254 236 232 C264 248 276 276 272 300 Z"/>
    <path d="M356 300 C370 280 372 254 364 232 C336 248 324 276 328 300 Z"/>
  </g>
</svg>
