<svg xmlns="http://www.w3.org/2000/svg" viewBox="0 0 600 400">
  <ellipse cx="302" cy="330" rx="224" ry="18" fill="#201c22" opacity="0.16"/>
  <path fill="#2b2730" opacity="0.36" d="M108 316 C108 292 122 278 140 278 C156 278 170 292 170 316 L170 346 L158 346 L158 326 L146 326 L146 346 L132 346 L132 326 L120 326 L120 346 L108 346 Z M188 316 C188 292 202 278 220 278 C236 278 250 292 250 316 L250 346 L238 346 L238 326 L226 326 L226 346 L212 346 L212 326 L200 326 L200 346 L188 346 Z M270 316 C270 290 286 274 306 274 C324 274 340 290 340 316 L340 348 L326 348 L326 326 L314 326 L314 348 L298 348 L298 326 L286 326 L286 348 L270 348 Z M358 316 C358 292 372 278 390 278 C406 278 420 292 420 316 L420 346 L408 346 L408 326 L396 326 L396 346 L382 346 L382 326 L370 326 L370 346 L358 346 Z M438 316 C438 292 452 278 470 278 C486 278 500 292 500 316 L500 346 L488 346 L488 326 L476 326 L476 346 L462 346 L462 326 L450 326 L450 346 L438 346 Z"/>
  <g fill="#c84b3d" stroke="#5c4033" stroke-width="4">
    <line x1="176" y1="240" x2="176" y2="306"/>
    <path d="M180 242 H232 L224 270 H180 Z"/>
    <line x1="312" y1="226" x2="312" y2="300"/>
    <path d="M316 228 H370 L360 258 H316 Z"/>
    <line x1="448" y1="236" x2="448" y2="304"/>
    <path d="M452 238 H502 L494 266 H452 Z"/>
  </g>
  <g fill="#f2be63" opacity="0.30">
    <circle cx="146" cy="320" r="5"/>
    <circle cx="222" cy="332" r="5"/>
    <circle cx="306" cy="336" r="6"/>
    <circle cx="390" cy="332" r="5"/>
    <circle cx="470" cy="320" r="5"/>
  </g>
</svg>