<svg xmlns="http://www.w3.org/2000/svg" viewBox="0 0 600 400">
  <path fill="#241b15" opacity="0.12" d="M0 0 H600 V74 C538 96 482 106 420 104 C352 102 290 86 234 72 C166 56 106 56 0 80 Z"/>
  <path fill="#8b5e2a" d="M0 0 H600 V38 H0 Z"/>
  <rect x="0" y="36" width="600" height="16" fill="#c89d4f"/>
  <path d="M24 54 C94 104 164 132 234 142 C304 152 376 146 450 130 C500 120 548 106 584 92" fill="none" stroke="#f2be63" stroke-width="8" stroke-linecap="round" opacity="0.46"/>
  <g fill="#c84b3d" opacity="0.84">
    <path d="M48 54 C74 88 98 114 122 136 C98 144 78 154 58 170 C40 144 26 110 18 78 Z"/>
    <path d="M198 60 C226 96 252 118 280 140 C256 148 234 158 214 174 C196 146 182 114 174 84 Z"/>
    <path d="M352 60 C380 96 406 118 434 140 C410 148 388 158 368 174 C350 146 336 114 328 84 Z"/>
    <path d="M548 54 C526 90 500 116 468 138 C492 144 516 154 538 168 C556 140 572 106 584 78 Z"/>
  </g>
</svg>
