<svg xmlns="http://www.w3.org/2000/svg" width="1600" height="780" viewBox="0 0 1600 780">
  <!-- ============================================= -->
  <!-- Final Foreground Frame - Victory Frame        -->
  <!-- Laurel wreaths, flags, celebratory motifs     -->
  <!-- ============================================= -->
  <!-- Bottom ground silhouette -->
  <path d="M0 520 C180 480 340 510 520 580 C700 652 880 640 1060 580 C1240 520 1420 506 1600 550 V780 H0Z" fill="#3a6b2a" opacity="0.40"/>
  <!-- Mid ground -->
  <path d="M0 440 C140 404 260 418 400 470 C500 506 620 514 780 496 C980 476 1140 430 1600 456 V780 H0Z" fill="#1a3a1a" opacity="0.18"/>
  <!-- Left side - decorative column -->
  <g fill="#1a2a1a" opacity="0.50">
    <path d="M0 30 C40 50 80 110 100 220 C112 302 118 382 110 500 V780 H0Z"/>
    <rect x="10" y="40" width="28" height="60" rx="2"/>
    <rect x="6" y="36" width="36" height="8"/>
  </g>
  <!-- Right side - decorative column -->
  <g fill="#1a2a1a" opacity="0.48">
    <path d="M1600 20 C1500 50 1400 150 1360 290 C1338 370 1326 450 1340 550 V780 H1600Z"/>
    <rect x="1560" y="30" width="28" height="60" rx="2"/>
    <rect x="1556" y="26" width="36" height="8"/>
  </g>
  <!-- Left laurel wreath -->
  <g stroke="#d4a017" stroke-width="10" stroke-linecap="round" fill="none" opacity="0.38">
    <path d="M80 520 C110 460 140 424 176 394"/>
    <path d="M100 568 C142 500 180 458 220 424"/>
    <path d="M132 614 C178 540 218 492 260 454"/>
  </g>
  <!-- Right laurel wreath -->
  <g stroke="#d4a017" stroke-width="10" stroke-linecap="round" fill="none" opacity="0.38">
    <path d="M1520 520 C1490 460 1460 424 1424 394"/>
    <path d="M1500 568 C1458 500 1420 458 1380 424"/>
    <path d="M1468 614 C1422 540 1382 492 1340 454"/>
  </g>
  <!-- Left decorative branches -->
  <g stroke="#3a6b2a" stroke-width="12" stroke-linecap="round" opacity="0.44">
    <path d="M60 660 C100 598 134 556 172 524"/>
    <path d="M100 694 C148 624 186 578 224 542"/>
    <path d="M30 520 C52 510 72 512 90 524"/>
  </g>
  <!-- Right decorative branches -->
  <g stroke="#3a6b2a" stroke-width="12" stroke-linecap="round" opacity="0.44">
    <path d="M1540 660 C1500 598 1466 556 1428 524"/>
    <path d="M1500 694 C1452 624 1414 578 1376 542"/>
    <path d="M1570 520 C1548 510 1528 512 1510 524"/>
  </g>
  <!-- Left flag pole -->
  <line x1="80" y1="320" x2="80" y2="60" stroke="#5b3f2f" stroke-width="8" stroke-linecap="round" opacity="0.50"/>
  <!-- Left flag -->
  <rect x="84" y="64" width="50" height="32" rx="2" fill="#c84b3d" stroke="#3c2a1e" stroke-width="4" opacity="0.55"/>
  <!-- Left flag crescent -->
  <path d="M108 74 C114 68 126 68 130 74 C134 80 124 82 120 82 C116 82 104 78 108 74Z" fill="#fff8e7" opacity="0.55"/>
  <!-- Right flag pole -->
  <line x1="1520" y1="320" x2="1520" y2="60" stroke="#5b3f2f" stroke-width="8" stroke-linecap="round" opacity="0.50"/>
  <!-- Right flag -->
  <rect x="1466" y="64" width="50" height="32" rx="2" fill="#c84b3d" stroke="#3c2a1e" stroke-width="4" opacity="0.55"/>
  <!-- Right flag crescent -->
  <rect x="1510" y="74" width="5" height="5" fill="#fff8e7" opacity="0.50"/>
  <!-- Gold accent dots -->
  <g fill="#f2be63" opacity="0.22">
    <circle cx="160" cy="440" r="8"/>
    <circle cx="1440" cy="440" r="8"/>
    <circle cx="80" cy="340" r="6"/>
    <circle cx="1520" cy="340" r="6"/>
    <circle cx="300" cy="700" r="7"/>
    <circle cx="1300" cy="700" r="7"/>
  </g>
  <!-- Sparkles -->
  <g fill="#fff8e7" opacity="0.18">
    <circle cx="120" cy="200" r="4"/>
    <circle cx="1480" cy="200" r="4"/>
    <circle cx="100" cy="130" r="3"/>
    <circle cx="1500" cy="130" r="3"/>
  </g>
</svg>
