<svg xmlns="http://www.w3.org/2000/svg" viewBox="0 0 600 400">
  <path fill="#221a16" opacity="0.12" d="M18 286 C100 244 180 226 262 226 C344 226 432 244 582 286 L582 334 L18 334 Z"/>
  <path fill="#7c6a4f" d="M0 230 C64 210 130 208 198 220 C266 232 338 232 408 218 C478 206 542 206 600 220 L600 260 C540 274 478 282 408 282 C338 282 266 274 198 266 C130 258 64 258 0 268 Z"/>
  <path fill="#e1c587" stroke="#6a5440" stroke-width="5" stroke-linejoin="round" d="M92 194 L146 172 L196 190 L246 164 L294 186 L344 160 L394 184 L444 168 L498 190 L544 176 L534 214 L490 202 L444 206 L394 192 L344 206 L294 188 L246 204 L196 188 L148 204 L104 190 Z"/>
  <g fill="#f7ecd5" stroke="#6a5440" stroke-width="4" stroke-linejoin="round">
    <path d="M124 150 L160 138 L194 150 L194 184 L124 184 Z"/>
    <path d="M238 136 L272 124 L308 138 L308 176 L238 176 Z"/>
    <path d="M354 144 L390 132 L426 144 L426 182 L354 182 Z"/>
  </g>
  <g fill="#c84b3d" opacity="0.66">
    <path d="M142 136 L160 124 L178 136 Z"/>
    <path d="M256 124 L272 112 L290 124 Z"/>
    <path d="M372 132 L390 120 L408 132 Z"/>
  </g>
</svg>
