<svg xmlns="http://www.w3.org/2000/svg" width="1080" height="1920" viewBox="0 0 1080 1920">
  <!-- ============================================= -->
  <!-- Final Terrain - Golden Victory Plains         -->
  <!-- Deep gold → fertile green transition          -->
  <!-- Outline: #3c2a1e stroke-width 14             -->
  <!-- ============================================= -->
  <!-- Deep shadow layer -->
  <path d="M30 1280 C70 1140 190 1040 350 980 C510 920 690 900 830 940 C970 980 1040 1060 1050 1180 C1060 1300 1030 1420 950 1520 C870 1620 710 1680 530 1680 C350 1680 190 1640 110 1540 C30 1440 10 1360 30 1280Z" fill="#1a2a1a" opacity="0.20"/>
  <!-- Base terrain - golden wheat -->
  <path d="M10 1260 C50 1120 170 1020 330 960 C490 900 670 880 810 920 C950 960 1020 1040 1030 1160 C1040 1280 1010 1400 930 1500 C850 1600 690 1660 510 1660 C330 1660 170 1620 90 1520 C10 1420 -10 1340 10 1260Z" fill="#d4a017"/>
  <!-- Mid terrain - warm gold -->
  <path d="M70 1180 C110 1060 220 980 370 924 C520 868 670 856 790 894 C910 932 974 1004 982 1112 C990 1220 964 1332 890 1420 C816 1508 670 1560 510 1560 C350 1560 208 1524 134 1440 C60 1356 42 1276 70 1180Z" fill="#c49a2c"/>
  <!-- Upper terrain - golden honey -->
  <path d="M130 1120 C166 1018 266 946 398 898 C530 850 648 842 754 874 C860 906 918 968 926 1064 C934 1160 910 1264 842 1344 C774 1424 650 1472 510 1472 C370 1472 246 1440 180 1366 C114 1292 98 1220 130 1120Z" fill="#b89020"/>
  <!-- Fertile green transition band -->
  <path d="M200 1300 C240 1220 330 1164 440 1128 C550 1092 654 1088 742 1114 C830 1140 866 1192 860 1260 C854 1328 812 1396 740 1436 C668 1476 554 1500 450 1492 C346 1484 270 1444 226 1380 C182 1316 176 1350 200 1300Z" fill="#4a7a3a" opacity="0.28"/>
  <!-- Accent ridge -->
  <path d="M210 1200 C250 1118 340 1062 450 1026 C560 990 664 986 752 1012 C840 1038 876 1090 870 1158 C864 1226 822 1294 750 1334 C678 1374 564 1398 460 1390 C356 1382 280 1342 236 1278 C192 1214 186 1248 210 1200Z" fill="#d4a017" opacity="0.22"/>
  <!-- Terrain texture dots - gold -->
  <g fill="#8b6914" opacity="0.12">
    <circle cx="280" cy="1080" r="14"/>
    <circle cx="520" cy="1040" r="12"/>
    <circle cx="760" cy="1060" r="11"/>
    <circle cx="380" cy="1330" r="10"/>
    <circle cx="660" cy="1360" r="13"/>
    <circle cx="500" cy="1220" r="9"/>
    <circle cx="240" cy="1260" r="8"/>
    <circle cx="840" cy="1240" r="10"/>
  </g>
  <!-- Green terrain texture dots -->
  <g fill="#2b5e2b" opacity="0.12">
    <circle cx="320" cy="1160" r="10"/>
    <circle cx="580" cy="1120" r="9"/>
    <circle cx="440" cy="1300" r="8"/>
    <circle cx="700" cy="1280" r="11"/>
  </g>
  <!-- Grass tufts -->
  <g stroke="#7a6b1a" stroke-width="4" stroke-linecap="round" opacity="0.18">
    <path d="M170 1160 L176 1138 L182 1160"/>
    <path d="M410 1060 L416 1038 L422 1060"/>
    <path d="M650 1040 L656 1018 L662 1040"/>
    <path d="M890 1120 L896 1098 L902 1120"/>
    <path d="M310 1360 L316 1338 L322 1360"/>
    <path d="M750 1380 L756 1358 L762 1380"/>
    <path d="M500 1100 L506 1078 L512 1100"/>
    <path d="M230 1320 L236 1298 L242 1320"/>
  </g>
  <!-- Lower ground - fertile green -->
  <path d="M50 1350 C90 1260 210 1190 360 1140 C510 1090 650 1080 780 1110 C910 1140 980 1200 990 1300 C1000 1400 970 1490 890 1550 C810 1610 660 1650 500 1650 C340 1650 170 1610 90 1530 C10 1450 20 1400 50 1350Z" fill="#3a6b2a"/>
  <!-- Bottom ground -->
  <path d="M90 1480 C170 1380 330 1320 490 1280 C650 1240 770 1260 860 1320 C950 1380 970 1500 890 1600 C810 1700 650 1740 490 1740 C330 1740 170 1700 90 1620 C10 1540 30 1520 90 1480Z" fill="#2b5e2b"/>
  <!-- Bottom ground dark -->
  <path d="M130 1620 C210 1520 360 1460 500 1420 C640 1380 740 1400 820 1460 C900 1520 920 1620 850 1700 C780 1780 640 1810 500 1810 C360 1810 210 1780 140 1710 C70 1640 80 1620 130 1620Z" fill="#1e4a1e"/>
  <!-- Outline - thick paper cutout style -->
  <path d="M10 1260 C50 1120 170 1020 330 960 C490 900 670 880 810 920 C950 960 1020 1040 1030 1160 C1040 1280 1010 1400 930 1500 C850 1600 690 1660 510 1660 C330 1660 170 1620 90 1520 C10 1420 -10 1340 10 1260Z" fill="none" stroke="#3c2a1e" stroke-width="16" stroke-linecap="round" stroke-linejoin="round"/>
  <!-- Gold accent dots -->
  <g fill="#f2be63" opacity="0.22">
    <circle cx="270" cy="1160" r="10"/>
    <circle cx="710" cy="1100" r="12"/>
    <circle cx="490" cy="1340" r="9"/>
    <circle cx="870" cy="1280" r="8"/>
    <circle cx="170" cy="1320" r="7"/>
  </g>
  <!-- Light sparkles -->
  <g fill="#fff8e7" opacity="0.28">
    <circle cx="510" cy="1040" r="5"/>
    <circle cx="330" cy="1220" r="4"/>
    <circle cx="690" cy="1300" r="4"/>
    <circle cx="430" cy="1460" r="3"/>
  </g>
</svg>
