<svg xmlns="http://www.w3.org/2000/svg" viewBox="0 0 600 400">
  <path fill="#261f1c" opacity="0.16" d="M0 350 C70 326 140 320 212 324 C292 328 368 344 448 350 C508 356 556 354 600 346 V400 H0 Z"/>
  <g fill="#2f2622" opacity="0.84">
    <path d="M42 334 C42 302 60 284 84 284 C106 284 124 302 124 334 V396 H108 V350 H92 V396 H76 V350 H58 V396 H42 Z"/>
    <path d="M134 336 C134 302 154 282 178 282 C202 282 220 302 220 336 V396 H204 V350 H188 V396 H172 V350 H150 V396 H134 Z"/>
    <path d="M236 338 C236 300 256 276 284 276 C310 276 332 300 332 338 V398 H314 V352 H298 V398 H282 V352 H254 V398 H236 Z"/>
    <path d="M352 338 C352 302 372 282 396 282 C420 282 438 302 438 338 V396 H422 V352 H406 V396 H390 V352 H368 V396 H352 Z"/>
    <path d="M456 336 C456 302 476 282 500 282 C524 282 542 302 542 336 V396 H526 V350 H510 V396 H494 V350 H472 V396 H456 Z"/>
  </g>
  <g fill="#c84b3d" opacity="0.64">
    <path d="M84 252 L84 308 L122 282 Z"/>
    <path d="M286 244 L286 308 L326 278 Z"/>
    <path d="M498 252 L498 308 L536 282 Z"/>
  </g>
</svg>
