<svg xmlns="http://www.w3.org/2000/svg" viewBox="0 0 600 400">
  <ellipse cx="302" cy="332" rx="228" ry="18" fill="#1a2a3a" opacity="0.16"/>
  <path fill="#f0e2c1" stroke="#5d4937" stroke-width="5" stroke-linejoin="round" d="M102 246 C154 230 210 228 266 238 C326 250 388 250 448 238 C490 230 524 228 554 236 L544 270 C508 266 476 268 444 276 C384 292 322 294 262 282 C210 272 158 272 114 278 Z"/>
  <g fill="#2b2730" opacity="0.44">
    <path d="M126 314 C126 292 138 280 154 280 C168 280 180 292 180 314 L180 344 L168 344 L168 324 L156 324 L156 344 L144 344 L144 324 L132 324 L132 344 L126 344 Z"/>
    <path d="M204 314 C204 292 216 280 232 280 C246 280 258 292 258 314 L258 344 L246 344 L246 324 L234 324 L234 344 L222 344 L222 324 L210 324 L210 344 L204 344 Z"/>
    <path d="M282 314 C282 290 296 276 314 276 C330 276 344 290 344 314 L344 346 L332 346 L332 324 L320 324 L320 346 L308 346 L308 324 L296 324 L296 346 L282 346 Z"/>
    <path d="M362 314 C362 292 374 280 390 280 C404 280 416 292 416 314 L416 344 L404 344 L404 324 L392 324 L392 344 L380 344 L380 324 L368 324 L368 344 L362 344 Z"/>
    <path d="M440 314 C440 292 452 280 468 280 C482 280 494 292 494 314 L494 344 L482 344 L482 324 L470 324 L470 344 L458 344 L458 324 L446 324 L446 344 L440 344 Z"/>
  </g>
  <g fill="#c84b3d" stroke="#5d4937" stroke-width="4">
    <line x1="172" y1="228" x2="172" y2="296"/>
    <path d="M176 232 H222 L212 258 H176 Z"/>
    <line x1="304" y1="220" x2="304" y2="292"/>
    <path d="M308 224 H358 L350 252 H308 Z"/>
    <line x1="436" y1="228" x2="436" y2="296"/>
    <path d="M440 232 H490 L482 260 H440 Z"/>
  </g>
  <g fill="#f2be63" opacity="0.28">
    <circle cx="154" cy="244" r="6"/>
    <circle cx="230" cy="252" r="5"/>
    <circle cx="314" cy="260" r="6"/>
    <circle cx="390" cy="252" r="5"/>
    <circle cx="468" cy="244" r="6"/>
  </g>
</svg>
