<svg xmlns="http://www.w3.org/2000/svg" viewBox="0 0 600 400">
  <path fill="#352922" d="M0 210 C62 196 118 194 188 206 C258 218 326 220 400 206 C470 194 536 192 600 204 L600 400 L0 400 Z"/>
  <path fill="#5a4535" d="M0 236 C58 224 118 222 184 236 C250 250 326 252 404 238 C476 224 540 220 600 232 L600 400 L0 400 Z"/>
  <path fill="#8d6a47" stroke="#4b3527" stroke-width="6" stroke-linejoin="round" d="M56 246 H544 L512 330 H88 Z"/>
  <path fill="#c7a06f" stroke="#4b3527" stroke-width="5" stroke-linejoin="round" d="M98 232 H502 L474 306 H126 Z"/>
  <g fill="#f0dfbf" opacity="0.28">
    <rect x="146" y="246" width="18" height="48" rx="8"/>
    <rect x="196" y="242" width="18" height="54" rx="8"/>
    <rect x="246" y="238" width="18" height="58" rx="8"/>
    <rect x="336" y="238" width="18" height="58" rx="8"/>
    <rect x="386" y="242" width="18" height="54" rx="8"/>
    <rect x="436" y="246" width="18" height="48" rx="8"/>
  </g>
</svg>