<svg xmlns="http://www.w3.org/2000/svg" viewBox="0 0 600 400">
  <path fill="#c84b3d" stroke="#5a3029" stroke-width="8" stroke-linejoin="round" d="M88 318 C162 292 212 268 248 236 C280 208 302 188 324 162 C356 124 394 104 460 84 L504 98 C436 122 392 148 360 188 C334 220 312 242 278 268 C236 300 184 326 104 348 Z"/>
  <path fill="#f2be63" opacity="0.34" d="M116 322 C182 298 230 270 266 236 C300 204 318 178 340 150 C370 114 408 96 468 82 L486 88 C430 108 392 130 362 166 C340 194 322 220 286 252 C242 290 194 318 124 340 Z"/>
  <g fill="#f5ecd8" opacity="0.44">
    <circle cx="146" cy="314" r="7"/>
    <circle cx="212" cy="282" r="7"/>
    <circle cx="268" cy="236" r="7"/>
    <circle cx="322" cy="170" r="7"/>
    <circle cx="410" cy="112" r="7"/>
  </g>
</svg>