<svg xmlns="http://www.w3.org/2000/svg" viewBox="0 0 600 400">
  <path fill="#201a18" opacity="0.14" d="M0 0 H600 V60 C546 80 500 92 444 96 C376 102 314 90 258 78 C196 64 136 62 0 84 Z"/>
  <path fill="#6b4432" d="M0 0 H600 V44 H0 Z"/>
  <rect x="0" y="40" width="600" height="18" fill="#8f5d42"/>
  <g fill="#c84b3d" opacity="0.84">
    <path d="M34 58 C64 92 90 116 116 138 C92 144 70 152 50 166 C32 138 18 106 10 78 Z"/>
    <path d="M212 58 C240 88 266 108 294 128 C270 136 248 146 226 160 C210 132 198 102 188 78 Z"/>
    <path d="M390 58 C418 88 444 108 472 128 C448 136 426 146 404 160 C388 132 376 102 366 78 Z"/>
    <path d="M560 58 C542 88 516 114 486 138 C510 144 534 154 554 170 C570 140 584 106 590 78 Z"/>
  </g>
  <g fill="#f2be63" opacity="0.36">
    <circle cx="98" cy="62" r="10"/>
    <circle cx="300" cy="60" r="10"/>
    <circle cx="500" cy="62" r="10"/>
  </g>
</svg>
